G04 Filename: C:\job\Work\02390I\mask_1 *
G04 Creator: GC-CAM (TM) 4.1.4  Tue Mar 29 08:32:59 2016 *
G04 This file contains layer(s): *
G04 Layer 6: C:\JOB\WORK\SWARMRECEIVER.GTS *
%FSLAX35Y35*%
G04 Units: mm   *
%MOMM*%
G71*
%SFA1.00000B1.00000*%
%OFA0.00000B0.00000*%
G75*
%AD*%
G04 D34 (position 25 of UNTITLED):0.750062 Round     *
%ADD34C,0.750062*%
G04 D39 (position 28 of UNTITLED):0.010000 Ext. Poly *
%ADD39C,0.010000*%
G04 D49 (position 36 of UNTITLED):0.750062X0.649986 Rectangle *
%ADD49R,0.750062X0.649986*%
G04 D50 (position 37 of UNTITLED):0.649986X0.750062 Rectangle *
%ADD50R,0.649986X0.750062*%
G04 D51 (position 38 of UNTITLED):5.230114X2.182114 Rectangle *
%ADD51R,5.230114X2.182114*%
G04 D52 (position 39 of UNTITLED):5.230114X1.674114 Rectangle *
%ADD52R,5.230114X1.674114*%
G04 D53 (position 40 of UNTITLED):0.400050X0.700024 Rectangle *
%ADD53R,0.400050X0.700024*%
G04 D54 (position 41 of UNTITLED):0.850138X1.050036 Rectangle *
%ADD54R,0.850138X1.050036*%
G04 D55 (position 42 of UNTITLED):1.050036X0.850138 Rectangle *
%ADD55R,1.050036X0.850138*%
G04 D56 (position 43 of UNTITLED):1.199896X0.949960 Rectangle *
%ADD56R,1.199896X0.949960*%
G04 D57 (position 44 of UNTITLED):1.199896X0.750062 Rectangle *
%ADD57R,1.199896X0.750062*%
G04 D58 (position 45 of UNTITLED):2.150110X1.350010 Rectangle *
%ADD58R,2.150110X1.350010*%
G04 D59 (position 46 of UNTITLED):5.750052 Square    *
%ADD59R,5.750052X5.750052*%
G04 D60 (position 47 of UNTITLED):0.850138X0.400050 Oblong    *
%ADD60O,0.850138X0.400050*%
G04 D61 (position 48 of UNTITLED):0.400050X0.850138 Oblong    *
%ADD61O,0.400050X0.850138*%
G04 D62 (position 49 of UNTITLED):0.649986X0.450088 Oblong    *
%ADD62O,0.649986X0.450088*%
G04 D63 (position 50 of UNTITLED):1.150112X1.750060 Rectangle *
%ADD63R,1.150112X1.750060*%
G04 D64 (position 51 of UNTITLED):0.800100X0.350012 Oblong    *
%ADD64O,0.800100X0.350012*%
G04 D65 (position 52 of UNTITLED):0.350012X0.800100 Oblong    *
%ADD65O,0.350012X0.800100*%
G04 D66 (position 53 of UNTITLED):2.750058 Square    *
%ADD66R,2.750058X2.750058*%
G04 D67 (position 54 of UNTITLED):1.549908X1.299972 Rectangle *
%ADD67R,1.549908X1.299972*%
G04 D68 (position 55 of UNTITLED):3.350006X1.450086 Oblong    *
%ADD68O,3.350006X1.450086*%
G04 D75 (position 58 of UNTITLED):0.100000 Round     *
%ADD75C,0.100000*%
G04 D906 (position 60 of UNTITLED):1.152400 Round     *
%ADD906C,1.152400*%
G04 D907 (position 61 of UNTITLED):1.352400 Round     *
%ADD907C,1.352400*%
%IPPOS*%
G04 Layer 6: C:\JOB\WORK\SWARMRECEIVER.GTS *
%LN(06)C:\JOB\WORK\SWARMRECEIVER.GTS*%
%LPD*%
X0Y0D02*
D75*
X-13499990Y-10000000D02*
Y-8500003D01*
X-9999997*
Y-10000000D02*
Y-8500003D01*
X-13499990Y-10000000D02*
X-9999997D01*
D39*
X-12524998Y-9715012D02*
G36*
Y-9670003D01*
X-11934982*
Y-9715012*
X-12524998*
G37*
X-11907486Y-9642508D02*
G36*
Y-9052491D01*
X-11862477*
Y-9642508*
X-11907486*
G37*
X-11934982Y-9024996D02*
G36*
X-12524998D01*
Y-8979987*
X-11934982*
Y-9024996*
G37*
X-12552494Y-9642508D02*
G36*
X-12597503D01*
Y-9052491*
X-12552494*
Y-9642508*
G37*
D906*
X-11576499Y-9747499D03*
X-11068499Y-9849099D03*
Y-9645899D03*
D907*
X-13232503Y-9024996D03*
Y-9475007D03*
D49*
X-10772487Y-9249989D03*
X-10672487D03*
X-12397503Y-8914988D03*
X-12497503D03*
X-11277490Y-9940005D03*
X-11177490D03*
X-11383992D03*
X-11483992D03*
X-11954984Y-8922507D03*
X-12054984D03*
X-11884982Y-9780011D03*
X-11984982D03*
X-11762986Y-8840007D03*
X-11862985D03*
X-12127501Y-8847500D03*
X-12027501D03*
X-12210000D03*
X-12310000D03*
X-11884982Y-9854991D03*
X-11984982D03*
X-11364993Y-9557989D03*
X-11264993D03*
X-11861995Y-8922989D03*
X-11761995D03*
X-11706979Y-8598987D03*
X-11606979D03*
X-11706979Y-8675009D03*
X-11606979D03*
X-11706979Y-8751996D03*
X-11606979D03*
D50*
X-10592477Y-9142496D03*
Y-9242496D03*
X-10852497Y-9142496D03*
Y-9242496D03*
X-11561995Y-9643994D03*
Y-9543994D03*
X-11108986Y-9051996D03*
Y-9151996D03*
X-11341981Y-8968989D03*
Y-8868989D03*
X-11418003Y-8968989D03*
Y-8868989D03*
X-11057501Y-9427509D03*
Y-9527509D03*
X-11494990Y-8968989D03*
Y-8868989D03*
X-12669994Y-9642495D03*
Y-9542495D03*
X-11241981Y-8968989D03*
Y-8868989D03*
X-11675000Y-8945011D03*
Y-8845011D03*
X-11739999Y-9756008D03*
Y-9656008D03*
X-11802483Y-9117502D03*
Y-9017503D03*
X-12647490Y-8700003D03*
Y-8800002D03*
D51*
X-10274977Y-9669089D03*
Y-8830889D03*
D52*
Y-9249989D03*
D53*
X-11107488Y-9335003D03*
X-11057501D03*
X-11007488D03*
Y-9249989D03*
X-11057501D03*
X-11107488D03*
D54*
X-12989983Y-9919990D03*
X-12839996D03*
X-12262502D03*
X-12412489D03*
X-12552494Y-8822507D03*
X-12402481D03*
X-12652494Y-8589995D03*
X-12802481D03*
D55*
X-12769994Y-9487504D03*
Y-9637491D03*
D56*
X-11212491Y-8780013D03*
Y-8570005D03*
X-11477490Y-8780013D03*
Y-8570005D03*
D57*
X-11212491Y-8675009D03*
X-11477490D03*
D58*
X-12972483Y-9349989D03*
Y-9149989D03*
Y-8900002D03*
Y-9600001D03*
D59*
X-12229990Y-9347499D03*
D60*
X-11884982Y-9072494D03*
Y-9122506D03*
Y-9172493D03*
Y-9222506D03*
Y-9272493D03*
Y-9322506D03*
Y-9372493D03*
Y-9422506D03*
Y-9472493D03*
Y-9522505D03*
Y-9572493D03*
Y-9622505D03*
X-12574998D03*
Y-9572493D03*
Y-9522505D03*
Y-9472493D03*
Y-9422506D03*
Y-9372493D03*
Y-9322506D03*
Y-9272493D03*
Y-9222506D03*
Y-9172493D03*
Y-9122506D03*
Y-9072494D03*
D61*
X-11954984Y-9692508D03*
X-12004997D03*
X-12054984D03*
X-12204996D03*
X-12254984D03*
X-12304996D03*
X-12354983D03*
X-12404996D03*
X-12454983D03*
X-12504996D03*
Y-9002491D03*
X-12454983D03*
X-12404996D03*
X-12354983D03*
X-12304996D03*
X-12254984D03*
X-12204996D03*
X-12154984D03*
X-12104997D03*
X-12054984D03*
X-12004997D03*
X-11954984D03*
X-12104997Y-9692508D03*
X-12154984D03*
D62*
X-12574998Y-9924994D03*
Y-9859995D03*
Y-9794997D03*
X-12754983D03*
Y-9859995D03*
Y-9924994D03*
D63*
X-12664990Y-9859995D03*
D64*
X-11587497Y-9167490D03*
Y-9217502D03*
Y-9267489D03*
Y-9317502D03*
Y-9367489D03*
X-11192502D03*
Y-9317502D03*
Y-9267489D03*
Y-9217502D03*
Y-9167490D03*
D65*
X-11489986Y-9465000D03*
X-11439999D03*
X-11389987D03*
X-11339999D03*
X-11289987D03*
Y-9070004D03*
X-11339999D03*
X-11389987D03*
X-11439999D03*
X-11489986D03*
D66*
X-11389987Y-9267489D03*
D67*
X-12050006Y-8737493D03*
X-12269995D03*
Y-8577498D03*
X-12050006D03*
X-11437485Y-9659996D03*
X-11217495D03*
Y-9819990D03*
X-11437485D03*
D68*
X-13232503Y-8665001D03*
Y-9835002D03*
D34*
X-10099997Y-8650015D03*
Y-9849988D03*
X-10249984Y-8650015D03*
Y-9849988D03*
X-10399996Y-8650015D03*
Y-9849988D03*
X-10549983Y-8650015D03*
Y-9849988D03*
X-10699996Y-8650015D03*
X-10624989Y-8800002D03*
X-10699996Y-8949989D03*
X-10624989Y-9400001D03*
X-10699996Y-9549988D03*
X-10624989Y-9700001D03*
X-10699996Y-9849988D03*
X-10849983Y-8650015D03*
X-10775002Y-8800002D03*
X-10849983Y-8949989D03*
X-10775002Y-9400001D03*
X-10849983Y-9549988D03*
X-10775002Y-9700001D03*
X-10849983Y-9849988D03*
X-10924989Y-8800002D03*
Y-9400001D03*
Y-9700001D03*
X-12574998D03*
X-13399990Y-8949989D03*
X-13324984Y-9100002D03*
X-13399990Y-9249989D03*
X-13324984Y-9400001D03*
X-13399990Y-9549988D03*
X-12401999Y-8733988D03*
X-11937992Y-8819992D03*
X-11675000Y-9113007D03*
X-11598978Y-8967998D03*
X-12050006Y-8737493D03*
X-11815995Y-8751996D03*
X-11864001Y-8676000D03*
X-11815995Y-8598987D03*
X-11646984Y-9615012D03*
X-11687827Y-9528093D03*
X-11785007Y-9317502D03*
X-11731998Y-9210009D03*
X-11756001Y-9565990D03*
X-11676981Y-9262994D03*
X-11672003Y-9438000D03*
X-11732988Y-9016004D03*
X-11739999Y-9875007D03*
X-11817494Y-9854991D03*
X-11815995Y-9683999D03*
X-12804995Y-9005006D03*
X-12752493Y-9059997D03*
X-12699992Y-9114988D03*
X-12769994Y-9637491D03*
X-12802481Y-8589995D03*
X-12257498Y-8919992D03*
X-12227501Y-9352503D03*
Y-9152504D03*
X-12427500D03*
X-12024987D03*
Y-9352503D03*
Y-9552503D03*
X-12972483Y-9349989D03*
Y-9149989D03*
X-12103981Y-9778004D03*
X-12173983Y-9816002D03*
X-11212491Y-8780013D03*
X-11445003Y-9212498D03*
X-11334996D03*
X-11445003Y-9322506D03*
X-11334996D03*
X-12664990Y-9822505D03*
Y-9897511D03*
X-12989983Y-9919990D03*
X-12262502D03*
X-12412489Y-9819990D03*
X-11349982Y-8675009D03*
X-11149982Y-9524995D03*
Y-8912499D03*
X-11049982Y-8949989D03*
X-12537482Y-8592510D03*
X-13280001Y-9659996D03*
Y-9240007D03*
Y-8819992D03*
X-13139996Y-9659996D03*
Y-9380011D03*
Y-9240007D03*
Y-8819992D03*
X-12999991Y-8680013D03*
X-12719981Y-9380011D03*
X-12299992Y-9800000D03*
X-11040000Y-8819992D03*
Y-8680013D03*
D49*
X-11884982Y-9834991D03*
X-11984982D03*
D50*
X-11494990Y-8848989D03*
D49*
X-12397503Y-8894988D03*
X-12190000Y-8847500D03*
M02*
