G04 Filename: C:\job\Work\02390I\silk_1 *
G04 Creator: GC-CAM (TM) 4.1.4  Tue Mar 29 08:32:59 2016 *
G04 This file contains layer(s): *
G04 Layer 9: CLIPPED *
%FSLAX35Y35*%
G04 Units: mm   *
%MOMM*%
G71*
%SFA1.00000B1.00000*%
%OFA0.00000B0.00000*%
G75*
%AD*%
G04 D30 (position 21 of UNTITLED):0.199898 Round     *
%ADD30C,0.199898*%
G04 D33 (position 24 of UNTITLED):0.249936 Round     *
%ADD33C,0.249936*%
G04 D71 (position 57 of UNTITLED):0.124968 Round     *
%ADD71C,0.124968*%
G04 D70 (position 59 of UNTITLED):0.101600 Round     *
%ADD70C,0.101600*%
%IPPOS*%
G04 Layer 9: CLIPPED *
%LN(09)CLIPPED*%
%LPD*%
X0Y0D02*
D30*
X-12489883Y-9961595D02*
G03X-12509898I-10007J0D01*
X-12489883I10008J0*
G01X-12599992Y-9019992D02*
Y-8977498D01*
X-12557498*
X-11859988Y-9019992D02*
Y-8977498D01*
X-11902482D02*
X-11859988D01*
X-11610001Y-9117502D02*
Y-9047500D01*
X-11539999*
X-11240000D02*
X-11169997D01*
Y-9117502D02*
Y-9047500D01*
X-11610001Y-9487504D02*
Y-9417502D01*
Y-9487504D02*
X-11539999D01*
X-12169995Y-8527511D02*
X-12150005D01*
X-12169995Y-8787506D02*
X-12150005D01*
X-11337485Y-9870003D02*
X-11317495D01*
D33*
X-11887496Y-9017503D02*
G03X-11912490I-12497J0D01*
X-11887496I12497J0*
G01X-11545003Y-9100002D02*
G03X-11569996I-12497J0D01*
D70*
G01X-10967483Y-9342496D02*
Y-9242496D01*
X-10937486Y-9282501D02*
Y-9302491D01*
X-10938781Y-9283796D02*
Y-9301221D01*
X-10972411Y-9342496D02*
X-10967483D01*
X-10937486Y-9302491D02*
X-10972411D01*
Y-9301221D02*
X-10938781D01*
Y-9298808D02*
X-10972411D01*
Y-9296395D02*
X-10938781D01*
Y-9293982D02*
X-10972411D01*
Y-9291569D02*
X-10938781D01*
Y-9289156D02*
X-10972411D01*
Y-9286743D02*
X-10938781D01*
Y-9301221D02*
X-10972411D01*
Y-9242496D02*
X-10967483D01*
X-10972411Y-9282501D02*
X-10937486D01*
X-10938781Y-9284330D02*
X-10972411D01*
Y-9283796D02*
X-10938781D01*
D30*
X-12777512Y-9975006D02*
X-12552494D01*
X-12927499Y-9884989D02*
X-12902480D01*
X-12927499Y-9954991D02*
X-12902480D01*
X-12350005D02*
X-12324986D01*
X-12350005Y-9884989D02*
X-12324986D01*
X-12490010Y-8787506D02*
X-12464965D01*
X-12490010Y-8857508D02*
X-12464965D01*
X-12739997Y-8640008D02*
X-12714978D01*
X-12739997Y-8540008D02*
X-12714978D01*
D71*
X-12743730Y-8567338D02*
X-12711218Y-8587658D01*
X-12743730Y-8612652D02*
X-12711218Y-8592332D01*
D30*
X-12734993Y-9575007D02*
Y-9549988D01*
X-12804995Y-9575007D02*
Y-9549988D01*
X-12549979Y-9975006D02*
Y-9967463D01*
X-12780002Y-9752502D02*
Y-9745009D01*
D33*
X-11569996Y-9100002D02*
G03X-11545003I12496J0D01*
D30*
G01X-12777487Y-9745009D02*
X-12610761D01*
X-12549979Y-9752502D02*
Y-9751740D01*
X-11902482Y-9717501D02*
X-11862706D01*
X-11394990Y-8639246D02*
Y-8624996D01*
Y-8724996D02*
Y-8710772D01*
X-11321661Y-8624996D02*
X-11294991D01*
X-11394990D02*
X-11378303D01*
X-11294991Y-8658270D02*
Y-8624996D01*
Y-8700003D02*
Y-8691748D01*
X-11302738Y-8707750D02*
X-11294991Y-8700003D01*
X-11319984Y-8724996D02*
X-11317241Y-8722253D01*
X-11321610Y-8724996D02*
X-11319984D01*
X-11394990D02*
X-11378353D01*
X-11169997Y-9471121D02*
Y-9417502D01*
X-11240000Y-9487504D02*
X-11193543D01*
M02*
