G04 Filename: C:\job\Work\mask_4 *
G04 Creator: GC-CAM (TM) 4.1.4  Thu Jun 23 10:26:31 2016 *
G04 This file contains layer(s): *
G04 Layer 7: C:\JOB\WORK\SWARMBOTS_V1.3.GBS *
%FSLAX35Y35*%
G04 Units: mm   *
%MOMM*%
G71*
%SFA1.00000B1.00000*%
%OFA0.00000B0.00000*%
G75*
%AD*%
G04 D43 (position 32 of UNTITLED):0.010000 Ext. Poly *
%ADD43C,0.010000*%
G04 D61 (position 49 of UNTITLED):0.750062X0.649986 Rectangle *
%ADD61R,0.750062X0.649986*%
G04 D62 (position 50 of UNTITLED):0.649986X0.750062 Rectangle *
%ADD62R,0.649986X0.750062*%
G04 D66 (position 54 of UNTITLED):0.800100X0.350012 Oblong    *
%ADD66O,0.800100X0.350012*%
G04 D67 (position 55 of UNTITLED):0.350012X0.800100 Oblong    *
%ADD67O,0.350012X0.800100*%
G04 D71 (position 59 of UNTITLED):0.850138X1.050036 Rectangle *
%ADD71R,0.850138X1.050036*%
G04 D72 (position 60 of UNTITLED):1.050036X0.850138 Rectangle *
%ADD72R,1.050036X0.850138*%
G04 D78 (position 65 of UNTITLED):1.050036 Round     *
%ADD78C,1.050036*%
G04 D79 (position 66 of UNTITLED):0.750062 Round     *
%ADD79C,0.750062*%
G04 D80 (position 67 of UNTITLED):1.549908X1.299972 Rectangle *
%ADD80R,1.549908X1.299972*%
G04 D81 (position 68 of UNTITLED):1.700022 Square    *
%ADD81R,1.700022X1.700022*%
G04 D82 (position 69 of UNTITLED):0.400050X0.850138 Oblong    *
%ADD82O,0.400050X0.850138*%
G04 D83 (position 70 of UNTITLED):0.850138X0.400050 Oblong    *
%ADD83O,0.850138X0.400050*%
G04 D84 (position 71 of UNTITLED):5.750052 Square    *
%ADD84R,5.750052X5.750052*%
G04 D85 (position 72 of UNTITLED):0.949960X0.850138 Rectangle *
%ADD85R,0.949960X0.850138*%
G04 D86 (position 73 of UNTITLED):0.999998X0.750062 Rectangle *
%ADD86R,0.999998X0.750062*%
G04 D87 (position 74 of UNTITLED):0.370078X0.569976 Rectangle *
%ADD87R,0.370078X0.569976*%
G04 D88 (position 75 of UNTITLED):0.350012X0.850138 Oblong    *
%ADD88O,0.350012X0.850138*%
G04 D94 (position 77 of UNTITLED):0.100000 Round     *
%ADD94C,0.100000*%
G04 D902 (position 79 of UNTITLED):1.152400 Round     *
%ADD902C,1.152400*%
%IPPOS*%
G04 Layer 7: C:\JOB\WORK\SWARMBOTS_V1.3.GBS *
%LN(07)C:\JOB\WORK\SWARMBOTS_V1.3.GBS*%
%LPD*%
X0Y0D02*
D94*
X-12049226Y-9235709D02*
G03X-12049150Y-9065682I-50114J85036D01*
G01X-9649434Y-9065631D02*
G03X-9649510Y-9235658I50114J-85036D01*
G01Y-9065504D02*
G03X-12049150Y-9065682I-1199814J-85166D01*
G01Y-9235836D02*
G03X-9649510Y-9235658I1199814J85166D01*
D43*
G01X-11837822Y-9228686D02*
G36*
X-11722836D01*
Y-9178674*
X-11837822*
Y-9228686*
G37*
Y-9124673D02*
G36*
X-11722836D01*
Y-9074661*
X-11837822*
Y-9124673*
G37*
X-9930841Y-8917663D02*
G36*
X-9815855D01*
Y-8867651*
X-9930841*
Y-8917663*
G37*
Y-8813675D02*
G36*
X-9815855D01*
Y-8763663*
X-9930841*
Y-8813675*
G37*
X-11559819Y-9617674D02*
G36*
X-11344833D01*
Y-9572666*
X-11559819*
Y-9617674*
G37*
X-11327333Y-9555165D02*
G36*
X-11282324D01*
Y-9340179*
X-11327333*
Y-9555165*
G37*
X-11559819Y-9322679D02*
G36*
X-11344833D01*
Y-9277670*
X-11559819*
Y-9322679*
G37*
X-11577319Y-9340179D02*
G36*
X-11622328D01*
Y-9555165*
X-11577319*
Y-9340179*
G37*
X-10906836Y-9532673D02*
G36*
X-10861827D01*
Y-8942657*
X-10906836*
Y-9532673*
G37*
X-10216845D02*
G36*
X-10171836D01*
Y-8942657*
X-10216845*
Y-9532673*
G37*
X-10244340Y-8915161D02*
G36*
Y-8870152D01*
X-10834331*
Y-8915161*
X-10244340*
G37*
X-10834331Y-9605178D02*
G36*
X-10244340D01*
Y-9560169*
X-10834331*
Y-9605178*
G37*
D902*
X-9902316Y-8622680D03*
X-10410316Y-8724280D03*
Y-8521080D03*
D61*
X-11144326Y-9631670D03*
X-11244325D03*
X-10158323Y-8581659D03*
X-10058323D03*
Y-8661669D03*
X-10158323D03*
X-10533329Y-9988667D03*
X-10433329D03*
X-10008336Y-9628673D03*
X-10108336D03*
X-9926319Y-8984681D03*
X-10026319D03*
X-10727334Y-9743684D03*
X-10627334D03*
X-11680342Y-9475663D03*
X-11780342D03*
D62*
X-11372341Y-9210665D03*
Y-9110665D03*
X-10083317Y-9498675D03*
Y-9398676D03*
X-11835333Y-9303680D03*
Y-9403679D03*
X-10046334Y-8878661D03*
Y-8778662D03*
X-11758320Y-9303680D03*
Y-9403679D03*
X-9955326Y-9090675D03*
Y-9190675D03*
X-9871328Y-9090675D03*
Y-9190675D03*
X-11532336Y-9210665D03*
Y-9110665D03*
X-11452326Y-9210665D03*
Y-9110665D03*
X-10122331Y-8878661D03*
Y-8778662D03*
X-10138333Y-9798675D03*
Y-9898675D03*
X-10997844Y-8863167D03*
Y-8963167D03*
X-9787331Y-9090675D03*
Y-9190675D03*
X-9906330Y-9513661D03*
Y-9413662D03*
X-11229339Y-9420672D03*
Y-9520672D03*
X-11907342Y-9105661D03*
Y-9205661D03*
X-11682323Y-9303680D03*
Y-9403679D03*
X-11652326Y-9203680D03*
Y-9103680D03*
D66*
X-11304828Y-9357680D03*
Y-9402663D03*
Y-9447672D03*
Y-9492681D03*
Y-9537664D03*
X-11599824D03*
Y-9492681D03*
Y-9447672D03*
Y-9402663D03*
Y-9357680D03*
D67*
X-11542318Y-9300174D03*
X-11497335D03*
X-11452326D03*
X-11407343D03*
X-11362334D03*
Y-9595170D03*
X-11407343D03*
X-11452326D03*
X-11497335D03*
X-11542318D03*
D71*
X-10782325Y-9836673D03*
X-10632338D03*
D72*
X-11098326Y-8808659D03*
Y-8958671D03*
X-11621338Y-9824659D03*
Y-9674672D03*
D78*
X-11130483Y-10214600D03*
X-11253165Y-10181732D03*
X-10568177Y-10214600D03*
X-10445495Y-10181732D03*
D79*
X-11907342Y-9205661D03*
X-11758320Y-9403679D03*
X-10794339Y-9965680D03*
X-10904321D03*
X-9973335Y-8911681D03*
D80*
X-10253319Y-9886660D03*
X-10473334D03*
Y-9726666D03*
X-10253319D03*
D81*
X-11452326Y-9447672D03*
D82*
X-10264343Y-9582673D03*
X-10314330D03*
X-10364342D03*
X-10414330D03*
X-10464342D03*
X-10514329D03*
X-10564342D03*
X-10614329D03*
X-10664342D03*
X-10714329D03*
X-10764316D03*
X-10814329D03*
Y-8892657D03*
X-10764316D03*
X-10714329D03*
X-10664342D03*
X-10614329D03*
X-10564342D03*
X-10514329D03*
X-10464342D03*
X-10414330D03*
X-10364342D03*
X-10314330D03*
X-10264343D03*
D83*
X-10884331Y-9512671D03*
Y-9462684D03*
Y-9412671D03*
Y-9362684D03*
Y-9312671D03*
Y-9262659D03*
Y-9212671D03*
Y-9162659D03*
Y-9112672D03*
Y-9062659D03*
Y-9012672D03*
Y-8962659D03*
X-10194340D03*
Y-9012672D03*
Y-9062659D03*
Y-9112672D03*
Y-9162659D03*
Y-9212671D03*
Y-9262659D03*
Y-9312671D03*
Y-9362684D03*
Y-9412671D03*
Y-9462684D03*
Y-9512671D03*
D84*
X-10539323Y-9237665D03*
D85*
X-11043589Y-10077668D03*
Y-9727656D03*
X-11410340Y-8528675D03*
Y-9008659D03*
D86*
X-11421084Y-9842668D03*
Y-9962683D03*
X-11789079Y-8648664D03*
Y-8768679D03*
Y-8888669D03*
D87*
X-10004323Y-9340662D03*
X-9964318D03*
X-9924338D03*
Y-9276679D03*
X-9964318D03*
X-10004323D03*
X-11734342Y-9542668D03*
X-11774322D03*
X-11814327D03*
Y-9606676D03*
X-11774322D03*
X-11734342D03*
D88*
X-9913340Y-8788669D03*
X-9873335D03*
X-9833330D03*
Y-8892657D03*
X-9873335D03*
X-9913340D03*
X-11820321Y-9099667D03*
X-11780342D03*
X-11740337D03*
Y-9203680D03*
X-11780342D03*
X-11820321D03*
D87*
X-11754322Y-9542668D03*
X-11794327D03*
Y-9606676D03*
X-11754322D03*
D62*
X-11682323Y-9423679D03*
D61*
X-10627334Y-9763684D03*
X-10433329Y-9968667D03*
D62*
X-10158333Y-9898675D03*
D87*
X-9984323Y-9340662D03*
X-9944318D03*
Y-9276679D03*
X-9984323D03*
M02*
