G04 Filename: C:\job\Work\layer_3 *
G04 Creator: GC-CAM (TM) 4.1.4  Thu Jun 23 10:26:31 2016 *
G04 This file contains layer(s): *
G04 Layer 4: N *
%FSLAX35Y35*%
G04 Units: mm   *
%MOMM*%
G71*
%SFA1.00000B1.00000*%
%OFA0.00000B0.00000*%
G75*
%AD*%
G04 D30 (position 20 of UNTITLED):1.500124 Round     *
%ADD30C,1.500124*%
G04 D43 (position 32 of UNTITLED):0.010000 Ext. Poly *
%ADD43C,0.010000*%
G04 D44 (position 33 of UNTITLED):1.016000 Round     *
%ADD44C,1.016000*%
G04 D45 (position 34 of UNTITLED):1.999996 Round     *
%ADD45C,1.999996*%
G04 D47 (position 35 of UNTITLED):1.299972 Round     *
%ADD47C,1.299972*%
G04 D904 (position 80 of UNTITLED):0.149987 Draw      *
%ADD904C,0.149987*%
%IPPOS*%
G04 Layer 4: N *
%LN(04)N*%
%LPD*%
X0Y0D02*
D43*
X-11322329Y-8812672D02*
G36*
Y-9018158D01*
X-11609323*
Y-8848664*
X-11807342*
X-11807316Y-8520674*
X-11614327*
X-11322329Y-8812672*
G37*
D44*
X-12046330Y-9235455D02*
G03Y-9065885I-53010J84785D01*
G01X-9652330Y-9065910D02*
G03X-12046330I-1197000J-84760D01*
G01X-9652330Y-9065885D02*
G03Y-9235455I53010J-84785D01*
G01X-12046330Y-9235430D02*
G03X-9652330I1197000J84760D01*
G01Y-9235455D02*
Y-9235430D01*
Y-9065885D02*
Y-9065910D01*
X-12046330D02*
Y-9065885D01*
D43*
X-11191824Y-8390677D02*
G36*
Y-8001080D01*
G02X-10391825Y-8041595I342805J-1149606*
G01Y-8390677*
X-11191824*
G37*
D904*
X-11875048Y-9152147D02*
G03X-11939635I-32294J-53514D01*
G01X-11960856Y-9173367D02*
G03X-11960855Y-9237955I53514J-32294D01*
G01X-11939635Y-9259175D02*
G03X-11875048I32293J53514D01*
G01X-11853828Y-9237955D02*
G03Y-9173367I-53514J32294D01*
G01X-11726026Y-9350165D02*
G03X-11790613Y-9350166I-32294J-53514D01*
G01X-11811834Y-9371386D02*
G03Y-9435973I53514J-32293D01*
G01X-11790613Y-9457193D02*
G03X-11726026I32293J53514D01*
G01X-11704806Y-9435973D02*
G03Y-9371386I-53514J32294D01*
G01X-9839035Y-9137161D02*
G03X-9903622I-32293J-53514D01*
G01X-9924842Y-9158381D02*
G03Y-9222969I53514J-32294D01*
G01X-9903622Y-9244189D02*
G03X-9839035I32294J53514D01*
G01X-9817814Y-9222969D02*
G03X-9817815Y-9158381I-53514J32294D01*
G01X-10064028Y-8421160D02*
G03X-10128615Y-8421161I-32294J-53514D01*
G01X-10149836Y-8442381D02*
G03Y-8506968I53514J-32293D01*
G01X-10128615Y-8528188D02*
G03X-10064028I32293J53514D01*
G01X-10042808Y-8506968D02*
G03Y-8442381I-53514J32294D01*
G01X-11419042Y-9647168D02*
G03X-11483629I-32293J-53514D01*
G01X-11504849Y-9668388D02*
G03Y-9732975I53514J-32294D01*
G01X-11483629Y-9754196D02*
G03X-11419042I32294J53514D01*
G01X-11397821Y-9732975D02*
G03Y-9668388I-53514J32293D01*
G01X-10539033Y-8692102D02*
G03X-10603621I-32294J-53514D01*
G01X-10624841Y-8713323D02*
G03Y-8777910I53514J-32293D01*
G01X-10603621Y-8799130D02*
G03X-10539033I32294J53514D01*
G01X-10517813Y-8777910D02*
G03Y-8713323I-53514J32294D01*
G01X-11285031Y-8718163D02*
G03X-11349619I-32294J-53514D01*
G01X-11370839Y-8739383D02*
G03Y-8803970I53514J-32294D01*
G01X-11349619Y-8825191D02*
G03X-11285031I32294J53514D01*
G01X-11263811Y-8803970D02*
G03Y-8739383I-53514J32293D01*
G01X-10914039Y-9541148D02*
G03X-10978626I-32294J-53514D01*
G01X-10999847Y-9562368D02*
G03Y-9626956I53514J-32294D01*
G01X-10978626Y-9648176D02*
G03X-10914039I32293J53514D01*
G01X-10892819Y-9626956D02*
G03Y-9562368I-53514J32294D01*
G01X-11184041Y-9259157D02*
G03X-11248628I-32294J-53514D01*
G01X-11269849Y-9280378D02*
G03X-11269848Y-9344965I53514J-32293D01*
G01X-11248628Y-9366185D02*
G03X-11184041I32293J53514D01*
G01X-11162821Y-9344965D02*
G03Y-9280378I-53514J32294D01*
G01X-10600044Y-9863169D02*
G03X-10664632I-32294J-53514D01*
G01X-10685852Y-9884390D02*
G03Y-9948977I53514J-32293D01*
G01X-10664631Y-9970197D02*
G03X-10600044I32293J53514D01*
G01X-10578824Y-9948977D02*
G03Y-9884390I-53514J32294D01*
G01X-11061029Y-9820167D02*
G03X-11125616I-32293J-53514D01*
G01X-11146836Y-9841387D02*
G03Y-9905975I53514J-32294D01*
G01X-11125616Y-9927195D02*
G03X-11061029I32294J53514D01*
G01X-11039808Y-9905975D02*
G03X-11039809Y-9841387I-53514J32294D01*
G01X-10664027Y-10211149D02*
G03X-10728614I-32293J-53514D01*
G01X-10749834Y-10232370D02*
G03Y-10296957I53514J-32293D01*
G01X-10728614Y-10318177D02*
G03X-10664027I32294J53514D01*
G01X-10642806Y-10296957D02*
G03X-10642807Y-10232370I-53514J32294D01*
G01X-9873045Y-9550165D02*
G03X-9937633I-32294J-53514D01*
G01X-9958853Y-9571385D02*
G03Y-9635973I53514J-32294D01*
G01X-9937633Y-9657193D02*
G03X-9873045I32294J53514D01*
G01X-9851825Y-9635973D02*
G03Y-9571385I-53514J32294D01*
G01X-9941041Y-8858167D02*
G03X-10005629Y-8858168I-32294J-53514D01*
G01X-10026849Y-8879388D02*
G03Y-8943975I53514J-32293D01*
G01X-10005628Y-8965195D02*
G03X-9941041I32293J53514D01*
G01X-9919821Y-8943975D02*
G03Y-8879388I-53514J32294D01*
D30*
G01X-11130483Y-10214600D03*
X-11253165Y-10181732D03*
X-10568177Y-10214600D03*
X-10445495Y-10181732D03*
D45*
X-9902316Y-8622680D03*
X-10410316Y-8724280D03*
Y-8521080D03*
D47*
X-10906836Y-8890676D03*
X-11621338Y-9674672D03*
X-11599341Y-9594662D03*
X-11889333Y-8900658D03*
X-10363352Y-10042693D03*
X-10924336Y-10263673D03*
X-11877319Y-9618665D03*
X-11912320Y-9403679D03*
X-10794339Y-9965680D03*
X-10904321D03*
X-10157332Y-8393674D03*
X-11721337Y-9808657D03*
X-10316819Y-8165658D03*
Y-8290677D03*
Y-8415670D03*
X-11561825Y-8660679D03*
X-11369344Y-8713155D03*
X-10751337Y-9044676D03*
X-11401323Y-8796670D03*
X-10667339Y-8801674D03*
X-11230330Y-8810666D03*
X-10518317Y-8798677D03*
X-10554334Y-9216659D03*
X-10486339Y-8607669D03*
X-11239322Y-9876678D03*
X-11319332D03*
X-11494338Y-9405661D03*
X-10985322Y-9348663D03*
X-11036325Y-9411680D03*
Y-9493672D03*
X-10803331Y-9673681D03*
X-10590326Y-9666671D03*
X-10950320Y-9729663D03*
X-11223320Y-9047673D03*
X-11033328Y-9284680D03*
X-11124996Y-9170660D03*
X-10541838Y-8465657D03*
X-10666831D03*
X-11494338D03*
X-11619331D03*
X-11494338Y-8340664D03*
X-11311839Y-8130682D03*
X-10486821Y-9865680D03*
X-10872317Y-9729663D03*
X-10726318Y-9673681D03*
X-11344325Y-10062682D03*
X-11899341Y-9005661D03*
X-11757329Y-9008659D03*
X-10319334Y-8777671D03*
X-10205338Y-8884681D03*
X-9798329Y-9461668D03*
X-10293324Y-8992657D03*
X-10083317Y-9498675D03*
X-10243337Y-8778662D03*
X-9955326Y-9090675D03*
X-10036327Y-9059662D03*
X-10112324Y-9127683D03*
Y-9202664D03*
Y-9279677D03*
X-9991343Y-9412671D03*
X-10259339Y-9698675D03*
X-9970338Y-8836675D03*
X-9780320Y-8892657D03*
X-10111333Y-8984681D03*
X-10046334Y-8778662D03*
X-9970338Y-8760678D03*
X-11812320Y-9702663D03*
M02*
