G04 Layer_Color=15132400*
%FSLAX43Y43*%
%MOMM*%
G71*
G01*
G75*
%ADD15C,0.500*%
%ADD16C,0.254*%
%ADD17C,0.200*%
D15*
X29169Y29652D02*
G03*
X29169Y29652I-125J0D01*
G01*
D16*
X32571Y179600D02*
X39450D01*
X32550Y179579D02*
X32571Y179600D01*
X32550Y166900D02*
Y179579D01*
Y166900D02*
X39450D01*
Y179600D01*
X131750Y172520D02*
X132766Y171504D01*
X131750D02*
X132766Y172520D01*
X131750Y172012D02*
X132766D01*
X132258Y171504D02*
Y172520D01*
X134289Y172774D02*
X133274D01*
Y172012D01*
X133781Y172266D01*
X134035D01*
X134289Y172012D01*
Y171504D01*
X134035Y171250D01*
X133527D01*
X133274Y171504D01*
X163000Y174520D02*
X164016Y173504D01*
X163000D02*
X164016Y174520D01*
X163000Y174012D02*
X164016D01*
X163508Y173504D02*
Y174520D01*
X164524D02*
X164777Y174774D01*
X165285D01*
X165539Y174520D01*
Y174266D01*
X165285Y174012D01*
X165031D01*
X165285D01*
X165539Y173758D01*
Y173504D01*
X165285Y173250D01*
X164777D01*
X164524Y173504D01*
X196500Y174520D02*
X197516Y173504D01*
X196500D02*
X197516Y174520D01*
X196500Y174012D02*
X197516D01*
X197008Y173504D02*
Y174520D01*
X198024Y173250D02*
X198531D01*
X198277D01*
Y174774D01*
X198024Y174520D01*
X99250D02*
X100266Y173504D01*
X99250D02*
X100266Y174520D01*
X99250Y174012D02*
X100266D01*
X99758Y173504D02*
Y174520D01*
X100774Y174774D02*
X101789D01*
Y174520D01*
X100774Y173504D01*
Y173250D01*
X67000Y174770D02*
X68016Y173754D01*
X67000D02*
X68016Y174770D01*
X67000Y174262D02*
X68016D01*
X67508Y173754D02*
Y174770D01*
X68524Y173754D02*
X68777Y173500D01*
X69285D01*
X69539Y173754D01*
Y174770D01*
X69285Y175024D01*
X68777D01*
X68524Y174770D01*
Y174516D01*
X68777Y174262D01*
X69539D01*
X56750Y49270D02*
X57766Y48254D01*
X56750D02*
X57766Y49270D01*
X56750Y48762D02*
X57766D01*
X57258Y48254D02*
Y49270D01*
X59289Y49524D02*
X58274D01*
Y48762D01*
X58781Y49016D01*
X59035D01*
X59289Y48762D01*
Y48254D01*
X59035Y48000D01*
X58527D01*
X58274Y48254D01*
X59797Y49270D02*
X60051Y49524D01*
X60559D01*
X60813Y49270D01*
Y48254D01*
X60559Y48000D01*
X60051D01*
X59797Y48254D01*
Y49270D01*
X89000Y48770D02*
X90016Y47754D01*
X89000D02*
X90016Y48770D01*
X89000Y48262D02*
X90016D01*
X89508Y47754D02*
Y48770D01*
X91285Y47500D02*
Y49024D01*
X90524Y48262D01*
X91539D01*
X92047Y48770D02*
X92301Y49024D01*
X92809D01*
X93063Y48770D01*
Y48516D01*
X92809Y48262D01*
X93063Y48008D01*
Y47754D01*
X92809Y47500D01*
X92301D01*
X92047Y47754D01*
Y48008D01*
X92301Y48262D01*
X92047Y48516D01*
Y48770D01*
X92301Y48262D02*
X92809D01*
X183500Y48520D02*
X184516Y47504D01*
X183500D02*
X184516Y48520D01*
X183500Y48012D02*
X184516D01*
X184008Y47504D02*
Y48520D01*
X185785Y47250D02*
Y48774D01*
X185024Y48012D01*
X186039D01*
X187563Y48774D02*
X187055Y48520D01*
X186547Y48012D01*
Y47504D01*
X186801Y47250D01*
X187309D01*
X187563Y47504D01*
Y47758D01*
X187309Y48012D01*
X186547D01*
X152750Y48520D02*
X153766Y47504D01*
X152750D02*
X153766Y48520D01*
X152750Y48012D02*
X153766D01*
X153258Y47504D02*
Y48520D01*
X155035Y47250D02*
Y48774D01*
X154274Y48012D01*
X155289D01*
X156559Y47250D02*
Y48774D01*
X155797Y48012D01*
X156813D01*
X121000Y49020D02*
X122016Y48004D01*
X121000D02*
X122016Y49020D01*
X121000Y48512D02*
X122016D01*
X121508Y48004D02*
Y49020D01*
X123285Y47750D02*
Y49274D01*
X122524Y48512D01*
X123539D01*
X125063Y47750D02*
X124047D01*
X125063Y48766D01*
Y49020D01*
X124809Y49274D01*
X124301D01*
X124047Y49020D01*
X57250Y80520D02*
X58266Y79504D01*
X57250D02*
X58266Y80520D01*
X57250Y80012D02*
X58266D01*
X57758Y79504D02*
Y80520D01*
X59535Y79250D02*
Y80774D01*
X58774Y80012D01*
X59789D01*
X60297Y80520D02*
X60551Y80774D01*
X61059D01*
X61313Y80520D01*
Y79504D01*
X61059Y79250D01*
X60551D01*
X60297Y79504D01*
Y80520D01*
X89250Y81770D02*
X90266Y80754D01*
X89250D02*
X90266Y81770D01*
X89250Y81262D02*
X90266D01*
X89758Y80754D02*
Y81770D01*
X90774D02*
X91027Y82024D01*
X91535D01*
X91789Y81770D01*
Y81516D01*
X91535Y81262D01*
X91281D01*
X91535D01*
X91789Y81008D01*
Y80754D01*
X91535Y80500D01*
X91027D01*
X90774Y80754D01*
X92297Y81770D02*
X92551Y82024D01*
X93059D01*
X93313Y81770D01*
Y81516D01*
X93059Y81262D01*
X93313Y81008D01*
Y80754D01*
X93059Y80500D01*
X92551D01*
X92297Y80754D01*
Y81008D01*
X92551Y81262D01*
X92297Y81516D01*
Y81770D01*
X92551Y81262D02*
X93059D01*
X122000Y81270D02*
X123016Y80254D01*
X122000D02*
X123016Y81270D01*
X122000Y80762D02*
X123016D01*
X122508Y80254D02*
Y81270D01*
X123524D02*
X123777Y81524D01*
X124285D01*
X124539Y81270D01*
Y81016D01*
X124285Y80762D01*
X124031D01*
X124285D01*
X124539Y80508D01*
Y80254D01*
X124285Y80000D01*
X123777D01*
X123524Y80254D01*
X126063Y81524D02*
X125555Y81270D01*
X125047Y80762D01*
Y80254D01*
X125301Y80000D01*
X125809D01*
X126063Y80254D01*
Y80508D01*
X125809Y80762D01*
X125047D01*
X153500Y79770D02*
X154516Y78754D01*
X153500D02*
X154516Y79770D01*
X153500Y79262D02*
X154516D01*
X154008Y78754D02*
Y79770D01*
X155024D02*
X155277Y80024D01*
X155785D01*
X156039Y79770D01*
Y79516D01*
X155785Y79262D01*
X155531D01*
X155785D01*
X156039Y79008D01*
Y78754D01*
X155785Y78500D01*
X155277D01*
X155024Y78754D01*
X157309Y78500D02*
Y80024D01*
X156547Y79262D01*
X157563D01*
X183000Y80520D02*
X184016Y79504D01*
X183000D02*
X184016Y80520D01*
X183000Y80012D02*
X184016D01*
X183508Y79504D02*
Y80520D01*
X184524D02*
X184777Y80774D01*
X185285D01*
X185539Y80520D01*
Y80266D01*
X185285Y80012D01*
X185031D01*
X185285D01*
X185539Y79758D01*
Y79504D01*
X185285Y79250D01*
X184777D01*
X184524Y79504D01*
X187063Y79250D02*
X186047D01*
X187063Y80266D01*
Y80520D01*
X186809Y80774D01*
X186301D01*
X186047Y80520D01*
X56750Y112520D02*
X57766Y111504D01*
X56750D02*
X57766Y112520D01*
X56750Y112012D02*
X57766D01*
X57258Y111504D02*
Y112520D01*
X58274D02*
X58527Y112774D01*
X59035D01*
X59289Y112520D01*
Y112266D01*
X59035Y112012D01*
X58781D01*
X59035D01*
X59289Y111758D01*
Y111504D01*
X59035Y111250D01*
X58527D01*
X58274Y111504D01*
X59797Y112520D02*
X60051Y112774D01*
X60559D01*
X60813Y112520D01*
Y111504D01*
X60559Y111250D01*
X60051D01*
X59797Y111504D01*
Y112520D01*
X89500D02*
X90516Y111504D01*
X89500D02*
X90516Y112520D01*
X89500Y112012D02*
X90516D01*
X90008Y111504D02*
Y112520D01*
X92039Y111250D02*
X91024D01*
X92039Y112266D01*
Y112520D01*
X91785Y112774D01*
X91277D01*
X91024Y112520D01*
X92547D02*
X92801Y112774D01*
X93309D01*
X93563Y112520D01*
Y112266D01*
X93309Y112012D01*
X93563Y111758D01*
Y111504D01*
X93309Y111250D01*
X92801D01*
X92547Y111504D01*
Y111758D01*
X92801Y112012D01*
X92547Y112266D01*
Y112520D01*
X92801Y112012D02*
X93309D01*
X121250Y112270D02*
X122266Y111254D01*
X121250D02*
X122266Y112270D01*
X121250Y111762D02*
X122266D01*
X121758Y111254D02*
Y112270D01*
X123789Y111000D02*
X122774D01*
X123789Y112016D01*
Y112270D01*
X123535Y112524D01*
X123027D01*
X122774Y112270D01*
X125313Y112524D02*
X124805Y112270D01*
X124297Y111762D01*
Y111254D01*
X124551Y111000D01*
X125059D01*
X125313Y111254D01*
Y111508D01*
X125059Y111762D01*
X124297D01*
X153500Y113020D02*
X154516Y112004D01*
X153500D02*
X154516Y113020D01*
X153500Y112512D02*
X154516D01*
X154008Y112004D02*
Y113020D01*
X156039Y111750D02*
X155024D01*
X156039Y112766D01*
Y113020D01*
X155785Y113274D01*
X155277D01*
X155024Y113020D01*
X157309Y111750D02*
Y113274D01*
X156547Y112512D01*
X157563D01*
X185250Y113520D02*
X186266Y112504D01*
X185250D02*
X186266Y113520D01*
X185250Y113012D02*
X186266D01*
X185758Y112504D02*
Y113520D01*
X187789Y112250D02*
X186774D01*
X187789Y113266D01*
Y113520D01*
X187535Y113774D01*
X187027D01*
X186774Y113520D01*
X189313Y112250D02*
X188297D01*
X189313Y113266D01*
Y113520D01*
X189059Y113774D01*
X188551D01*
X188297Y113520D01*
X57500Y144520D02*
X58516Y143504D01*
X57500D02*
X58516Y144520D01*
X57500Y144012D02*
X58516D01*
X58008Y143504D02*
Y144520D01*
X60039Y143250D02*
X59024D01*
X60039Y144266D01*
Y144520D01*
X59785Y144774D01*
X59277D01*
X59024Y144520D01*
X60547D02*
X60801Y144774D01*
X61309D01*
X61563Y144520D01*
Y143504D01*
X61309Y143250D01*
X60801D01*
X60547Y143504D01*
Y144520D01*
X89750Y145520D02*
X90766Y144504D01*
X89750D02*
X90766Y145520D01*
X89750Y145012D02*
X90766D01*
X90258Y144504D02*
Y145520D01*
X91274Y144250D02*
X91781D01*
X91527D01*
Y145774D01*
X91274Y145520D01*
X92543D02*
X92797Y145774D01*
X93305D01*
X93559Y145520D01*
Y145266D01*
X93305Y145012D01*
X93559Y144758D01*
Y144504D01*
X93305Y144250D01*
X92797D01*
X92543Y144504D01*
Y144758D01*
X92797Y145012D01*
X92543Y145266D01*
Y145520D01*
X92797Y145012D02*
X93305D01*
X120750Y145020D02*
X121766Y144004D01*
X120750D02*
X121766Y145020D01*
X120750Y144512D02*
X121766D01*
X121258Y144004D02*
Y145020D01*
X122274Y143750D02*
X122781D01*
X122527D01*
Y145274D01*
X122274Y145020D01*
X124559Y145274D02*
X124051Y145020D01*
X123543Y144512D01*
Y144004D01*
X123797Y143750D01*
X124305D01*
X124559Y144004D01*
Y144258D01*
X124305Y144512D01*
X123543D01*
X154000Y145270D02*
X155016Y144254D01*
X154000D02*
X155016Y145270D01*
X154000Y144762D02*
X155016D01*
X154508Y144254D02*
Y145270D01*
X155524Y144000D02*
X156031D01*
X155777D01*
Y145524D01*
X155524Y145270D01*
X157555Y144000D02*
Y145524D01*
X156793Y144762D01*
X157809D01*
X184750Y144770D02*
X185766Y143754D01*
X184750D02*
X185766Y144770D01*
X184750Y144262D02*
X185766D01*
X185258Y143754D02*
Y144770D01*
X186274Y143500D02*
X186781D01*
X186527D01*
Y145024D01*
X186274Y144770D01*
X188559Y143500D02*
X187543D01*
X188559Y144516D01*
Y144770D01*
X188305Y145024D01*
X187797D01*
X187543Y144770D01*
X56500Y176020D02*
X57516Y175004D01*
X56500D02*
X57516Y176020D01*
X56500Y175512D02*
X57516D01*
X57008Y175004D02*
Y176020D01*
X58024Y174750D02*
X58531D01*
X58277D01*
Y176274D01*
X58024Y176020D01*
X59293D02*
X59547Y176274D01*
X60055D01*
X60309Y176020D01*
Y175004D01*
X60055Y174750D01*
X59547D01*
X59293Y175004D01*
Y176020D01*
X89250D02*
X90266Y175004D01*
X89250D02*
X90266Y176020D01*
X89250Y175512D02*
X90266D01*
X89758Y175004D02*
Y176020D01*
X90774D02*
X91027Y176274D01*
X91535D01*
X91789Y176020D01*
Y175766D01*
X91535Y175512D01*
X91789Y175258D01*
Y175004D01*
X91535Y174750D01*
X91027D01*
X90774Y175004D01*
Y175258D01*
X91027Y175512D01*
X90774Y175766D01*
Y176020D01*
X91027Y175512D02*
X91535D01*
X121750Y175270D02*
X122766Y174254D01*
X121750D02*
X122766Y175270D01*
X121750Y174762D02*
X122766D01*
X122258Y174254D02*
Y175270D01*
X124289Y175524D02*
X123781Y175270D01*
X123274Y174762D01*
Y174254D01*
X123527Y174000D01*
X124035D01*
X124289Y174254D01*
Y174508D01*
X124035Y174762D01*
X123274D01*
X154250Y174770D02*
X155266Y173754D01*
X154250D02*
X155266Y174770D01*
X154250Y174262D02*
X155266D01*
X154758Y173754D02*
Y174770D01*
X156535Y173500D02*
Y175024D01*
X155774Y174262D01*
X156789D01*
X186500Y175520D02*
X187516Y174504D01*
X186500D02*
X187516Y175520D01*
X186500Y175012D02*
X187516D01*
X187008Y174504D02*
Y175520D01*
X189039Y174250D02*
X188024D01*
X189039Y175266D01*
Y175520D01*
X188785Y175774D01*
X188277D01*
X188024Y175520D01*
X66250Y48520D02*
X67266Y47504D01*
X66250D02*
X67266Y48520D01*
X66250Y48012D02*
X67266D01*
X66758Y47504D02*
Y48520D01*
X68535Y47250D02*
Y48774D01*
X67774Y48012D01*
X68789D01*
X69297Y47504D02*
X69551Y47250D01*
X70059D01*
X70313Y47504D01*
Y48520D01*
X70059Y48774D01*
X69551D01*
X69297Y48520D01*
Y48266D01*
X69551Y48012D01*
X70313D01*
X99000Y48770D02*
X100016Y47754D01*
X99000D02*
X100016Y48770D01*
X99000Y48262D02*
X100016D01*
X99508Y47754D02*
Y48770D01*
X101285Y47500D02*
Y49024D01*
X100524Y48262D01*
X101539D01*
X102047Y49024D02*
X103063D01*
Y48770D01*
X102047Y47754D01*
Y47500D01*
X195250Y46770D02*
X196266Y45754D01*
X195250D02*
X196266Y46770D01*
X195250Y46262D02*
X196266D01*
X195758Y45754D02*
Y46770D01*
X197535Y45500D02*
Y47024D01*
X196774Y46262D01*
X197789D01*
X199313Y47024D02*
X198297D01*
Y46262D01*
X198805Y46516D01*
X199059D01*
X199313Y46262D01*
Y45754D01*
X199059Y45500D01*
X198551D01*
X198297Y45754D01*
X163500Y47520D02*
X164516Y46504D01*
X163500D02*
X164516Y47520D01*
X163500Y47012D02*
X164516D01*
X164008Y46504D02*
Y47520D01*
X165785Y46250D02*
Y47774D01*
X165024Y47012D01*
X166039D01*
X166547Y47520D02*
X166801Y47774D01*
X167309D01*
X167563Y47520D01*
Y47266D01*
X167309Y47012D01*
X167055D01*
X167309D01*
X167563Y46758D01*
Y46504D01*
X167309Y46250D01*
X166801D01*
X166547Y46504D01*
X131750Y47520D02*
X132766Y46504D01*
X131750D02*
X132766Y47520D01*
X131750Y47012D02*
X132766D01*
X132258Y46504D02*
Y47520D01*
X134035Y46250D02*
Y47774D01*
X133274Y47012D01*
X134289D01*
X134797Y46250D02*
X135305D01*
X135051D01*
Y47774D01*
X134797Y47520D01*
X66250Y80020D02*
X67266Y79004D01*
X66250D02*
X67266Y80020D01*
X66250Y79512D02*
X67266D01*
X66758Y79004D02*
Y80020D01*
X67774D02*
X68027Y80274D01*
X68535D01*
X68789Y80020D01*
Y79766D01*
X68535Y79512D01*
X68281D01*
X68535D01*
X68789Y79258D01*
Y79004D01*
X68535Y78750D01*
X68027D01*
X67774Y79004D01*
X69297D02*
X69551Y78750D01*
X70059D01*
X70313Y79004D01*
Y80020D01*
X70059Y80274D01*
X69551D01*
X69297Y80020D01*
Y79766D01*
X69551Y79512D01*
X70313D01*
X98750Y80020D02*
X99766Y79004D01*
X98750D02*
X99766Y80020D01*
X98750Y79512D02*
X99766D01*
X99258Y79004D02*
Y80020D01*
X100274D02*
X100527Y80274D01*
X101035D01*
X101289Y80020D01*
Y79766D01*
X101035Y79512D01*
X100781D01*
X101035D01*
X101289Y79258D01*
Y79004D01*
X101035Y78750D01*
X100527D01*
X100274Y79004D01*
X101797Y80274D02*
X102813D01*
Y80020D01*
X101797Y79004D01*
Y78750D01*
X131000Y80020D02*
X132016Y79004D01*
X131000D02*
X132016Y80020D01*
X131000Y79512D02*
X132016D01*
X131508Y79004D02*
Y80020D01*
X132524D02*
X132777Y80274D01*
X133285D01*
X133539Y80020D01*
Y79766D01*
X133285Y79512D01*
X133031D01*
X133285D01*
X133539Y79258D01*
Y79004D01*
X133285Y78750D01*
X132777D01*
X132524Y79004D01*
X135063Y80274D02*
X134047D01*
Y79512D01*
X134555Y79766D01*
X134809D01*
X135063Y79512D01*
Y79004D01*
X134809Y78750D01*
X134301D01*
X134047Y79004D01*
X163750Y79770D02*
X164766Y78754D01*
X163750D02*
X164766Y79770D01*
X163750Y79262D02*
X164766D01*
X164258Y78754D02*
Y79770D01*
X165274D02*
X165527Y80024D01*
X166035D01*
X166289Y79770D01*
Y79516D01*
X166035Y79262D01*
X165781D01*
X166035D01*
X166289Y79008D01*
Y78754D01*
X166035Y78500D01*
X165527D01*
X165274Y78754D01*
X166797Y79770D02*
X167051Y80024D01*
X167559D01*
X167813Y79770D01*
Y79516D01*
X167559Y79262D01*
X167305D01*
X167559D01*
X167813Y79008D01*
Y78754D01*
X167559Y78500D01*
X167051D01*
X166797Y78754D01*
X196000Y79520D02*
X197016Y78504D01*
X196000D02*
X197016Y79520D01*
X196000Y79012D02*
X197016D01*
X196508Y78504D02*
Y79520D01*
X197524D02*
X197777Y79774D01*
X198285D01*
X198539Y79520D01*
Y79266D01*
X198285Y79012D01*
X198031D01*
X198285D01*
X198539Y78758D01*
Y78504D01*
X198285Y78250D01*
X197777D01*
X197524Y78504D01*
X199047Y78250D02*
X199555D01*
X199301D01*
Y79774D01*
X199047Y79520D01*
X66750Y113020D02*
X67766Y112004D01*
X66750D02*
X67766Y113020D01*
X66750Y112512D02*
X67766D01*
X67258Y112004D02*
Y113020D01*
X69289Y111750D02*
X68274D01*
X69289Y112766D01*
Y113020D01*
X69035Y113274D01*
X68527D01*
X68274Y113020D01*
X69797Y112004D02*
X70051Y111750D01*
X70559D01*
X70813Y112004D01*
Y113020D01*
X70559Y113274D01*
X70051D01*
X69797Y113020D01*
Y112766D01*
X70051Y112512D01*
X70813D01*
X98750Y111520D02*
X99766Y110504D01*
X98750D02*
X99766Y111520D01*
X98750Y111012D02*
X99766D01*
X99258Y110504D02*
Y111520D01*
X101289Y110250D02*
X100274D01*
X101289Y111266D01*
Y111520D01*
X101035Y111774D01*
X100527D01*
X100274Y111520D01*
X101797Y111774D02*
X102813D01*
Y111520D01*
X101797Y110504D01*
Y110250D01*
X131250Y110270D02*
X132266Y109254D01*
X131250D02*
X132266Y110270D01*
X131250Y109762D02*
X132266D01*
X131758Y109254D02*
Y110270D01*
X133789Y109000D02*
X132774D01*
X133789Y110016D01*
Y110270D01*
X133535Y110524D01*
X133027D01*
X132774Y110270D01*
X135313Y110524D02*
X134297D01*
Y109762D01*
X134805Y110016D01*
X135059D01*
X135313Y109762D01*
Y109254D01*
X135059Y109000D01*
X134551D01*
X134297Y109254D01*
X163750Y110520D02*
X164766Y109504D01*
X163750D02*
X164766Y110520D01*
X163750Y110012D02*
X164766D01*
X164258Y109504D02*
Y110520D01*
X166289Y109250D02*
X165274D01*
X166289Y110266D01*
Y110520D01*
X166035Y110774D01*
X165527D01*
X165274Y110520D01*
X166797D02*
X167051Y110774D01*
X167559D01*
X167813Y110520D01*
Y110266D01*
X167559Y110012D01*
X167305D01*
X167559D01*
X167813Y109758D01*
Y109504D01*
X167559Y109250D01*
X167051D01*
X166797Y109504D01*
X196500Y111520D02*
X197516Y110504D01*
X196500D02*
X197516Y111520D01*
X196500Y111012D02*
X197516D01*
X197008Y110504D02*
Y111520D01*
X199039Y110250D02*
X198024D01*
X199039Y111266D01*
Y111520D01*
X198785Y111774D01*
X198277D01*
X198024Y111520D01*
X199547Y110250D02*
X200055D01*
X199801D01*
Y111774D01*
X199547Y111520D01*
X68250Y145270D02*
X69266Y144254D01*
X68250D02*
X69266Y145270D01*
X68250Y144762D02*
X69266D01*
X68758Y144254D02*
Y145270D01*
X69774Y144000D02*
X70281D01*
X70027D01*
Y145524D01*
X69774Y145270D01*
X71043Y144254D02*
X71297Y144000D01*
X71805D01*
X72059Y144254D01*
Y145270D01*
X71805Y145524D01*
X71297D01*
X71043Y145270D01*
Y145016D01*
X71297Y144762D01*
X72059D01*
X99000Y144270D02*
X100016Y143254D01*
X99000D02*
X100016Y144270D01*
X99000Y143762D02*
X100016D01*
X99508Y143254D02*
Y144270D01*
X100524Y143000D02*
X101031D01*
X100777D01*
Y144524D01*
X100524Y144270D01*
X101793Y144524D02*
X102809D01*
Y144270D01*
X101793Y143254D01*
Y143000D01*
X131500Y143020D02*
X132516Y142004D01*
X131500D02*
X132516Y143020D01*
X131500Y142512D02*
X132516D01*
X132008Y142004D02*
Y143020D01*
X133024Y141750D02*
X133531D01*
X133277D01*
Y143274D01*
X133024Y143020D01*
X135309Y143274D02*
X134293D01*
Y142512D01*
X134801Y142766D01*
X135055D01*
X135309Y142512D01*
Y142004D01*
X135055Y141750D01*
X134547D01*
X134293Y142004D01*
X162750Y143270D02*
X163766Y142254D01*
X162750D02*
X163766Y143270D01*
X162750Y142762D02*
X163766D01*
X163258Y142254D02*
Y143270D01*
X164274Y142000D02*
X164781D01*
X164527D01*
Y143524D01*
X164274Y143270D01*
X165543D02*
X165797Y143524D01*
X166305D01*
X166559Y143270D01*
Y143016D01*
X166305Y142762D01*
X166051D01*
X166305D01*
X166559Y142508D01*
Y142254D01*
X166305Y142000D01*
X165797D01*
X165543Y142254D01*
X195250Y143270D02*
X196266Y142254D01*
X195250D02*
X196266Y143270D01*
X195250Y142762D02*
X196266D01*
X195758Y142254D02*
Y143270D01*
X196774Y142000D02*
X197281D01*
X197027D01*
Y143524D01*
X196774Y143270D01*
X198043Y142000D02*
X198551D01*
X198297D01*
Y143524D01*
X198043Y143270D01*
X41016Y44774D02*
X40508D01*
X40762D01*
Y43504D01*
X40508Y43250D01*
X40254D01*
X40000Y43504D01*
X41524Y43250D02*
X42031D01*
X41777D01*
Y44774D01*
X41524Y44520D01*
X33688Y181759D02*
X33434Y182013D01*
X32927D01*
X32673Y181759D01*
Y181505D01*
X32927Y181251D01*
X33434D01*
X33688Y180997D01*
Y180743D01*
X33434Y180489D01*
X32927D01*
X32673Y180743D01*
X34196Y180489D02*
X34704D01*
X34450D01*
Y182013D01*
X34196Y181759D01*
D17*
X39044Y27652D02*
Y30052D01*
Y35252D02*
Y36052D01*
X30044Y35252D02*
Y36052D01*
Y27652D02*
Y30052D01*
Y27652D02*
X39044D01*
Y41352D02*
Y42452D01*
X35994D02*
X39044D01*
X35994Y41052D02*
Y42452D01*
X31144Y41052D02*
X35994D01*
M02*
