G04 Layer_Color=2752767*
%FSLAX43Y43*%
%MOMM*%
G71*
G01*
G75*
%ADD24C,0.127*%
%ADD25C,0.169*%
D24*
X35492Y177442D02*
Y178458D01*
X36508D01*
Y177442D01*
X35492D01*
Y172742D02*
Y173758D01*
X36508D01*
Y172742D01*
X35492D01*
Y168042D02*
Y169058D01*
X36508D01*
Y168042D01*
X35492D01*
X34544Y32144D02*
X34036Y33160D01*
X35052D01*
X34544Y32144D01*
X29044D02*
X29298Y32398D01*
X29552D01*
X29298Y32652D01*
X29552Y32906D01*
X29298D01*
X29044Y33160D01*
X28790Y32906D01*
X28536D01*
X28790Y32652D01*
X28536Y32398D01*
X28790D01*
X29044Y32144D01*
Y30744D02*
X29298Y30998D01*
X29552D01*
X29298Y31252D01*
X29552Y31506D01*
X29298D01*
X29044Y31760D01*
X28790Y31506D01*
X28536D01*
X28790Y31252D01*
X28536Y30998D01*
X28790D01*
X29044Y30744D01*
X28044Y31444D02*
X28298Y31698D01*
X28552D01*
X28298Y31952D01*
X28552Y32206D01*
X28298D01*
X28044Y32460D01*
X27790Y32206D01*
X27536D01*
X27790Y31952D01*
X27536Y31698D01*
X27790D01*
X28044Y31444D01*
Y32844D02*
X28298Y33098D01*
X28552D01*
X28298Y33352D01*
X28552Y33606D01*
X28298D01*
X28044Y33860D01*
X27790Y33606D01*
X27536D01*
X27790Y33352D01*
X27536Y33098D01*
X27790D01*
X28044Y32844D01*
X29044Y33544D02*
X29298Y33798D01*
X29552D01*
X29298Y34052D01*
X29552Y34306D01*
X29298D01*
X29044Y34560D01*
X28790Y34306D01*
X28536D01*
X28790Y34052D01*
X28536Y33798D01*
X28790D01*
X29044Y33544D01*
X30044Y32844D02*
X30298Y33098D01*
X30552D01*
X30298Y33352D01*
X30552Y33606D01*
X30298D01*
X30044Y33860D01*
X29790Y33606D01*
X29536D01*
X29790Y33352D01*
X29536Y33098D01*
X29790D01*
X30044Y32844D01*
Y31444D02*
X30298Y31698D01*
X30552D01*
X30298Y31952D01*
X30552Y32206D01*
X30298D01*
X30044Y32460D01*
X29790Y32206D01*
X29536D01*
X29790Y31952D01*
X29536Y31698D01*
X29790D01*
X30044Y31444D01*
Y37544D02*
X30298Y37798D01*
X30552D01*
X30298Y38052D01*
X30552Y38306D01*
X30298D01*
X30044Y38560D01*
X29790Y38306D01*
X29536D01*
X29790Y38052D01*
X29536Y37798D01*
X29790D01*
X30044Y37544D01*
Y38944D02*
X30298Y39198D01*
X30552D01*
X30298Y39452D01*
X30552Y39706D01*
X30298D01*
X30044Y39960D01*
X29790Y39706D01*
X29536D01*
X29790Y39452D01*
X29536Y39198D01*
X29790D01*
X30044Y38944D01*
X29044Y39644D02*
X29298Y39898D01*
X29552D01*
X29298Y40152D01*
X29552Y40406D01*
X29298D01*
X29044Y40660D01*
X28790Y40406D01*
X28536D01*
X28790Y40152D01*
X28536Y39898D01*
X28790D01*
X29044Y39644D01*
X28044Y38944D02*
X28298Y39198D01*
X28552D01*
X28298Y39452D01*
X28552Y39706D01*
X28298D01*
X28044Y39960D01*
X27790Y39706D01*
X27536D01*
X27790Y39452D01*
X27536Y39198D01*
X27790D01*
X28044Y38944D01*
Y37544D02*
X28298Y37798D01*
X28552D01*
X28298Y38052D01*
X28552Y38306D01*
X28298D01*
X28044Y38560D01*
X27790Y38306D01*
X27536D01*
X27790Y38052D01*
X27536Y37798D01*
X27790D01*
X28044Y37544D01*
X29044Y36844D02*
X29298Y37098D01*
X29552D01*
X29298Y37352D01*
X29552Y37606D01*
X29298D01*
X29044Y37860D01*
X28790Y37606D01*
X28536D01*
X28790Y37352D01*
X28536Y37098D01*
X28790D01*
X29044Y36844D01*
Y38244D02*
X29298Y38498D01*
X29552D01*
X29298Y38752D01*
X29552Y39006D01*
X29298D01*
X29044Y39260D01*
X28790Y39006D01*
X28536D01*
X28790Y38752D01*
X28536Y38498D01*
X28790D01*
X29044Y38244D01*
X41044Y37544D02*
X41298Y37798D01*
X41552D01*
X41298Y38052D01*
X41552Y38306D01*
X41298D01*
X41044Y38560D01*
X40790Y38306D01*
X40536D01*
X40790Y38052D01*
X40536Y37798D01*
X40790D01*
X41044Y37544D01*
Y38944D02*
X41298Y39198D01*
X41552D01*
X41298Y39452D01*
X41552Y39706D01*
X41298D01*
X41044Y39960D01*
X40790Y39706D01*
X40536D01*
X40790Y39452D01*
X40536Y39198D01*
X40790D01*
X41044Y38944D01*
X40044Y39644D02*
X40298Y39898D01*
X40552D01*
X40298Y40152D01*
X40552Y40406D01*
X40298D01*
X40044Y40660D01*
X39790Y40406D01*
X39536D01*
X39790Y40152D01*
X39536Y39898D01*
X39790D01*
X40044Y39644D01*
X39044Y38944D02*
X39298Y39198D01*
X39552D01*
X39298Y39452D01*
X39552Y39706D01*
X39298D01*
X39044Y39960D01*
X38790Y39706D01*
X38536D01*
X38790Y39452D01*
X38536Y39198D01*
X38790D01*
X39044Y38944D01*
Y37544D02*
X39298Y37798D01*
X39552D01*
X39298Y38052D01*
X39552Y38306D01*
X39298D01*
X39044Y38560D01*
X38790Y38306D01*
X38536D01*
X38790Y38052D01*
X38536Y37798D01*
X38790D01*
X39044Y37544D01*
X40044Y36844D02*
X40298Y37098D01*
X40552D01*
X40298Y37352D01*
X40552Y37606D01*
X40298D01*
X40044Y37860D01*
X39790Y37606D01*
X39536D01*
X39790Y37352D01*
X39536Y37098D01*
X39790D01*
X40044Y36844D01*
Y38244D02*
X40298Y38498D01*
X40552D01*
X40298Y38752D01*
X40552Y39006D01*
X40298D01*
X40044Y39260D01*
X39790Y39006D01*
X39536D01*
X39790Y38752D01*
X39536Y38498D01*
X39790D01*
X40044Y38244D01*
X41044Y31444D02*
X41298Y31698D01*
X41552D01*
X41298Y31952D01*
X41552Y32206D01*
X41298D01*
X41044Y32460D01*
X40790Y32206D01*
X40536D01*
X40790Y31952D01*
X40536Y31698D01*
X40790D01*
X41044Y31444D01*
Y32844D02*
X41298Y33098D01*
X41552D01*
X41298Y33352D01*
X41552Y33606D01*
X41298D01*
X41044Y33860D01*
X40790Y33606D01*
X40536D01*
X40790Y33352D01*
X40536Y33098D01*
X40790D01*
X41044Y32844D01*
X40044Y33544D02*
X40298Y33798D01*
X40552D01*
X40298Y34052D01*
X40552Y34306D01*
X40298D01*
X40044Y34560D01*
X39790Y34306D01*
X39536D01*
X39790Y34052D01*
X39536Y33798D01*
X39790D01*
X40044Y33544D01*
X39044Y32844D02*
X39298Y33098D01*
X39552D01*
X39298Y33352D01*
X39552Y33606D01*
X39298D01*
X39044Y33860D01*
X38790Y33606D01*
X38536D01*
X38790Y33352D01*
X38536Y33098D01*
X38790D01*
X39044Y32844D01*
Y31444D02*
X39298Y31698D01*
X39552D01*
X39298Y31952D01*
X39552Y32206D01*
X39298D01*
X39044Y32460D01*
X38790Y32206D01*
X38536D01*
X38790Y31952D01*
X38536Y31698D01*
X38790D01*
X39044Y31444D01*
X40044Y30744D02*
X40298Y30998D01*
X40552D01*
X40298Y31252D01*
X40552Y31506D01*
X40298D01*
X40044Y31760D01*
X39790Y31506D01*
X39536D01*
X39790Y31252D01*
X39536Y30998D01*
X39790D01*
X40044Y30744D01*
Y32144D02*
X40298Y32398D01*
X40552D01*
X40298Y32652D01*
X40552Y32906D01*
X40298D01*
X40044Y33160D01*
X39790Y32906D01*
X39536D01*
X39790Y32652D01*
X39536Y32398D01*
X39790D01*
X40044Y32144D01*
D25*
X35052Y37152D02*
G03*
X35052Y37152I-508J0D01*
G01*
M02*
