M48
;Layer_Color=6321
;FILE_FORMAT=4:3
METRIC,LZ
;TYPE=PLATED
T1F00S00C0.500
T2F00S00C0.900
T3F00S00C1.600
T4F00S00C1.800
%
T01
X0028044Y0031952
Y0033352
X0029044Y0034052
Y0032652
Y0031252
X0030044Y0031952
Y0033352
Y0038052
Y0039452
X0029044Y0038752
Y0037352
X0028044Y0038052
Y0039452
X0039044
Y0038052
Y0033352
Y0031952
X0040044Y0031252
Y0032652
Y0034052
X0041044Y0033352
Y0031952
Y0038052
Y0039452
X0040044Y0038752
Y0037352
Y0040152
X0029044
T02
X0036Y016855
Y017325
Y017795
T03
X0034544Y0032652
T04
X0034544Y0037152
M30
