G04 Layer_Color=128*
%FSLAX43Y43*%
%MOMM*%
G71*
G01*
G75*
%ADD24C,0.127*%
D24*
X35550Y177950D02*
X36450D01*
X36000Y177500D02*
Y178400D01*
X35550Y173250D02*
X36450D01*
X36000Y172800D02*
Y173700D01*
X35550Y168550D02*
X36450D01*
X36000Y168100D02*
Y169000D01*
X33644Y37152D02*
X35444D01*
X34544Y36252D02*
Y38052D01*
X33744Y32652D02*
X35344D01*
X34544Y31852D02*
Y33452D01*
X28794Y32652D02*
X29294D01*
X29044Y32402D02*
Y32902D01*
X28794Y31252D02*
X29294D01*
X29044Y31002D02*
Y31502D01*
X27794Y31952D02*
X28294D01*
X28044Y31702D02*
Y32202D01*
X27794Y33352D02*
X28294D01*
X28044Y33102D02*
Y33602D01*
X28794Y34052D02*
X29294D01*
X29044Y33802D02*
Y34302D01*
X29794Y33352D02*
X30294D01*
X30044Y33102D02*
Y33602D01*
X29794Y31952D02*
X30294D01*
X30044Y31702D02*
Y32202D01*
X29794Y38052D02*
X30294D01*
X30044Y37802D02*
Y38302D01*
X29794Y39452D02*
X30294D01*
X30044Y39202D02*
Y39702D01*
X28794Y40152D02*
X29294D01*
X29044Y39902D02*
Y40402D01*
X27794Y39452D02*
X28294D01*
X28044Y39202D02*
Y39702D01*
X27794Y38052D02*
X28294D01*
X28044Y37802D02*
Y38302D01*
X28794Y37352D02*
X29294D01*
X29044Y37102D02*
Y37602D01*
X28794Y38752D02*
X29294D01*
X29044Y38502D02*
Y39002D01*
X40794Y38052D02*
X41294D01*
X41044Y37802D02*
Y38302D01*
X40794Y39452D02*
X41294D01*
X41044Y39202D02*
Y39702D01*
X39794Y40152D02*
X40294D01*
X40044Y39902D02*
Y40402D01*
X38794Y39452D02*
X39294D01*
X39044Y39202D02*
Y39702D01*
X38794Y38052D02*
X39294D01*
X39044Y37802D02*
Y38302D01*
X39794Y37352D02*
X40294D01*
X40044Y37102D02*
Y37602D01*
X39794Y38752D02*
X40294D01*
X40044Y38502D02*
Y39002D01*
X40794Y31952D02*
X41294D01*
X41044Y31702D02*
Y32202D01*
X40794Y33352D02*
X41294D01*
X41044Y33102D02*
Y33602D01*
X39794Y34052D02*
X40294D01*
X40044Y33802D02*
Y34302D01*
X38794Y33352D02*
X39294D01*
X39044Y33102D02*
Y33602D01*
X38794Y31952D02*
X39294D01*
X39044Y31702D02*
Y32202D01*
X39794Y31252D02*
X40294D01*
X40044Y31002D02*
Y31502D01*
X39794Y32652D02*
X40294D01*
X40044Y32402D02*
Y32902D01*
M02*
