G04 Layer_Physical_Order=1*
G04 Layer_Color=25308*
%FSLAX43Y43*%
%MOMM*%
G71*
G01*
G75*
%ADD10C,2.000*%
%ADD11R,3.500X4.500*%
%ADD12C,1.000*%
%ADD13C,2.286*%
%ADD14C,1.000*%
D10*
X126750Y174500D02*
D03*
X158750D02*
D03*
X161250D02*
D03*
X190750D02*
D03*
X193250D02*
D03*
X190750Y142500D02*
D03*
X193250D02*
D03*
X190750Y110500D02*
D03*
X193250D02*
D03*
X190750Y78500D02*
D03*
X193250D02*
D03*
X190750Y46500D02*
D03*
X193250D02*
D03*
X158750D02*
D03*
X161250D02*
D03*
X158750Y78500D02*
D03*
X161250D02*
D03*
X158750Y110500D02*
D03*
X161250D02*
D03*
X129250Y174500D02*
D03*
Y142500D02*
D03*
X126750D02*
D03*
Y110500D02*
D03*
X129250D02*
D03*
X126750Y78500D02*
D03*
X129250D02*
D03*
X126750Y46500D02*
D03*
X129250D02*
D03*
X94750D02*
D03*
X97250D02*
D03*
X94750Y78500D02*
D03*
X97250D02*
D03*
Y110500D02*
D03*
X94750D02*
D03*
X97250Y142500D02*
D03*
X94750D02*
D03*
X97250Y174500D02*
D03*
X94750D02*
D03*
X65250D02*
D03*
X62750D02*
D03*
X65250Y142500D02*
D03*
X62750D02*
D03*
X65250Y110500D02*
D03*
X62750D02*
D03*
X161250Y142500D02*
D03*
X158750D02*
D03*
X62750Y46500D02*
D03*
X65250D02*
D03*
Y78500D02*
D03*
X62750D02*
D03*
D11*
X40044Y38752D02*
D03*
Y32652D02*
D03*
X29044Y38752D02*
D03*
Y32652D02*
D03*
D12*
X41500Y178750D02*
Y183000D01*
X36000Y173250D02*
X41500Y178750D01*
X36000Y62288D02*
Y168550D01*
X29044Y55332D02*
X36000Y62288D01*
X62750Y142500D02*
Y174500D01*
Y110500D02*
Y142500D01*
Y78500D02*
Y110500D01*
Y46500D02*
Y78500D01*
X94750D02*
Y110500D01*
Y46500D02*
Y78500D01*
X126750Y46500D02*
Y78500D01*
Y110500D01*
Y142500D01*
Y174500D01*
X158750Y142500D02*
Y174500D01*
Y110500D02*
Y142500D01*
Y78500D02*
Y110500D01*
Y46500D02*
Y78500D01*
X190750Y46500D02*
Y78500D01*
Y110500D01*
Y142500D01*
Y174500D01*
X193250Y142500D02*
Y174500D01*
Y110500D02*
Y142500D01*
Y78500D02*
Y110500D01*
Y46500D02*
Y78500D01*
X94750Y142500D02*
Y174500D01*
Y110500D02*
Y142500D01*
X161250D02*
Y174500D01*
Y110500D02*
Y142500D01*
Y78500D02*
Y110500D01*
Y46500D02*
Y78500D01*
X129250Y46500D02*
Y78500D01*
Y110500D01*
Y142500D01*
Y174500D01*
X97250Y142500D02*
Y174500D01*
Y110500D02*
Y142500D01*
Y78500D02*
Y110500D01*
Y46500D02*
Y78500D01*
X65250Y46500D02*
Y78500D01*
Y110500D01*
Y142500D01*
Y174500D01*
X55002Y38752D02*
X62750Y46500D01*
X40044Y32652D02*
Y34052D01*
Y37352D01*
Y38752D01*
X183002D02*
X190750Y46500D01*
X40044Y38752D02*
X55002D01*
X151002D02*
X158750Y46500D01*
X151002Y38752D02*
X183002D01*
X119002D02*
X126750Y46500D01*
X119002Y38752D02*
X151002D01*
X87002D02*
X94750Y46500D01*
X55002Y38752D02*
X87002D01*
X119002D01*
X29044Y32652D02*
Y34052D01*
Y37352D01*
Y38752D01*
Y40152D01*
Y55332D01*
X193250Y174500D02*
X201750Y183000D01*
X161250Y174500D02*
X169750Y183000D01*
X201750D01*
X129250Y174500D02*
X137750Y183000D01*
X169750D01*
X97250Y174500D02*
X105750Y183000D01*
X137750D01*
X65250Y174500D02*
X73750Y183000D01*
X41500D02*
X73750D01*
X105750D01*
D13*
X36000Y177950D02*
D03*
Y173250D02*
D03*
Y168550D02*
D03*
D14*
X29044Y32652D02*
D03*
Y31252D02*
D03*
X28044Y31952D02*
D03*
Y33352D02*
D03*
X29044Y34052D02*
D03*
X30044Y33352D02*
D03*
Y31952D02*
D03*
Y38052D02*
D03*
Y39452D02*
D03*
X29044Y40152D02*
D03*
X28044Y39452D02*
D03*
Y38052D02*
D03*
X29044Y37352D02*
D03*
Y38752D02*
D03*
X41044Y38052D02*
D03*
Y39452D02*
D03*
X40044Y40152D02*
D03*
X39044Y39452D02*
D03*
Y38052D02*
D03*
X40044Y37352D02*
D03*
Y38752D02*
D03*
X41044Y31952D02*
D03*
Y33352D02*
D03*
X40044Y34052D02*
D03*
X39044Y33352D02*
D03*
Y31952D02*
D03*
X40044Y31252D02*
D03*
Y32652D02*
D03*
M02*
