G04 Filename: C:\job\Work\02390I\layer_3 *
G04 Creator: GC-CAM (TM) 4.1.4  Tue Mar 29 08:32:59 2016 *
G04 This file contains layer(s): *
G04 Layer 4: N *
%FSLAX35Y35*%
G04 Units: mm   *
%MOMM*%
G71*
%SFA1.00000B1.00000*%
%OFA0.00000B0.00000*%
G75*
%AD*%
G04 D39 (position 28 of UNTITLED):0.010000 Ext. Poly *
%ADD39C,0.010000*%
G04 D40 (position 29 of UNTITLED):1.016000 Round     *
%ADD40C,1.016000*%
G04 D41 (position 30 of UNTITLED):1.999996 Round     *
%ADD41C,1.999996*%
G04 D42 (position 31 of UNTITLED):2.199894 Round     *
%ADD42C,2.199894*%
G04 D44 (position 33 of UNTITLED):1.299972 Round     *
%ADD44C,1.299972*%
G04 D908 (position 62 of UNTITLED):0.149987 Draw      *
%ADD908C,0.149987*%
%IPPOS*%
G04 Layer 4: N *
%LN(04)N*%
%LPD*%
X0Y0D02*
D40*
X-13499990Y-10000000D02*
Y-8500003D01*
X-9999997*
Y-10000000D02*
Y-8500003D01*
X-13499990Y-10000000D02*
X-9999997D01*
D39*
X-13095034Y-9893070D02*
G36*
X-13084384Y-9903720D01*
G02X-13142510Y-9925006I-58125J68718*
X-13142645I0J90048*
G01X-13322361*
G02X-13322495I-134J90048*
X-13380621Y-9903720I-1J90004*
G01X-13369971Y-9893070*
G03X-13322507Y-9910008I47476J58068*
G01X-13142498*
G03X-13095034Y-9893070I-12J75006*
G37*
G01X-13084431Y-9787539D02*
G36*
X-13073780Y-9776889D01*
G02Y-9893114I-68730J-58113*
G01X-13084431Y-9882464*
G03Y-9787539I-58080J47462*
G37*
G01X-13380574Y-9882464D02*
G36*
X-13391225Y-9893114D01*
G02Y-9776889I68730J58112*
G01X-13380574Y-9787539*
G03Y-9882464I58080J-47463*
G37*
G01X-13095034Y-9776933D02*
G36*
G03X-13142498Y-9759995I-47477J-58069D01*
G01X-13322507*
G03X-13369971Y-9776933I13J-75007*
G01X-13380621Y-9766283*
G02X-13322495Y-9744997I58126J-68719*
X-13322361I0J-90048*
G01X-13142645*
G02X-13142510I135J-90048*
X-13084384Y-9766283I0J-90005*
G01X-13095034Y-9776933*
G37*
X-13322495Y-8755006D02*
G36*
G02X-13380621Y-8733720I0J90005D01*
G01X-13369971Y-8723070*
G03X-13322507Y-8740008I47477J58069*
G01X-13142498*
G03X-13095034Y-8723070I-13J75007*
G01X-13084384Y-8733720*
G02X-13142510Y-8755006I-58126J68719*
X-13142645I0J90048*
G01X-13322361*
G02X-13322495I-134J90048*
G37*
G01X-13391225Y-8606889D02*
G36*
X-13380574Y-8617539D01*
G03Y-8712464I58080J-47463*
G01X-13391225Y-8723114*
G02Y-8606889I68731J58112*
G37*
G01X-13073780Y-8723114D02*
G36*
X-13084431Y-8712464D01*
G03Y-8617539I-58080J47462*
G01X-13073780Y-8606889*
G02Y-8723114I-68730J-58113*
G37*
G01X-13322361Y-8574997D02*
G36*
X-13142645D01*
G02X-13142510Y-8574996I735J-90046*
X-13084384Y-8596283I-1J-90005*
G01X-13095034Y-8606933*
G03X-13142498Y-8589995I-47476J-58068*
G01X-13322507*
G03X-13369971Y-8606933I12J-75006*
G01X-13380621Y-8596283*
G02X-13322495Y-8574996I58127J-68718*
X-13322361Y-8574997I-605J-90047*
G37*
D908*
G01X-10067703Y-8596501D02*
G03X-10132291Y-8596502I-32294J-53514D01*
G01X-10153511Y-8617722D02*
G03Y-8682309I53514J-32293D01*
G01X-10132290Y-8703529D02*
G03X-10067703I32293J53514D01*
G01X-10046483Y-8682309D02*
G03Y-8617722I-53514J32294D01*
G01X-10067703Y-9796474D02*
G03X-10132291I-32294J-53514D01*
G01X-10153511Y-9817694D02*
G03Y-9882281I53514J-32294D01*
G01X-10132290Y-9903502D02*
G03X-10067703I32293J53514D01*
G01X-10046483Y-9882281D02*
G03Y-9817694I-53514J32293D01*
G01X-10217690Y-8596501D02*
G03X-10282278Y-8596502I-32294J-53514D01*
G01X-10303498Y-8617722D02*
G03Y-8682309I53514J-32293D01*
G01X-10282277Y-8703529D02*
G03X-10217690I32293J53514D01*
G01X-10196470Y-8682309D02*
G03Y-8617722I-53514J32294D01*
G01X-10217690Y-9796474D02*
G03X-10282278I-32294J-53514D01*
G01X-10303498Y-9817694D02*
G03Y-9882281I53514J-32294D01*
G01X-10282277Y-9903502D02*
G03X-10217690I32293J53514D01*
G01X-10196470Y-9882281D02*
G03Y-9817694I-53514J32293D01*
G01X-10367703Y-8596501D02*
G03X-10432290Y-8596502I-32293J-53514D01*
G01X-10453510Y-8617722D02*
G03Y-8682309I53514J-32293D01*
G01X-10432290Y-8703529D02*
G03X-10367703I32294J53514D01*
G01X-10346482Y-8682309D02*
G03Y-8617722I-53514J32294D01*
G01X-10367703Y-9796474D02*
G03X-10432290I-32293J-53514D01*
G01X-10453510Y-9817694D02*
G03Y-9882281I53514J-32294D01*
G01X-10432290Y-9903502D02*
G03X-10367703I32294J53514D01*
G01X-10346482Y-9882281D02*
G03Y-9817694I-53514J32293D01*
G01X-10517690Y-8596501D02*
G03X-10582277Y-8596502I-32293J-53514D01*
G01X-10603497Y-8617722D02*
G03Y-8682309I53514J-32293D01*
G01X-10582277Y-8703529D02*
G03X-10517690I32294J53514D01*
G01X-10496469Y-8682309D02*
G03Y-8617722I-53514J32294D01*
G01X-10517690Y-9796474D02*
G03X-10582277I-32293J-53514D01*
G01X-10603497Y-9817694D02*
G03Y-9882281I53514J-32294D01*
G01X-10582277Y-9903502D02*
G03X-10517690I32294J53514D01*
G01X-10496469Y-9882281D02*
G03Y-9817694I-53514J32293D01*
G01X-10667702Y-8596501D02*
G03X-10732289Y-8596502I-32294J-53514D01*
G01X-10753510Y-8617722D02*
G03Y-8682309I53514J-32293D01*
G01X-10732289Y-8703529D02*
G03X-10667702I32293J53514D01*
G01X-10646482Y-8682309D02*
G03Y-8617722I-53514J32294D01*
G01X-10592696Y-8746488D02*
G03X-10657283Y-8746489I-32293J-53514D01*
G01X-10678503Y-8767709D02*
G03Y-8832296I53514J-32293D01*
G01X-10657283Y-8853516D02*
G03X-10592696I32294J53514D01*
G01X-10571475Y-8832296D02*
G03X-10571476Y-8767709I-53514J32294D01*
G01X-10667702Y-8896475D02*
G03X-10732289Y-8896476I-32294J-53514D01*
G01X-10753510Y-8917696D02*
G03Y-8982283I53514J-32293D01*
G01X-10732289Y-9003503D02*
G03X-10667702I32293J53514D01*
G01X-10646482Y-8982283D02*
G03Y-8917696I-53514J32294D01*
G01X-10592696Y-9346487D02*
G03X-10657283I-32293J-53514D01*
G01X-10678503Y-9367708D02*
G03Y-9432295I53514J-32293D01*
G01X-10657283Y-9453515D02*
G03X-10592696I32294J53514D01*
G01X-10571475Y-9432295D02*
G03X-10571476Y-9367708I-53514J32294D01*
G01X-10667702Y-9496474D02*
G03X-10732289I-32294J-53514D01*
G01X-10753510Y-9517695D02*
G03Y-9582282I53514J-32293D01*
G01X-10732289Y-9603502D02*
G03X-10667702I32293J53514D01*
G01X-10646482Y-9582282D02*
G03Y-9517695I-53514J32294D01*
G01X-10592696Y-9646487D02*
G03X-10657283I-32293J-53514D01*
G01X-10678503Y-9667707D02*
G03Y-9732294I53514J-32294D01*
G01X-10657283Y-9753515D02*
G03X-10592696I32294J53514D01*
G01X-10571475Y-9732294D02*
G03X-10571476Y-9667707I-53514J32293D01*
G01X-10667702Y-9796474D02*
G03X-10732289I-32294J-53514D01*
G01X-10753510Y-9817694D02*
G03Y-9882281I53514J-32294D01*
G01X-10732289Y-9903502D02*
G03X-10667702I32293J53514D01*
G01X-10646482Y-9882281D02*
G03Y-9817694I-53514J32293D01*
G01X-10817689Y-8596501D02*
G03X-10882276Y-8596502I-32294J-53514D01*
G01X-10903497Y-8617722D02*
G03Y-8682309I53514J-32293D01*
G01X-10882276Y-8703529D02*
G03X-10817689I32293J53514D01*
G01X-10796469Y-8682309D02*
G03Y-8617722I-53514J32294D01*
G01X-10742708Y-8746488D02*
G03X-10807296Y-8746489I-32294J-53514D01*
G01X-10828516Y-8767709D02*
G03Y-8832296I53514J-32293D01*
G01X-10807295Y-8853516D02*
G03X-10742708I32293J53514D01*
G01X-10721488Y-8832296D02*
G03Y-8767709I-53514J32294D01*
G01X-10817689Y-8896475D02*
G03X-10882276Y-8896476I-32294J-53514D01*
G01X-10903497Y-8917696D02*
G03Y-8982283I53514J-32293D01*
G01X-10882276Y-9003503D02*
G03X-10817689I32293J53514D01*
G01X-10796469Y-8982283D02*
G03Y-8917696I-53514J32294D01*
G01X-10742708Y-9346487D02*
G03X-10807296I-32294J-53514D01*
G01X-10828516Y-9367708D02*
G03Y-9432295I53514J-32293D01*
G01X-10807295Y-9453515D02*
G03X-10742708I32293J53514D01*
G01X-10721488Y-9432295D02*
G03Y-9367708I-53514J32294D01*
G01X-10817689Y-9496474D02*
G03X-10882276I-32294J-53514D01*
G01X-10903497Y-9517695D02*
G03Y-9582282I53514J-32293D01*
G01X-10882276Y-9603502D02*
G03X-10817689I32293J53514D01*
G01X-10796469Y-9582282D02*
G03Y-9517695I-53514J32294D01*
G01X-10742708Y-9646487D02*
G03X-10807296I-32294J-53514D01*
G01X-10828516Y-9667707D02*
G03Y-9732294I53514J-32294D01*
G01X-10807295Y-9753515D02*
G03X-10742708I32293J53514D01*
G01X-10721488Y-9732294D02*
G03Y-9667707I-53514J32293D01*
G01X-10817689Y-9796474D02*
G03X-10882276I-32294J-53514D01*
G01X-10903497Y-9817694D02*
G03Y-9882281I53514J-32294D01*
G01X-10882276Y-9903502D02*
G03X-10817689I32293J53514D01*
G01X-10796469Y-9882281D02*
G03Y-9817694I-53514J32293D01*
G01X-10892695Y-8746488D02*
G03X-10957283Y-8746489I-32294J-53514D01*
G01X-10978503Y-8767709D02*
G03Y-8832296I53514J-32293D01*
G01X-10957282Y-8853516D02*
G03X-10892695I32293J53514D01*
G01X-10871475Y-8832296D02*
G03Y-8767709I-53514J32294D01*
G01X-10892695Y-9346487D02*
G03X-10957283I-32294J-53514D01*
G01X-10978503Y-9367708D02*
G03Y-9432295I53514J-32293D01*
G01X-10957282Y-9453515D02*
G03X-10892695I32293J53514D01*
G01X-10871475Y-9432295D02*
G03Y-9367708I-53514J32294D01*
G01X-10892695Y-9646487D02*
G03X-10957283I-32294J-53514D01*
G01X-10978503Y-9667707D02*
G03Y-9732294I53514J-32294D01*
G01X-10957282Y-9753515D02*
G03X-10892695I32293J53514D01*
G01X-10871475Y-9732294D02*
G03Y-9667707I-53514J32293D01*
G01X-12542705Y-9646487D02*
G03X-12607292I-32293J-53514D01*
G01X-12628512Y-9667707D02*
G03Y-9732294I53514J-32294D01*
G01X-12607292Y-9753515D02*
G03X-12542704I32294J53514D01*
G01X-12521484Y-9732294D02*
G03Y-9667707I-53514J32293D01*
G01X-13367697Y-8896475D02*
G03X-13432284Y-8896476I-32293J-53514D01*
G01X-13453504Y-8917696D02*
G03Y-8982283I53514J-32293D01*
G01X-13432284Y-9003503D02*
G03X-13367696I32294J53514D01*
G01X-13346476Y-8982283D02*
G03Y-8917696I-53514J32294D01*
G01X-13292690Y-9046488D02*
G03X-13357278I-32294J-53514D01*
G01X-13378498Y-9067708D02*
G03Y-9132296I53514J-32294D01*
G01X-13357278Y-9153516D02*
G03X-13292690I32294J53514D01*
G01X-13271470Y-9132295D02*
G03Y-9067708I-53514J32293D01*
G01X-13367697Y-9196475D02*
G03X-13432284I-32293J-53514D01*
G01X-13453504Y-9217695D02*
G03Y-9282283I53514J-32294D01*
G01X-13432284Y-9303503D02*
G03X-13367696I32294J53514D01*
G01X-13346476Y-9282282D02*
G03Y-9217695I-53514J32293D01*
G01X-13292690Y-9346487D02*
G03X-13357278I-32294J-53514D01*
G01X-13378498Y-9367708D02*
G03Y-9432295I53514J-32293D01*
G01X-13357278Y-9453515D02*
G03X-13292690I32294J53514D01*
G01X-13271470Y-9432295D02*
G03Y-9367708I-53514J32294D01*
G01X-13367697Y-9496474D02*
G03X-13432284I-32293J-53514D01*
G01X-13453504Y-9517695D02*
G03Y-9582282I53514J-32293D01*
G01X-13432284Y-9603502D02*
G03X-13367696I32294J53514D01*
G01X-13346476Y-9582282D02*
G03Y-9517695I-53514J32294D01*
G01X-12017712Y-8683979D02*
G03X-12082299I-32294J-53514D01*
G01X-12103520Y-8705199D02*
G03X-12103519Y-8769787I53514J-32294D01*
G01X-12082299Y-8791007D02*
G03X-12017712I32293J53514D01*
G01X-11996492Y-8769787D02*
G03Y-8705199I-53514J32294D01*
G01X-11700695Y-8962490D02*
G03X-11765282I-32293J-53514D01*
G01X-11786502Y-8983710D02*
G03Y-9048298I53514J-32294D01*
G01X-11765282Y-9069518D02*
G03X-11700694I32294J53514D01*
G01X-11679474Y-9048298D02*
G03Y-8983710I-53514J32294D01*
G01X-12195207Y-9298989D02*
G03X-12259794I-32294J-53514D01*
G01X-12281015Y-9320210D02*
G03Y-9384797I53514J-32293D01*
G01X-12259794Y-9406017D02*
G03X-12195207I32293J53514D01*
G01X-12173987Y-9384797D02*
G03Y-9320210I-53514J32294D01*
G01X-12195207Y-9098990D02*
G03X-12259794I-32294J-53514D01*
G01X-12281015Y-9120210D02*
G03Y-9184797I53514J-32294D01*
G01X-12259794Y-9206018D02*
G03X-12195207I32293J53514D01*
G01X-12173987Y-9184797D02*
G03Y-9120210I-53514J32293D01*
G01X-12395207Y-9098990D02*
G03X-12459794I-32293J-53514D01*
G01X-12481014Y-9120210D02*
G03Y-9184797I53514J-32294D01*
G01X-12459794Y-9206018D02*
G03X-12395207I32294J53514D01*
G01X-12373986Y-9184797D02*
G03Y-9120210I-53514J32293D01*
G01X-11992693Y-9098990D02*
G03X-12057280I-32294J-53514D01*
G01X-12078501Y-9120210D02*
G03X-12078500Y-9184797I53514J-32294D01*
G01X-12057280Y-9206018D02*
G03X-11992693I32293J53514D01*
G01X-11971473Y-9184797D02*
G03Y-9120210I-53514J32293D01*
G01X-11992693Y-9298989D02*
G03X-12057280I-32294J-53514D01*
G01X-12078501Y-9320210D02*
G03X-12078500Y-9384797I53514J-32293D01*
G01X-12057280Y-9406017D02*
G03X-11992693I32293J53514D01*
G01X-11971473Y-9384797D02*
G03Y-9320210I-53514J32294D01*
G01X-11992693Y-9498989D02*
G03X-12057280I-32294J-53514D01*
G01X-12078501Y-9520209D02*
G03X-12078500Y-9584797I53514J-32294D01*
G01X-12057280Y-9606017D02*
G03X-11992693I32293J53514D01*
G01X-11971473Y-9584796D02*
G03Y-9520209I-53514J32293D01*
G01X-11412709Y-9158984D02*
G03X-11477297Y-9158985I-32294J-53514D01*
G01X-11498517Y-9180205D02*
G03Y-9244792I53514J-32293D01*
G01X-11302702Y-9158984D02*
G03X-11367289Y-9158985I-32294J-53514D01*
G01X-11281482Y-9244792D02*
G03Y-9180205I-53514J32294D01*
G01X-11498517Y-9290212D02*
G03Y-9354800I53514J-32294D01*
G01X-11477297Y-9376020D02*
G03X-11412709I32294J53514D01*
G01X-11367289D02*
G03X-11302702I32293J53514D01*
G01X-11281482Y-9354799D02*
G03Y-9290212I-53514J32293D01*
G01X-12632697Y-9768991D02*
G03X-12697284I-32293J-53514D01*
G01X-12718504Y-9790211D02*
G03Y-9854799I53514J-32294D01*
G01X-12611476Y-9854798D02*
G03Y-9790211I-53514J32293D01*
G01X-12718504Y-9865217D02*
G03Y-9929805I53514J-32294D01*
G01X-12697284Y-9951025D02*
G03X-12632697I32294J53514D01*
G01X-12611476Y-9929805D02*
G03Y-9865217I-53514J32294D01*
G01X-12957690Y-9866476D02*
G03X-13022277I-32293J-53514D01*
G01X-13043497Y-9887696D02*
G03Y-9952284I53514J-32294D01*
G01X-13022277Y-9973504D02*
G03X-12957690I32294J53514D01*
G01X-12936469Y-9952284D02*
G03Y-9887696I-53514J32294D01*
G01X-12230208Y-9866476D02*
G03X-12294796I-32294J-53514D01*
G01X-12316016Y-9887696D02*
G03Y-9952284I53514J-32294D01*
G01X-12294796Y-9973504D02*
G03X-12230208I32294J53514D01*
G01X-12208988Y-9952284D02*
G03Y-9887696I-53514J32294D01*
G01X-11317688Y-8621495D02*
G03X-11382275I-32294J-53514D01*
G01X-11403496Y-8642715D02*
G03X-11403495Y-8707303I53514J-32294D01*
G01X-11382275Y-8728523D02*
G03X-11317688I32293J53514D01*
G01X-11296468Y-8707303D02*
G03Y-8642715I-53514J32294D01*
G01X-11117688Y-9471481D02*
G03X-11182276I-32294J-53514D01*
G01X-11203496Y-9492701D02*
G03Y-9557288I53514J-32294D01*
G01X-11182276Y-9578509D02*
G03X-11117688I32294J53514D01*
G01X-11096468Y-9557288D02*
G03Y-9492701I-53514J32293D01*
G01X-11117688Y-8858985D02*
G03X-11182276I-32294J-53514D01*
G01X-11203496Y-8880205D02*
G03Y-8944793I53514J-32294D01*
G01X-11182276Y-8966013D02*
G03X-11117688I32294J53514D01*
G01X-11096468Y-8944793D02*
G03Y-8880205I-53514J32294D01*
G01X-12505189Y-8538996D02*
G03X-12569776I-32293J-53514D01*
G01X-12590996Y-8560216D02*
G03Y-8624804I53514J-32294D01*
G01X-12569776Y-8646024D02*
G03X-12505189I32294J53514D01*
G01X-12483968Y-8624803D02*
G03Y-8560216I-53514J32293D01*
G01X-13247707Y-9606482D02*
G03X-13312294I-32294J-53514D01*
G01X-13333515Y-9627702D02*
G03X-13333514Y-9692289I53514J-32294D01*
G01X-13312294Y-9713510D02*
G03X-13247707I32293J53514D01*
G01X-13226487Y-9692289D02*
G03Y-9627702I-53514J32293D01*
G01X-13247707Y-9186493D02*
G03X-13312294I-32294J-53514D01*
G01X-13333515Y-9207713D02*
G03X-13333514Y-9272300I53514J-32294D01*
G01X-13312294Y-9293521D02*
G03X-13247707I32293J53514D01*
G01X-13226487Y-9272300D02*
G03Y-9207713I-53514J32293D01*
G01X-13247707Y-8766478D02*
G03X-13312294I-32294J-53514D01*
G01X-13333515Y-8787699D02*
G03X-13333514Y-8852286I53514J-32293D01*
G01X-13312294Y-8873506D02*
G03X-13247707I32293J53514D01*
G01X-13226487Y-8852286D02*
G03Y-8787699I-53514J32294D01*
G01X-13107702Y-9606482D02*
G03X-13172289I-32294J-53514D01*
G01X-13193510Y-9627702D02*
G03Y-9692289I53514J-32294D01*
G01X-13172289Y-9713510D02*
G03X-13107702I32293J53514D01*
G01X-13086482Y-9692289D02*
G03Y-9627702I-53514J32293D01*
G01X-13107702Y-9326497D02*
G03X-13172289Y-9326498I-32294J-53514D01*
G01X-13193510Y-9347718D02*
G03Y-9412305I53514J-32293D01*
G01X-13172289Y-9433525D02*
G03X-13107702I32293J53514D01*
G01X-13086482Y-9412305D02*
G03Y-9347718I-53514J32294D01*
G01X-13107702Y-9186493D02*
G03X-13172289I-32294J-53514D01*
G01X-13193510Y-9207713D02*
G03Y-9272300I53514J-32294D01*
G01X-13172289Y-9293521D02*
G03X-13107702I32293J53514D01*
G01X-13086482Y-9272300D02*
G03Y-9207713I-53514J32293D01*
G01X-13107702Y-8766478D02*
G03X-13172289I-32294J-53514D01*
G01X-13193510Y-8787699D02*
G03Y-8852286I53514J-32293D01*
G01X-13172289Y-8873506D02*
G03X-13107702I32293J53514D01*
G01X-13086482Y-8852286D02*
G03Y-8787699I-53514J32294D01*
G01X-12967697Y-8626499D02*
G03X-13032285I-32294J-53514D01*
G01X-13053505Y-8647719D02*
G03Y-8712307I53514J-32294D01*
G01X-13032285Y-8733527D02*
G03X-12967697I32294J53514D01*
G01X-12946477Y-8712306D02*
G03Y-8647719I-53514J32293D01*
G01X-12687688Y-9326497D02*
G03X-12752275Y-9326498I-32293J-53514D01*
G01X-12773495Y-9347718D02*
G03Y-9412305I53514J-32293D01*
G01X-12752275Y-9433525D02*
G03X-12687688I32294J53514D01*
G01X-12666467Y-9412305D02*
G03Y-9347718I-53514J32294D01*
G01X-12267699Y-9746486D02*
G03X-12332286Y-9746487I-32293J-53514D01*
G01X-12353506Y-9767707D02*
G03Y-9832294I53514J-32293D01*
G01X-12332286Y-9853514D02*
G03X-12267699I32294J53514D01*
G01X-12246478Y-9832294D02*
G03Y-9767707I-53514J32294D01*
G01X-11007706Y-8766478D02*
G03X-11072294I-32294J-53514D01*
G01X-11093514Y-8787699D02*
G03Y-8852286I53514J-32293D01*
G01X-11072294Y-8873506D02*
G03X-11007706I32294J53514D01*
G01X-10986486Y-8852286D02*
G03Y-8787699I-53514J32294D01*
G01X-11007706Y-8626499D02*
G03X-11072294I-32294J-53514D01*
G01X-11093514Y-8647719D02*
G03Y-8712307I53514J-32294D01*
G01X-11072294Y-8733527D02*
G03X-11007706I32294J53514D01*
G01X-10986486Y-8712306D02*
G03Y-8647719I-53514J32293D01*
D41*
G01X-11576499Y-9747499D03*
X-11068499Y-9849099D03*
Y-9645899D03*
D42*
X-13232503Y-9024996D03*
Y-9475007D03*
D44*
X-12401999Y-8733988D03*
X-11937992Y-8819992D03*
X-11675000Y-9113007D03*
X-11598978Y-8967998D03*
X-11815995Y-8751996D03*
X-11864001Y-8676000D03*
X-11815995Y-8598987D03*
X-11646984Y-9615012D03*
X-11687827Y-9528093D03*
X-11785007Y-9317502D03*
X-11731998Y-9210009D03*
X-11756001Y-9565990D03*
X-11676981Y-9262994D03*
X-11672003Y-9438000D03*
X-11739999Y-9875007D03*
X-11817494Y-9854991D03*
X-11815995Y-9683999D03*
X-12804995Y-9005006D03*
X-12752493Y-9059997D03*
X-12699992Y-9114988D03*
X-12769994Y-9637491D03*
X-12802481Y-8589995D03*
X-12257498Y-8919992D03*
X-12972483Y-9349989D03*
Y-9149989D03*
X-12103981Y-9778004D03*
X-12173983Y-9816002D03*
X-11212491Y-8780013D03*
X-12412489Y-9819990D03*
X-11049982Y-8949989D03*
M02*
