G04 Filename: C:\job\Work\02390I\layer_2 *
G04 Creator: GC-CAM (TM) 4.1.4  Tue Mar 29 08:32:59 2016 *
G04 This file contains layer(s): *
G04 Layer 3: N *
%FSLAX35Y35*%
G04 Units: mm   *
%MOMM*%
G71*
%SFA1.00000B1.00000*%
%OFA0.00000B0.00000*%
G75*
%AD*%
G04 D39 (position 28 of UNTITLED):0.010000 Ext. Poly *
%ADD39C,0.010000*%
G04 D40 (position 29 of UNTITLED):1.016000 Round     *
%ADD40C,1.016000*%
G04 D41 (position 30 of UNTITLED):1.999996 Round     *
%ADD41C,1.999996*%
G04 D42 (position 31 of UNTITLED):2.199894 Round     *
%ADD42C,2.199894*%
G04 D43 (position 32 of UNTITLED):3.500120X1.700022 Oblong    *
%ADD43O,3.500120X1.700022*%
G04 D44 (position 33 of UNTITLED):1.299972 Round     *
%ADD44C,1.299972*%
G04 D908 (position 62 of UNTITLED):0.149987 Draw      *
%ADD908C,0.149987*%
%IPPOS*%
G04 Layer 3: N *
%LN(03)N*%
%LPD*%
X0Y0D02*
D39*
X-11334996Y-9322506D02*
G36*
X-11445003D01*
Y-9212498*
X-11334996*
Y-9322506*
G37*
D40*
X-13499990Y-10000000D02*
Y-8500003D01*
X-9999997*
Y-10000000D02*
Y-8500003D01*
X-13499990Y-10000000D02*
X-9999997D01*
D908*
X-12369705Y-8680474D02*
G03X-12434292I-32294J-53514D01*
G01X-12455513Y-8701694D02*
G03Y-8766282I53514J-32294D01*
G01X-12434292Y-8787502D02*
G03X-12369705I32293J53514D01*
G01X-12348485Y-8766281D02*
G03Y-8701694I-53514J32293D01*
G01X-11905698Y-8766478D02*
G03X-11970285I-32294J-53514D01*
G01X-11991506Y-8787699D02*
G03X-11991505Y-8852286I53514J-32293D01*
G01X-11970285Y-8873506D02*
G03X-11905698I32293J53514D01*
G01X-11884478Y-8852286D02*
G03Y-8787699I-53514J32294D01*
G01X-11614690Y-9561498D02*
G03X-11679277I-32294J-53514D01*
G01X-11700498Y-9582719D02*
G03Y-9647306I53514J-32293D01*
G01X-11679277Y-9668526D02*
G03X-11614690I32293J53514D01*
G01X-11593470Y-9647306D02*
G03Y-9582719I-53514J32294D01*
G01X-11783702Y-9630485D02*
G03X-11848289I-32293J-53514D01*
G01X-11869509Y-9651705D02*
G03Y-9716292I53514J-32294D01*
G01X-11848289Y-9737513D02*
G03X-11783702I32294J53514D01*
G01X-11762481Y-9716292D02*
G03Y-9651705I-53514J32293D01*
G01X-12737700Y-9583977D02*
G03X-12802288I-32294J-53514D01*
G01X-12823508Y-9605198D02*
G03Y-9669785I53514J-32293D01*
G01X-12802288Y-9691005D02*
G03X-12737700I32294J53514D01*
G01X-12716480Y-9669785D02*
G03Y-9605198I-53514J32294D01*
G01X-12770187Y-8536481D02*
G03X-12834774I-32294J-53514D01*
G01X-12855995Y-8557702D02*
G03X-12855994Y-8622289I53514J-32293D01*
G01X-12834774Y-8643509D02*
G03X-12770187I32293J53514D01*
G01X-12748967Y-8622289D02*
G03Y-8557702I-53514J32294D01*
G01X-11180198Y-8726499D02*
G03X-11244785I-32293J-53514D01*
G01X-11266005Y-8747719D02*
G03Y-8812306I53514J-32294D01*
G01X-11244785Y-8833527D02*
G03X-11180198I32294J53514D01*
G01X-11158977Y-8812306D02*
G03X-11158978Y-8747719I-53514J32293D01*
G01X-12380195Y-9766476D02*
G03X-12444783I-32294J-53514D01*
G01X-12466003Y-9787697D02*
G03Y-9852284I53514J-32293D01*
G01X-12444783Y-9873504D02*
G03X-12380195I32294J53514D01*
G01X-12358975Y-9852284D02*
G03Y-9787697I-53514J32294D01*
G01X-11017689Y-8896475D02*
G03X-11082276Y-8896476I-32293J-53514D01*
G01X-11103496Y-8917696D02*
G03Y-8982283I53514J-32293D01*
G01X-11082276Y-9003503D02*
G03X-11017689I32294J53514D01*
G01X-10996468Y-8982283D02*
G03Y-8917696I-53514J32294D01*
D41*
G01X-11576499Y-9747499D03*
X-11068499Y-9849099D03*
Y-9645899D03*
D42*
X-13232503Y-9024996D03*
Y-9475007D03*
D43*
Y-8665001D03*
Y-9835002D03*
D44*
X-10099997Y-8650015D03*
Y-9849988D03*
X-10249984Y-8650015D03*
Y-9849988D03*
X-10399996Y-8650015D03*
Y-9849988D03*
X-10549983Y-8650015D03*
Y-9849988D03*
X-10699996Y-8650015D03*
X-10624989Y-8800002D03*
X-10699996Y-8949989D03*
X-10624989Y-9400001D03*
X-10699996Y-9549988D03*
X-10624989Y-9700001D03*
X-10699996Y-9849988D03*
X-10849983Y-8650015D03*
X-10775002Y-8800002D03*
X-10849983Y-8949989D03*
X-10775002Y-9400001D03*
X-10849983Y-9549988D03*
X-10775002Y-9700001D03*
X-10849983Y-9849988D03*
X-10924989Y-8800002D03*
Y-9400001D03*
Y-9700001D03*
X-12574998D03*
X-13399990Y-8949989D03*
X-13324984Y-9100002D03*
X-13399990Y-9249989D03*
X-13324984Y-9400001D03*
X-13399990Y-9549988D03*
X-11675000Y-9113007D03*
X-11598978Y-8967998D03*
X-12050006Y-8737493D03*
X-11815995Y-8751996D03*
X-11864001Y-8676000D03*
X-11815995Y-8598987D03*
X-11687827Y-9528093D03*
X-11785007Y-9317502D03*
X-11731998Y-9210009D03*
X-11756001Y-9565990D03*
X-11676981Y-9262994D03*
X-11672003Y-9438000D03*
X-11732988Y-9016004D03*
X-11739999Y-9875007D03*
X-11817494Y-9854991D03*
X-12804995Y-9005006D03*
X-12752493Y-9059997D03*
X-12699992Y-9114988D03*
X-12257498Y-8919992D03*
X-12227501Y-9352503D03*
Y-9152504D03*
X-12427500D03*
X-12024987D03*
Y-9352503D03*
Y-9552503D03*
X-12972483Y-9349989D03*
Y-9149989D03*
X-12103981Y-9778004D03*
X-12173983Y-9816002D03*
X-11445003Y-9212498D03*
X-11334996D03*
X-11445003Y-9322506D03*
X-11334996D03*
X-12664990Y-9822505D03*
Y-9897511D03*
X-12989983Y-9919990D03*
X-12262502D03*
X-11349982Y-8675009D03*
X-11149982Y-9524995D03*
Y-8912499D03*
X-12537482Y-8592510D03*
X-13280001Y-9659996D03*
Y-9240007D03*
Y-8819992D03*
X-13139996Y-9659996D03*
Y-9380011D03*
Y-9240007D03*
Y-8819992D03*
X-12999991Y-8680013D03*
X-12719981Y-9380011D03*
X-12299992Y-9800000D03*
X-11040000Y-8819992D03*
Y-8680013D03*
M02*
