<?xml version="1.0" encoding="utf-8"?>
<!-- Generator: Adobe Illustrator 21.1.0, SVG Export Plug-In . SVG Version: 6.00 Build 0)  -->
<svg version="1.1" id="Layer_1" xmlns="http://www.w3.org/2000/svg" xmlns:xlink="http://www.w3.org/1999/xlink" x="0px" y="0px"
	 viewBox="0 0 76 108" style="enable-background:new 0 0 76 108;" xml:space="preserve">
<style type="text/css">
	.st0{fill:#4D4D4D;}
</style>
<g>
	<path class="st0" d="M38,8c9.9,0,18,8.1,18,18v35c0,9.9-8.1,18-18,18c-9.9,0-18-8.1-18-18V26C20,16.1,28.1,8,38,8 M38,0L38,0
		C23.7,0,12,11.7,12,26v35c0,14.3,11.7,26,26,26h0c14.3,0,26-11.7,26-26V26C64,11.7,52.3,0,38,0L38,0z"/>
</g>
<g>
	<path class="st0" d="M14.1,107.5c-7.5,0-13.6-6.1-13.6-13.6V57.1c0-7.5,6.1-13.6,13.6-13.6h47.8c7.5,0,13.6,6.1,13.6,13.6v36.8
		c0,7.5-6.1,13.6-13.6,13.6H14.1z"/>
	<path class="st0" d="M61.9,44C69.1,44,75,49.9,75,57.1v36.8c0,7.2-5.9,13.1-13.1,13.1H14.1C6.9,107,1,101.1,1,93.9V57.1
		C1,49.9,6.9,44,14.1,44H61.9 M61.9,43H14.1C6.4,43,0,49.4,0,57.1v36.8c0,7.8,6.4,14.1,14.1,14.1h47.8c7.8,0,14.1-6.4,14.1-14.1
		V57.1C76,49.4,69.6,43,61.9,43L61.9,43z"/>
</g>
</svg>
