<?xml version="1.0" encoding="utf-8"?>
<!-- Generator: Adobe Illustrator 16.0.4, SVG Export Plug-In . SVG Version: 6.00 Build 0)  -->
<!DOCTYPE svg PUBLIC "-//W3C//DTD SVG 1.1//EN" "http://www.w3.org/Graphics/SVG/1.1/DTD/svg11.dtd">
<svg version="1.1" id="Layer_1" xmlns="http://www.w3.org/2000/svg" xmlns:xlink="http://www.w3.org/1999/xlink" x="0px" y="0px"
	 width="618.429px" height="618.42px" viewBox="0 0 618.429 618.42" enable-background="new 0 0 618.429 618.42"
	 xml:space="preserve">
<path fill="#EDEDED" stroke="#1D1D1B" stroke-miterlimit="10" d="M349.854,615.773c29.633-3.891,57.95-11.971,84.319-23.649
	c108.521-48,184.252-156.608,184.252-282.919c0-170.77-138.438-309.208-309.209-309.208c-15.131,0-30,1.09-44.551,3.189
	c-28.67,4.13-56.062,12.2-81.619,23.649C75.164,75.093,0.004,183.374,0.004,309.203c0,170.78,138.441,309.222,309.211,309.222
	C322.994,618.423,336.555,617.523,349.854,615.773z M309.198,563.93C168.533,563.921,54.496,449.876,54.496,309.204
	c0-113.933,74.8-210.389,177.971-242.948c24.22-7.649,50.007-11.77,76.748-11.77c140.681,0,254.716,114.045,254.716,254.718
	c0,114.484-75.516,211.32-179.45,243.419c-23.79,7.348-49.065,11.308-75.267,11.308C309.206,563.93,309.206,563.93,309.198,563.93z"
	/>
<path fill="#575756" stroke="#1D1D1B" stroke-miterlimit="10" d="M269.125,166.17c-3.236,0-5.863-2.625-5.863-5.863l0.001-80.177
	c0-3.239,2.626-5.863,5.863-5.863h80.176c3.238,0,5.863,2.625,5.863,5.863v80.177c0,3.238-2.625,5.863-5.863,5.863H269.125z"/>
<path fill="#575756" stroke="#1D1D1B" stroke-miterlimit="10" d="M269.125,544.149c-3.237,0-5.863-2.628-5.863-5.863v-80.177
	c0-3.238,2.626-5.862,5.863-5.862h80.177c3.236,0,5.863,2.624,5.863,5.862v80.177c0,3.236-2.627,5.863-5.863,5.863H269.125z"/>
<path fill="#EDEDED" stroke="#1D1D1B" stroke-miterlimit="10" d="M463.832,330.09c-3.312,0-5.998-2.022-5.998-4.516V292.84
	c0-2.493,2.686-4.516,5.998-4.516h78.273c3.312,0,5.998,2.023,5.998,4.516v32.734c0,2.492-2.686,4.516-5.998,4.516H463.832z"/>
<path fill="#575756" stroke="#1D1D1B" stroke-miterlimit="10" d="M543.296,592.966c0,14.062-11.398,25.46-25.459,25.46H309.217
	v-0.01c62.82,0,121.271-18.73,170.05-50.92h38.57C531.896,567.497,543.296,578.896,543.296,592.966z"/>
<path fill="#575756" stroke="#1D1D1B" stroke-miterlimit="10" d="M75.133,25.439c0-14.061,11.399-25.46,25.46-25.46h208.62v0.01
	c-62.82,0-121.271,18.729-170.05,50.92h-38.57C86.532,50.909,75.133,39.508,75.133,25.439z"/>
</svg>
