G04 Filename: C:\job\Work\mask_1 *
G04 Creator: GC-CAM (TM) 4.1.4  Thu Jun 23 10:26:31 2016 *
G04 This file contains layer(s): *
G04 Layer 6: C:\JOB\WORK\SWARMBOTS_V1.3.GTS *
%FSLAX35Y35*%
G04 Units: mm   *
%MOMM*%
G71*
%SFA1.00000B1.00000*%
%OFA0.00000B0.00000*%
G75*
%AD*%
G04 D919 (position 14 of UNTITLED):1.050036X0.800100 Rectangle *
%ADD919R,1.050036X0.800100*%
G04 D43 (position 32 of UNTITLED):0.010000 Ext. Poly *
%ADD43C,0.010000*%
G04 D933 (position 45 of UNTITLED):1.750060X1.150112 Rectangle *
%ADD933R,1.750060X1.150112*%
G04 D58 (position 46 of UNTITLED):0.450088X0.649986 Oblong    *
%ADD58O,0.450088X0.649986*%
G04 D59 (position 47 of UNTITLED):0.450088X0.999998 Rectangle *
%ADD59R,0.450088X0.999998*%
G04 D60 (position 48 of UNTITLED):2.530094X1.800098 Rectangle *
%ADD60R,2.530094X1.800098*%
G04 D61 (position 49 of UNTITLED):0.750062X0.649986 Rectangle *
%ADD61R,0.750062X0.649986*%
G04 D62 (position 50 of UNTITLED):0.649986X0.750062 Rectangle *
%ADD62R,0.649986X0.750062*%
G04 D63 (position 51 of UNTITLED):0.500126X0.750062 Rectangle *
%ADD63R,0.500126X0.750062*%
G04 D64 (position 52 of UNTITLED):0.750062X0.500126 Rectangle *
%ADD64R,0.750062X0.500126*%
G04 D65 (position 53 of UNTITLED):2.750058 Square    *
%ADD65R,2.750058X2.750058*%
G04 D66 (position 54 of UNTITLED):0.800100X0.350012 Oblong    *
%ADD66O,0.800100X0.350012*%
G04 D67 (position 55 of UNTITLED):0.350012X0.800100 Oblong    *
%ADD67O,0.350012X0.800100*%
G04 D68 (position 56 of UNTITLED):1.150112X0.949960 Rectangle *
%ADD68R,1.150112X0.949960*%
G04 D69 (position 57 of UNTITLED):1.199896X0.949960 Rectangle *
%ADD69R,1.199896X0.949960*%
G04 D70 (position 58 of UNTITLED):1.199896X0.750062 Rectangle *
%ADD70R,1.199896X0.750062*%
G04 D71 (position 59 of UNTITLED):0.850138X1.050036 Rectangle *
%ADD71R,0.850138X1.050036*%
G04 D72 (position 60 of UNTITLED):1.050036X0.850138 Rectangle *
%ADD72R,1.050036X0.850138*%
G04 D73 (position 61 of UNTITLED):0.700024X0.400050 Rectangle *
%ADD73R,0.700024X0.400050*%
G04 D74 (position 62 of UNTITLED):1.150112X0.750062 Rectangle *
%ADD74R,1.150112X0.750062*%
G04 D76 (position 63 of UNTITLED):1.649984 Round     *
%ADD76C,1.649984*%
G04 D77 (position 64 of UNTITLED):0.949960 Round     *
%ADD77C,0.949960*%
G04 D78 (position 65 of UNTITLED):1.050036 Round     *
%ADD78C,1.050036*%
G04 D79 (position 66 of UNTITLED):0.750062 Round     *
%ADD79C,0.750062*%
G04 D94 (position 77 of UNTITLED):0.100000 Round     *
%ADD94C,0.100000*%
G04 D902 (position 79 of UNTITLED):1.152400 Round     *
%ADD902C,1.152400*%
%IPPOS*%
G04 Layer 6: C:\JOB\WORK\SWARMBOTS_V1.3.GTS *
%LN(06)C:\JOB\WORK\SWARMBOTS_V1.3.GTS*%
%LPD*%
X0Y0D02*
D94*
X-12049226Y-9235709D02*
G03X-12049150Y-9065682I-50114J85036D01*
G01X-9649434Y-9065631D02*
G03X-9649510Y-9235658I50114J-85036D01*
G01Y-9065504D02*
G03X-12049150Y-9065682I-1199814J-85166D01*
G01Y-9235836D02*
G03X-9649510Y-9235658I1199814J85166D01*
D43*
G01X-9978085Y-9467230D02*
G36*
X-9787889Y-9657425D01*
X-9850577Y-9720113*
X-10040772Y-9529917*
X-9978085Y-9467230*
G37*
X-10067899Y-9557045D02*
G36*
X-9877704Y-9747240D01*
X-9940391Y-9809927*
X-10130586Y-9619732*
X-10067899Y-9557045*
G37*
X-10157688Y-9646834D02*
G36*
X-9967493Y-9837029D01*
X-10030180Y-9899716*
X-10220375Y-9709521*
X-10157688Y-9646834*
G37*
X-10247502Y-9736623D02*
G36*
X-10057307Y-9926818D01*
X-10119994Y-9989505*
X-10310190Y-9799310*
X-10247502Y-9736623*
G37*
X-10427106Y-9916251D02*
G36*
X-10236911Y-10106447D01*
X-10299598Y-10169134*
X-10489793Y-9978939*
X-10427106Y-9916251*
G37*
X-10337291Y-9826437D02*
G36*
X-10147096Y-10016632D01*
X-10209783Y-10079319*
X-10399979Y-9889124*
X-10337291Y-9826437*
G37*
D902*
X-9902316Y-8622680D03*
X-10410316Y-8724280D03*
Y-8521080D03*
D933*
X-11279327Y-9880666D03*
D58*
X-11214328Y-9970658D03*
X-11279327D03*
X-11344325D03*
Y-9790674D03*
X-11279327D03*
X-11214328D03*
D59*
X-10749330Y-9818182D03*
X-10799317D03*
X-10849330D03*
X-10899343D03*
X-10949330D03*
Y-10113178D03*
X-10899343D03*
X-10849330D03*
X-10799317D03*
X-10749330D03*
D60*
X-10849330Y-9965680D03*
D61*
X-9991343Y-9412671D03*
X-10091343D03*
X-11236324Y-8700658D03*
X-11136325D03*
X-11399342Y-8268172D03*
X-11299342D03*
Y-8365658D03*
X-11399342D03*
X-11561343Y-9914677D03*
X-11461318D03*
X-9898329Y-9461668D03*
X-9798329D03*
X-9898329Y-9386661D03*
X-9798329D03*
X-9880320Y-8892657D03*
X-9780320D03*
X-11393322Y-9301673D03*
X-11293322D03*
X-11482831D03*
X-11582831D03*
X-11054333Y-8700658D03*
X-10954334D03*
X-10577321Y-8650671D03*
X-10677321D03*
D62*
X-11833326Y-9503679D03*
Y-9403679D03*
X-11758320D03*
Y-9503679D03*
X-11913336D03*
Y-9403679D03*
X-11402339Y-8796670D03*
Y-8896670D03*
X-11609323Y-8860678D03*
Y-8760678D03*
X-10497337Y-9668678D03*
Y-9768677D03*
X-11244325Y-8365658D03*
Y-8265658D03*
X-11669318Y-9503679D03*
Y-9403679D03*
X-10228325Y-9241678D03*
Y-9141678D03*
X-10476839Y-9141653D03*
Y-9241653D03*
X-10400461Y-9141653D03*
Y-9241653D03*
X-10324337Y-9141678D03*
Y-9241678D03*
X-11477320Y-8896670D03*
Y-8796670D03*
X-10422331Y-9768677D03*
Y-9668678D03*
X-11126317Y-9095679D03*
Y-8995679D03*
X-10555325Y-9126667D03*
Y-9026667D03*
X-11230330Y-8810666D03*
Y-8910665D03*
X-11155324Y-8810666D03*
Y-8910665D03*
X-11785320Y-8800658D03*
Y-8900658D03*
X-11705335D03*
Y-8800658D03*
D919*
X-11481333Y-9618665D03*
Y-9808657D03*
X-11721337D03*
Y-9713661D03*
Y-9618665D03*
D63*
X-11493830Y-9198168D03*
X-11443817D03*
X-11393830D03*
Y-9018158D03*
X-11443817D03*
X-11493830D03*
D64*
X-11328831Y-9183182D03*
Y-9133169D03*
Y-9083182D03*
Y-9033170D03*
X-11558828D03*
Y-9083182D03*
Y-9133169D03*
Y-9183182D03*
D65*
X-10831829Y-8973175D03*
D66*
X-11029340Y-9073175D03*
Y-9023162D03*
Y-8973175D03*
Y-8923162D03*
Y-8873175D03*
X-10634319D03*
Y-8923162D03*
Y-8973175D03*
Y-9023162D03*
Y-9073175D03*
D67*
X-10931829Y-8775664D03*
X-10881842D03*
X-10831829D03*
X-10781842D03*
X-10731830D03*
Y-9170660D03*
X-10781842D03*
X-10831829D03*
X-10881842D03*
X-10931829D03*
D68*
X-11759336Y-9005661D03*
Y-9295679D03*
X-11899341D03*
Y-9005661D03*
X-9939324D03*
Y-9295679D03*
X-9799319D03*
Y-9005661D03*
D69*
X-10857839Y-9318666D03*
Y-9528673D03*
X-10592841Y-9318666D03*
Y-9528673D03*
D70*
X-10857839Y-9423669D03*
X-10592841D03*
D71*
X-10924336Y-10263673D03*
X-10774324D03*
X-11073333Y-10063673D03*
X-11223320D03*
X-11200333Y-9697659D03*
X-11350320D03*
D72*
X-11093322Y-9803679D03*
Y-9953666D03*
D73*
X-10764316Y-8700658D03*
Y-8650671D03*
Y-8600658D03*
X-10849330D03*
Y-8650671D03*
Y-8700658D03*
D74*
X-10841837Y-8080670D03*
Y-8230682D03*
X-11141836D03*
Y-8080670D03*
D76*
X-11149329Y-9550669D03*
X-11349329D03*
D77*
X-10156342Y-8686180D03*
X-10283316Y-8559180D03*
X-10029342Y-8686180D03*
Y-8559180D03*
X-10283316Y-8686180D03*
X-10156342Y-8559180D03*
D78*
X-11130483Y-10214600D03*
X-11253165Y-10181732D03*
X-10568177Y-10214600D03*
X-10445495Y-10181732D03*
D79*
X-11907342Y-9205661D03*
X-11758320Y-9403679D03*
X-10794339Y-9965680D03*
X-10904321D03*
X-9973335Y-8911681D03*
D59*
X-10779317Y-9818182D03*
X-10829330D03*
X-10879343D03*
X-10929330D03*
Y-10113178D03*
X-10879343D03*
X-10829330D03*
X-10779317D03*
D61*
X-11116325Y-8700658D03*
D62*
X-11457320Y-8896670D03*
Y-8796670D03*
D59*
X-10949330Y-10093178D03*
X-10899343D03*
X-10849330D03*
X-10799317D03*
X-10749330D03*
X-10929330D03*
X-10879343D03*
X-10829330D03*
X-10779317D03*
X-10749330Y-9838182D03*
X-10799317D03*
X-10849330D03*
X-10899343D03*
X-10949330D03*
X-10779317D03*
X-10829330D03*
X-10879343D03*
X-10929330D03*
D73*
X-10764316Y-8680658D03*
Y-8630671D03*
X-10849330D03*
Y-8680658D03*
M02*
