G04 Filename: C:\job\Work\silk_1 *
G04 Creator: GC-CAM (TM) 4.1.4  Thu Jun 23 10:26:31 2016 *
G04 This file contains layer(s): *
G04 Layer 9: CLIPPED *
%FSLAX35Y35*%
G04 Units: mm   *
%MOMM*%
G71*
%SFA1.00000B1.00000*%
%OFA0.00000B0.00000*%
G75*
%AD*%
G04 D34 (position 24 of UNTITLED):0.199898 Round     *
%ADD34C,0.199898*%
G04 D90 (position 76 of UNTITLED):0.249936 Round     *
%ADD90C,0.249936*%
G04 D89 (position 78 of UNTITLED):0.101600 Round     *
%ADD89C,0.101600*%
%IPPOS*%
G04 Layer 9: CLIPPED *
%LN(09)CLIPPED*%
%LPD*%
X0Y0D02*
D34*
X-11092840Y-9731670D02*
G03X-11112855I-10007J0D01*
G01X-11593829Y-8923162D02*
G03X-11603837I-5004J0D01*
X-11593829I5004J0*
G01X-10046334Y-8802665D02*
G03X-9993325Y-8787475I27J100001D01*
G01Y-8457860D02*
G03X-10046334Y-8442670I-52982J-84811D01*
G01X-10684332Y-10130678D02*
Y-9995677D01*
X-10694339Y-10130678D02*
X-10684332D01*
X-11014328Y-9935682D02*
Y-9800681D01*
X-11004321*
X-10684332Y-9935682D02*
Y-9800681D01*
X-10694339D02*
X-10684332D01*
X-11553824Y-9813661D02*
Y-9613661D01*
X-11648820Y-9813661D02*
Y-9613661D01*
Y-9813661D02*
X-11553824D01*
X-11648820Y-9613661D02*
X-11553824D01*
X-11608841Y-9248181D02*
X-11553824D01*
X-11608841Y-8968171D02*
X-11558828D01*
X-11338839D02*
X-11278819D01*
X-11328831Y-9248181D02*
X-11278819D01*
X-10611840Y-9193164D02*
Y-9123162D01*
X-10681842Y-9193164D02*
X-10611840D01*
Y-8823162D02*
Y-8753160D01*
X-10681842D02*
X-10611840D01*
X-11051819D02*
X-10981842D01*
X-11051819Y-8823162D02*
Y-8753160D01*
Y-9193164D02*
Y-9123162D01*
Y-9193164D02*
X-10981842D01*
X-11984329Y-8985672D02*
Y-8970660D01*
Y-9330680D02*
Y-9315668D01*
X-11674322Y-9330680D02*
Y-9315668D01*
Y-8985672D02*
Y-8970660D01*
X-9714331Y-8985672D02*
Y-8970660D01*
Y-9330680D02*
Y-9315668D01*
X-10024338Y-9330680D02*
Y-9315668D01*
Y-8985672D02*
Y-8970660D01*
X-10675340Y-9473682D02*
Y-9373657D01*
X-10775340Y-9473682D02*
X-10675340D01*
X-10775340D02*
Y-9398676D01*
X-10750321Y-9373657*
X-10675340*
X-11056823Y-8065658D02*
X-10926825D01*
X-11056823Y-8245668D02*
X-10926825D01*
X-10506328Y-8702665D02*
Y-8542670D01*
X-10406329Y-8442670D02*
X-10046334D01*
X-9993325Y-8787475D02*
X-9845217Y-8704265D01*
X-10406329Y-8802665D02*
X-10046334D01*
X-9993325Y-8457860D02*
X-9845217Y-8541070D01*
D90*
X-10671733Y-9749780D02*
G03X-10696727I-12497J0D01*
X-10671733I12497J0*
G01X-11011814Y-9140662D02*
G03X-10986820I12497J0D01*
D89*
G01X-10856823Y-8560679D02*
X-10756823D01*
X-11849328Y-9210665D02*
Y-9081938D01*
X-11848033Y-9209369D02*
Y-9081938D01*
X-9749332D02*
Y-9210665D01*
X-9750628Y-9081938D02*
Y-9209369D01*
X-9749332Y-9210665D02*
X-9888067D01*
X-11710593D02*
X-11849328D01*
X-11848033Y-9209369D02*
X-11710593D01*
X-9888067D02*
X-9750628D01*
X-9888067*
X-11710593D02*
X-11848033D01*
X-9750628Y-9206956D02*
X-9888067D01*
X-11710593D02*
X-11848033D01*
Y-9204543D02*
X-11710593D01*
X-9888067D02*
X-9750628D01*
Y-9202130D02*
X-9888067D01*
X-11710593D02*
X-11848033D01*
Y-9199717D02*
X-11710593D01*
X-9888067D02*
X-9750628D01*
Y-9197304D02*
X-9888067D01*
X-11710593D02*
X-11848033D01*
Y-9194891D02*
X-11710593D01*
X-9888067D02*
X-9750628D01*
Y-9192478D02*
X-9888067D01*
X-11710593D02*
X-11848033D01*
Y-9190065D02*
X-11710593D01*
X-9888067D02*
X-9750628D01*
Y-9187652D02*
X-9888067D01*
X-11710593D02*
X-11848033D01*
Y-9185239D02*
X-11710593D01*
X-9888067D02*
X-9750628D01*
Y-9182826D02*
X-9888067D01*
X-11710593D02*
X-11848033D01*
Y-9180413D02*
X-11710593D01*
X-9888067D02*
X-9750628D01*
Y-9178000D02*
X-9888067D01*
X-11710593D02*
X-11848033D01*
Y-9175587D02*
X-11710593D01*
X-9888067D02*
X-9750628D01*
Y-9173174D02*
X-9888067D01*
X-11710593D02*
X-11848033D01*
Y-9170761D02*
X-11710593D01*
X-9888067D02*
X-9750628D01*
Y-9168348D02*
X-9888067D01*
X-11710593D02*
X-11848033D01*
Y-9165935D02*
X-11710593D01*
X-9888067D02*
X-9750628D01*
Y-9163522D02*
X-9888067D01*
X-11710593D02*
X-11848033D01*
Y-9161109D02*
X-11710593D01*
X-9888067D02*
X-9750628D01*
Y-9158696D02*
X-9888067D01*
X-11710593D02*
X-11848033D01*
Y-9156283D02*
X-11710593D01*
X-9888067D02*
X-9750628D01*
Y-9153870D02*
X-9888067D01*
X-11710593D02*
X-11848033D01*
Y-9151457D02*
X-11710593D01*
X-9888067D02*
X-9750628D01*
Y-9149044D02*
X-9888067D01*
X-11710593D02*
X-11848033D01*
Y-9146631D02*
X-11710593D01*
X-9888067D02*
X-9750628D01*
Y-9144218D02*
X-9888067D01*
X-11710593D02*
X-11848033D01*
Y-9141805D02*
X-11710593D01*
X-9888067D02*
X-9750628D01*
Y-9139392D02*
X-9888067D01*
X-11710593D02*
X-11848033D01*
Y-9136979D02*
X-11710593D01*
X-9888067D02*
X-9750628D01*
Y-9134566D02*
X-9888067D01*
X-11710593D02*
X-11848033D01*
Y-9132153D02*
X-11710593D01*
X-9888067D02*
X-9750628D01*
Y-9129740D02*
X-9888067D01*
X-11710593D02*
X-11848033D01*
Y-9127327D02*
X-11710593D01*
X-9888067D02*
X-9750628D01*
Y-9124914D02*
X-9888067D01*
X-11710593D02*
X-11848033D01*
Y-9122501D02*
X-11710593D01*
X-9888067D02*
X-9750628D01*
Y-9120088D02*
X-9888067D01*
X-11710593D02*
X-11848033D01*
Y-9117675D02*
X-11710593D01*
X-9888067D02*
X-9750628D01*
Y-9115262D02*
X-9888067D01*
X-11710593D02*
X-11848033D01*
Y-9112849D02*
X-11710593D01*
X-9888067D02*
X-9750628D01*
Y-9110436D02*
X-9888067D01*
X-11710593D02*
X-11848033D01*
Y-9108023D02*
X-11710593D01*
X-9888067D02*
X-9750628D01*
Y-9105610D02*
X-9888067D01*
X-11710593D02*
X-11848033D01*
Y-9103197D02*
X-11710593D01*
X-9888067D02*
X-9750628D01*
Y-9100784D02*
X-9888067D01*
X-11710593D02*
X-11848033D01*
Y-9098371D02*
X-11710593D01*
X-9888067D02*
X-9750628D01*
Y-9095958D02*
X-9888067D01*
X-11710593D02*
X-11848033D01*
Y-9093545D02*
X-11710593D01*
X-9888067D02*
X-9750628D01*
Y-9091132D02*
X-9888067D01*
X-11710593D02*
X-11848033D01*
Y-9088719D02*
X-11710593D01*
X-9888067D02*
X-9750628D01*
Y-9086306D02*
X-9888067D01*
X-11710593D02*
X-11848033D01*
Y-9083893D02*
X-11710593D01*
X-9888067D02*
X-9750628D01*
X-10798098Y-8565098D02*
X-10815548D01*
Y-8562685D02*
X-10798098D01*
Y-8560272D02*
X-10815548D01*
Y-8557859D02*
X-10798098D01*
Y-8555446D02*
X-10815548D01*
Y-8553033D02*
X-10798098D01*
Y-8550620D02*
X-10815548D01*
Y-8548207D02*
X-10798098D01*
Y-8545794D02*
X-10815548D01*
Y-8543381D02*
X-10798098D01*
Y-8540968D02*
X-10815548D01*
Y-8538555D02*
X-10798098D01*
Y-8536142D02*
X-10815548D01*
Y-8533729D02*
X-10798098D01*
X-11003102Y-8179018D02*
X-11070564D01*
Y-8176605D02*
X-11003102D01*
Y-8174192D02*
X-11070564D01*
Y-8171779D02*
X-11003102D01*
Y-8169366D02*
X-11070564D01*
Y-8166953D02*
X-11003102D01*
Y-8164540D02*
X-11070564D01*
Y-8162127D02*
X-11003102D01*
Y-8159714D02*
X-11070564D01*
Y-8157301D02*
X-11003102D01*
Y-8154888D02*
X-11070564D01*
Y-8152475D02*
X-11003102D01*
Y-8150062D02*
X-11070564D01*
Y-8147649D02*
X-11003102D01*
Y-8145236D02*
X-11070564D01*
Y-8142823D02*
X-11003102D01*
Y-8140410D02*
X-11070564D01*
Y-8137997D02*
X-11003102D01*
Y-8135584D02*
X-11070564D01*
Y-8133171D02*
X-11003102D01*
D34*
X-9840772Y-8544397D02*
X-9845192Y-8541045D01*
X-11394338Y-9995677D02*
X-11386819D01*
X-11278819Y-9248181D02*
Y-9228165D01*
Y-8988186D02*
Y-8968171D01*
X-11608841Y-8988186D02*
Y-8968171D01*
Y-9248181D02*
Y-9228165D01*
X-11681866Y-8970660D02*
X-11674322D01*
X-11681866Y-9330680D02*
X-11674322D01*
X-11984329D02*
X-11976836D01*
X-11984329Y-8970660D02*
X-11976836D01*
X-10024338D02*
X-10016794D01*
X-10024338Y-9330680D02*
X-10016794D01*
X-9721824D02*
X-9714331D01*
X-9721824Y-8970660D02*
X-9714331D01*
X-10861852Y-10228671D02*
X-10836808D01*
X-10861852Y-10298674D02*
X-10836808D01*
X-11010849Y-10130678D02*
X-11004321D01*
X-11160836Y-10098674D02*
X-11135817D01*
X-11160836Y-10028672D02*
X-11135817D01*
X-11394338Y-9993163D02*
Y-9770151D01*
X-11287836Y-9732660D02*
X-11262817D01*
X-11287836Y-9662658D02*
X-11262817D01*
X-11112855Y-9731670D02*
G03X-11105895Y-9741195I9988J-7D01*
G01X-11099799D02*
G03X-11092840Y-9731670I-3045J9530D01*
G01X-11058321Y-9891182D02*
Y-9866163D01*
X-11128324Y-9891182D02*
Y-9866163D01*
X-11164341Y-9891182D02*
Y-9866163D01*
D89*
X-10756823Y-8565581D02*
Y-8560679D01*
X-10856823Y-8565581D02*
Y-8560679D01*
X-11069269Y-8186257D02*
X-11003102D01*
Y-8183844D02*
X-11069269D01*
Y-8181431D02*
X-11003102D01*
X-11069269Y-8123164D02*
X-11003102D01*
X-11069269Y-8124459D02*
X-11003102D01*
Y-8130758D02*
X-11069269D01*
Y-8128345D02*
X-11003102D01*
Y-8125932D02*
X-11069269D01*
D34*
X-9845217Y-8704265D02*
G03X-9803231Y-8611276I-56595J81527D01*
G01X-10506328Y-8702665D02*
G03X-10406329Y-8802665I99999J0D01*
G01Y-8442670D02*
G03X-10506328Y-8542670I0J-100000D01*
D90*
G01X-10986820Y-9140662D02*
G03X-11011814I-12497J0D01*
M02*
