%FSTAX43Y43*%
%MOMM*%
%SFA1B1*%

%IPPOS*%
%ADD10R,0.599999X0.499999*%
%ADD11R,0.499999X0.599999*%
%ADD12O,0.200000X0.649999*%
%ADD13O,0.649999X0.200000*%
%ADD14R,2.599995X2.599995*%
%ADD15R,0.899998X0.649999*%
%ADD16R,1.599997X0.999998*%
%ADD17O,0.299999X0.499999*%
%ADD18R,2.379995X1.649997*%
%ADD19R,0.299999X0.849998*%
%ADD20R,0.349999X0.599999*%
%ADD21R,0.599999X0.349999*%
%ADD25R,0.999998X0.799998*%
%ADD26R,1.049998X0.799998*%
%ADD27R,1.049998X0.599999*%
%ADD28R,0.699999X0.899998*%
%ADD29R,0.899998X0.699999*%
%ADD30R,0.549999X0.250000*%
%ADD31R,0.999998X0.599999*%
%LNzooidpcb-1*%
%LPD*%
G54D10*
X-0005499Y0008824D03*
X-0004499D03*
X-0005499Y0007849D03*
X-0004499D03*
X-0003874Y0004499D03*
X-0002874D03*
X-0009199Y-0003449D03*
X-0010199D03*
X-0005179Y-0005609D03*
X-0004179D03*
X-0008899Y0002479D03*
X-0009899D03*
X0009789Y0002489D03*
X0010789D03*
X0002719Y0004999D03*
X0001719D03*
X-0001049Y0004499D03*
X-0002049D03*
X-0005439Y-0001509D03*
X-0004439D03*
X-0006334D03*
X-0007334D03*
G54D11*
X-0003949Y0008849D03*
Y0007849D03*
X-0006279Y0002539D03*
Y0003539D03*
X-0005529D03*
Y0002539D03*
X-0007599Y0002899D03*
Y0003899D03*
X0003519Y-0005179D03*
Y-0006179D03*
X0006419Y-0000909D03*
Y0000089D03*
X0003724D03*
Y-0000909D03*
X0004488Y0000089D03*
Y-0000909D03*
X0005259Y0000089D03*
Y-0000909D03*
X0004269Y-0006179D03*
Y-0005179D03*
X-0002769Y0000549D03*
Y0001549D03*
X-0003809Y0003399D03*
Y0002399D03*
X-0003059Y0003399D03*
Y0002399D03*
X0002949Y0001219D03*
Y0000219D03*
G54D12*
X-0000824Y-0000199D03*
X-0000324D03*
X0000174D03*
X0000674D03*
X0001174D03*
Y0003749D03*
X0000674D03*
X0000174D03*
X-0000324D03*
X-0000824D03*
G54D13*
X0002149Y0000774D03*
Y0001274D03*
Y0001774D03*
Y0002274D03*
Y0002774D03*
X-0001799D03*
Y0002274D03*
Y0001774D03*
Y0001274D03*
Y0000774D03*
G54D14*
X0000174Y0001774D03*
G54D15*
X-0006519Y-0004379D03*
Y-0006279D03*
X-0008919D03*
Y-0005329D03*
Y-0004379D03*
G54D16*
X-0004299Y-0007264D03*
G54D17*
X-0003649Y-0008164D03*
X-0004299D03*
X-0004949D03*
Y-0006364D03*
X-0004299D03*
X-0003649D03*
G54D18*
X0Y-0008149D03*
G54D19*
X0000999Y-0009624D03*
X0000499D03*
X0D03*
X-0000499D03*
X-0000999D03*
Y-0006674D03*
X-0000499D03*
X0D03*
X0000499D03*
X0000999D03*
G54D20*
X-0006444Y-0000474D03*
X-0005944D03*
X-0005444D03*
Y0001324D03*
X-0005944D03*
X-0006444D03*
G54D21*
X-0004794Y-0000324D03*
Y0000174D03*
Y0000674D03*
Y0001174D03*
X-0007094D03*
Y0000674D03*
Y0000174D03*
Y-0000324D03*
G54D25*
X-0009099Y0001449D03*
Y-0001449D03*
X-0010499D03*
Y0001449D03*
X0010499D03*
Y-0001449D03*
X0009099D03*
Y0001449D03*
G54D26*
X-0000084Y-0001679D03*
Y-0003779D03*
X0002564Y-0001679D03*
Y-0003779D03*
G54D27*
X-0000084Y-0002729D03*
X0002564D03*
G54D28*
X-0000774Y-0011124D03*
X0000724D03*
X-0007994Y-0007609D03*
X-0006494D03*
X-0002799Y-0009124D03*
X-0004299D03*
G54D29*
X0002569Y-0007699D03*
Y-0006199D03*
X-0002439Y-0008129D03*
Y-0006629D03*
G54D30*
X0000849Y0004499D03*
Y0004999D03*
Y0005499D03*
X0D03*
Y0004999D03*
Y0004499D03*
G54D31*
X0000074Y0010699D03*
Y0009199D03*
X-0002924D03*
Y0010699D03*
M02*