%FSTAX43Y43*%
%MOMM*%
%SFA1B1*%

%IPPOS*%
%ADD56C,0.250000*%
%ADD57C,0.200000*%
%ADD58C,0.100000*%
%ADD59C,0.125000*%
%ADD60R,1.399997X1.299997*%
%ADD61R,0.200000X0.449999*%
%ADD62R,0.699999X0.649999*%
%LNzooidpcb-1*%
%LPD*%
G54D56*
X-0001374Y0000099D02*
D01*
X-0001375Y0000108*
X-0001376Y0000117*
X-0001377Y0000125*
X-0001379Y0000134*
X-0001382Y0000142*
X-0001385Y000015*
X-0001389Y0000158*
X-0001393Y0000166*
X-0001398Y0000173*
X-0001404Y000018*
X-000141Y0000186*
X-0001416Y0000192*
X-0001423Y0000198*
X-000143Y0000203*
X-0001437Y0000208*
X-0001445Y0000212*
X-0001453Y0000215*
X-0001461Y0000218*
X-0001469Y0000221*
X-0001478Y0000223*
X-0001486Y0000224*
X-0001495Y0000224*
X-0001504*
X-0001513Y0000224*
X-0001521Y0000223*
X-000153Y0000221*
X-0001538Y0000218*
X-0001546Y0000215*
X-0001554Y0000212*
X-0001562Y0000208*
X-0001569Y0000203*
X-0001576Y0000198*
X-0001583Y0000192*
X-0001589Y0000186*
X-0001595Y000018*
X-0001601Y0000173*
X-0001605Y0000166*
X-000161Y0000158*
X-0001614Y000015*
X-0001617Y0000142*
X-000162Y0000134*
X-0001622Y0000125*
X-0001623Y0000117*
X-0001624Y0000108*
X-0001624Y0000099*
X-0001624Y0000091*
X-0001623Y0000082*
X-0001622Y0000073*
X-000162Y0000065*
X-0001617Y0000057*
X-0001614Y0000049*
X-000161Y0000041*
X-0001605Y0000033*
X-0001601Y0000026*
X-0001595Y0000019*
X-0001589Y0000013*
X-0001583Y0000007*
X-0001576Y0000001*
X-0001569Y-0000003*
X-0001562Y-0000008*
X-0001554Y-0000012*
X-0001546Y-0000015*
X-0001538Y-0000018*
X-000153Y-0000021*
X-0001521Y-0000023*
X-0001513Y-0000024*
X-0001504Y-0000024*
X-0001495*
X-0001486Y-0000024*
X-0001478Y-0000023*
X-0001469Y-0000021*
X-0001461Y-0000018*
X-0001453Y-0000015*
X-0001445Y-0000012*
X-0001437Y-0000008*
X-000143Y-0000003*
X-0001423Y0000001*
X-0001416Y0000007*
X-000141Y0000013*
X-0001404Y0000019*
X-0001398Y0000026*
X-0001393Y0000033*
X-0001389Y0000041*
X-0001385Y0000049*
X-0001382Y0000057*
X-0001379Y0000065*
X-0001377Y0000073*
X-0001376Y0000082*
X-0001375Y0000091*
X-0001374Y0000099*
X0001775Y-000599D02*
D01*
X0001775Y-0005982*
X0001774Y-0005973*
X0001773Y-0005964*
X0001771Y-0005956*
X0001768Y-0005948*
X0001765Y-000594*
X0001761Y-0005932*
X0001756Y-0005924*
X0001752Y-0005917*
X0001746Y-000591*
X000174Y-0005904*
X0001734Y-0005898*
X0001727Y-0005892*
X000172Y-0005887*
X0001713Y-0005882*
X0001705Y-0005878*
X0001697Y-0005875*
X0001689Y-0005872*
X0001681Y-0005869*
X0001672Y-0005867*
X0001664Y-0005866*
X0001655Y-0005866*
X0001646*
X0001637Y-0005866*
X0001629Y-0005867*
X000162Y-0005869*
X0001612Y-0005872*
X0001604Y-0005875*
X0001596Y-0005878*
X0001588Y-0005882*
X0001581Y-0005887*
X0001574Y-0005892*
X0001567Y-0005898*
X0001561Y-0005904*
X0001555Y-000591*
X0001549Y-0005917*
X0001544Y-0005924*
X000154Y-0005932*
X0001536Y-000594*
X0001533Y-0005948*
X000153Y-0005956*
X0001528Y-0005964*
X0001527Y-0005973*
X0001526Y-0005982*
X0001525Y-000599*
X0001526Y-0005999*
X0001527Y-0006008*
X0001528Y-0006016*
X000153Y-0006025*
X0001533Y-0006033*
X0001536Y-0006041*
X000154Y-0006049*
X0001544Y-0006057*
X0001549Y-0006064*
X0001555Y-0006071*
X0001561Y-0006077*
X0001567Y-0006083*
X0001574Y-0006089*
X0001581Y-0006094*
X0001588Y-0006099*
X0001596Y-0006103*
X0001604Y-0006106*
X0001612Y-0006109*
X000162Y-0006112*
X0001629Y-0006114*
X0001637Y-0006115*
X0001646Y-0006115*
X0001655*
X0001664Y-0006115*
X0001672Y-0006114*
X0001681Y-0006112*
X0001689Y-0006109*
X0001697Y-0006106*
X0001705Y-0006103*
X0001713Y-0006099*
X000172Y-0006094*
X0001727Y-0006089*
X0001734Y-0006083*
X000174Y-0006077*
X0001746Y-0006071*
X0001752Y-0006064*
X0001756Y-0006057*
X0001761Y-0006049*
X0001765Y-0006041*
X0001768Y-0006033*
X0001771Y-0006025*
X0001773Y-0006016*
X0001774Y-0006008*
X0001775Y-0005999*
X0001775Y-000599*
G54D57*
X-0003183Y-0005613D02*
D01*
X-0003184Y-0005606*
X-0003184Y-00056*
X-0003186Y-0005593*
X-0003187Y-0005586*
X-000319Y-0005579*
X-0003192Y-0005573*
X-0003195Y-0005567*
X-0003199Y-000556*
X-0003203Y-0005555*
X-0003207Y-0005549*
X-0003212Y-0005544*
X-0003217Y-0005539*
X-0003222Y-0005535*
X-0003228Y-0005531*
X-0003233Y-0005527*
X-000324Y-0005524*
X-0003246Y-0005521*
X-0003253Y-0005518*
X-0003259Y-0005516*
X-0003266Y-0005515*
X-0003273Y-0005514*
X-000328Y-0005514*
X-0003287*
X-0003294Y-0005514*
X-0003301Y-0005515*
X-0003308Y-0005516*
X-0003314Y-0005518*
X-0003321Y-0005521*
X-0003327Y-0005524*
X-0003333Y-0005527*
X-0003339Y-0005531*
X-0003345Y-0005535*
X-000335Y-0005539*
X-0003355Y-0005544*
X-000336Y-0005549*
X-0003364Y-0005555*
X-0003368Y-000556*
X-0003372Y-0005567*
X-0003375Y-0005573*
X-0003377Y-0005579*
X-000338Y-0005586*
X-0003381Y-0005593*
X-0003383Y-00056*
X-0003383Y-0005606*
X-0003383Y-0005613*
X-0003383Y-000562*
X-0003383Y-0005627*
X-0003381Y-0005634*
X-000338Y-0005641*
X-0003377Y-0005648*
X-0003375Y-0005654*
X-0003372Y-000566*
X-0003368Y-0005666*
X-0003364Y-0005672*
X-000336Y-0005678*
X-0003355Y-0005683*
X-000335Y-0005688*
X-0003345Y-0005692*
X-0003339Y-0005696*
X-0003333Y-00057*
X-0003327Y-0005703*
X-0003321Y-0005706*
X-0003314Y-0005709*
X-0003308Y-0005711*
X-0003301Y-0005712*
X-0003294Y-0005713*
X-0003287Y-0005713*
X-000328*
X-0003273Y-0005713*
X-0003266Y-0005712*
X-0003259Y-0005711*
X-0003253Y-0005709*
X-0003246Y-0005706*
X-000324Y-0005703*
X-0003233Y-00057*
X-0003228Y-0005696*
X-0003222Y-0005692*
X-0003217Y-0005688*
X-0003212Y-0005683*
X-0003207Y-0005678*
X-0003203Y-0005672*
X-0003199Y-0005666*
X-0003195Y-000566*
X-0003192Y-0005654*
X-000319Y-0005648*
X-0003187Y-0005641*
X-0003186Y-0005634*
X-0003184Y-0005627*
X-0003184Y-000562*
X-0003183Y-0005613*
X-0007444Y0002274D02*
D01*
X-0007445Y0002278*
X-0007445Y0002281*
X-0007446Y0002285*
X-0007446Y0002288*
X-0007447Y0002292*
X-0007449Y0002295*
X-000745Y0002298*
X-0007452Y0002301*
X-0007454Y0002304*
X-0007456Y0002307*
X-0007459Y0002309*
X-0007461Y0002312*
X-0007464Y0002314*
X-0007467Y0002316*
X-0007469Y0002318*
X-0007473Y0002319*
X-0007476Y0002321*
X-0007479Y0002322*
X-0007482Y0002323*
X-0007486Y0002324*
X-0007489Y0002324*
X-0007493Y0002324*
X-0007496*
X-00075Y0002324*
X-0007503Y0002324*
X-0007507Y0002323*
X-000751Y0002322*
X-0007513Y0002321*
X-0007516Y0002319*
X-0007519Y0002318*
X-0007522Y0002316*
X-0007525Y0002314*
X-0007528Y0002312*
X-000753Y0002309*
X-0007533Y0002307*
X-0007535Y0002304*
X-0007537Y0002301*
X-0007539Y0002298*
X-000754Y0002295*
X-0007541Y0002292*
X-0007543Y0002288*
X-0007543Y0002285*
X-0007544Y0002281*
X-0007544Y0002278*
X-0007544Y0002274*
X-0007544Y0002271*
X-0007544Y0002268*
X-0007543Y0002264*
X-0007543Y0002261*
X-0007541Y0002257*
X-000754Y0002254*
X-0007539Y0002251*
X-0007537Y0002248*
X-0007535Y0002245*
X-0007533Y0002242*
X-000753Y000224*
X-0007528Y0002237*
X-0007525Y0002235*
X-0007522Y0002233*
X-0007519Y0002231*
X-0007516Y000223*
X-0007513Y0002228*
X-000751Y0002227*
X-0007507Y0002226*
X-0007503Y0002225*
X-00075Y0002225*
X-0007496Y0002225*
X-0007493*
X-0007489Y0002225*
X-0007486Y0002225*
X-0007482Y0002226*
X-0007479Y0002227*
X-0007476Y0002228*
X-0007473Y000223*
X-0007469Y0002231*
X-0007467Y0002233*
X-0007464Y0002235*
X-0007461Y0002237*
X-0007459Y000224*
X-0007456Y0002242*
X-0007454Y0002245*
X-0007452Y0002248*
X-000745Y0002251*
X-0007449Y0002254*
X-0007447Y0002257*
X-0007446Y0002261*
X-0007446Y0002264*
X-0007445Y0002268*
X-0007445Y0002271*
X-0007444Y0002274*
X0004429Y0007079D02*
D01*
X000436Y0007077*
X000429Y000707*
X0004222Y0007058*
X0004154Y0007041*
X0004087Y0007019*
X0004023Y0006993*
X000396Y0006962*
X00039Y0006928*
X0003842Y0006889*
X0003787Y0006846*
X0003735Y0006799*
X0003686Y0006749*
X0003641Y0006695*
X00036Y0006639*
X0003563Y0006579*
X0003531Y0006518*
X0003502Y0006454*
X0003478Y0006389*
X0003459Y0006321*
X0003445Y0006253*
X0003435Y0006184*
X000343Y0006114*
X0003429Y0006079*
X001004Y0004463D02*
D01*
X0010096Y0004505*
X0010149Y000455*
X0010198Y0004599*
X0010243Y0004651*
X0010285Y0004707*
X0010323Y0004765*
X0010357Y0004825*
X0010387Y0004888*
X0010412Y0004953*
X0010432Y0005019*
X0010448Y0005086*
X0010459Y0005155*
X0010466Y0005224*
X0010467Y0005293*
X0010464Y0005363*
X0010455Y0005431*
X0010442Y00055*
X0010425Y0005567*
X0010402Y0005632*
X0010376Y0005696*
X0010344Y0005758*
X0010309Y0005818*
X0010269Y0005875*
X0010226Y0005929*
X0010179Y000598*
X0010128Y0006027*
X0010074Y0006071*
X001004Y0006095*
X0008029Y0003479D02*
D01*
X0008099Y0003482*
X0008169Y0003489*
X0008237Y0003501*
X0008305Y0003518*
X0008372Y000354*
X0008436Y0003566*
X0008499Y0003597*
X0008559Y0003631*
X0008559Y0003631*
Y0006927D02*
D01*
X0008499Y0006962*
X0008436Y0006993*
X0008372Y0007019*
X0008305Y0007041*
X0008237Y0007058*
X0008169Y000707*
X0008099Y0007077*
X000803Y0007079*
X0008029*
X0003429Y0004479D02*
D01*
X0003432Y000441*
X0003439Y000434*
X0003451Y0004272*
X0003468Y0004204*
X000349Y0004137*
X0003516Y0004073*
X0003547Y000401*
X0003581Y000395*
X000362Y0003892*
X0003663Y0003837*
X000371Y0003785*
X000376Y0003736*
X0003814Y0003691*
X000387Y000365*
X0003929Y0003613*
X0003991Y0003581*
X0004055Y0003552*
X000412Y0003528*
X0004188Y0003509*
X0004256Y0003495*
X0004325Y0003485*
X0004395Y000348*
X0004429Y0003479*
X-0002024Y-0000424D02*
X-0001324D01*
X-0002024D02*
Y0000274D01*
Y0003274D02*
Y0003974D01*
X-0001324*
X0001674D02*
X0002374D01*
Y0003274D02*
Y0003974D01*
X0001674Y-0000424D02*
X0002374D01*
Y0000274*
X-0007244Y-0006329D02*
Y-0004329D01*
X-0008194Y-0006329D02*
Y-0004329D01*
Y-0006329D02*
X-0007244D01*
X-0008194Y-0004329D02*
X-0007244D01*
X-0005449Y-0006114D02*
X-0005274D01*
X-0005449Y-0008414D02*
X-0005274D01*
X-0005449Y-0008389D02*
Y-0006114D01*
X-0003149Y-0008414D02*
Y-0006139D01*
X-0003324Y-0006114D02*
X-0003149D01*
X-0003324Y-0008414D02*
X-0003149D01*
X0001549Y-0006499D02*
X0001649D01*
Y-0007849D02*
Y-0006499D01*
X-0001649D02*
X-0001549D01*
X-0001649Y-0007849D02*
Y-0006499D01*
Y-0009799D02*
Y-0008449D01*
Y-0009799D02*
X-0001549D01*
X0001549D02*
X0001649D01*
Y-0008449*
X-0007594Y-0000974D02*
X-0007044D01*
X-0007594D02*
Y-0000474D01*
Y0001274D02*
Y0001824D01*
X-0007094D01*
X-0004894D02*
X-0004294D01*
Y0001274D02*
Y0001824D01*
X-0004794Y-0000974D02*
X-0004294D01*
Y-0000424*
X0003429Y0004479D02*
Y0006079D01*
X0004429Y0007079D02*
X0008029D01*
X0008559Y0003631D02*
X001004Y0004463D01*
X0004429Y0003479D02*
X0008029D01*
X0008559Y0006927D02*
X001004Y0006095D01*
X-0011349Y0001649D02*
Y0001799D01*
Y-0001799D02*
Y-0001649D01*
X-0008249Y-0001799D02*
Y-0001649D01*
Y0001649D02*
Y0001799D01*
X-0008399Y-0001799D02*
X-0008249D01*
X-0011349Y0001799D02*
X-0011199D01*
X-0008399D02*
X-0008249D01*
X-0011349Y-0001799D02*
X-0011199D01*
X0001739Y-0003229D02*
Y-0002229D01*
X0000739Y-0003229D02*
X0001739D01*
X0000739D02*
Y-0002479D01*
X0000989Y-0002229*
X0001739*
X0008249Y0001649D02*
Y0001799D01*
Y-0001799D02*
Y-0001649D01*
X0011349Y-0001799D02*
Y-0001649D01*
Y0001649D02*
Y0001799D01*
X0011199Y-0001799D02*
X0011349D01*
X0008249Y0001799D02*
X0008399D01*
X0011199D02*
X0011349D01*
X0008249Y-0001799D02*
X0008399D01*
X-0000224Y-0010774D02*
X0000174D01*
X-0000224Y-0011474D02*
X0000174D01*
X0002219Y-0007149D02*
Y-0006749D01*
X0002919Y-0007149D02*
Y-0006749D01*
X-0007444Y-0007259D02*
X-0007044D01*
X-0007444Y-0007959D02*
X-0007044D01*
X-0002789Y-0007579D02*
Y-0007179D01*
X-0002089Y-0007579D02*
Y-0007179D01*
X-0003749Y-0009474D02*
X-0003349D01*
X-0003749Y-0008774D02*
X-0003349D01*
X-0002074Y0010849D02*
X-0000774D01*
X-0002074Y0009049D02*
X-0000774D01*
G54D58*
X-0000074Y0005799D02*
Y0005899D01*
X0000924Y0005799D02*
Y0005899D01*
X-0000074D02*
X0000924D01*
G54D59*
X-0007874Y0005579D02*
X-0007274D01*
Y0005279*
X-0007374Y0005179*
X-0007574*
X-0007674Y0005279*
Y0005579*
Y0005379D02*
X-0007874Y0005179D01*
X-0007274Y0004579D02*
X-0007374Y0004779D01*
X-0007574Y0004979*
X-0007774*
X-0007874Y0004879*
Y0004679*
X-0007774Y0004579*
X-0007674*
X-0007574Y0004679*
Y0004979*
X-0001899Y0005474D02*
X-0001999Y0005574D01*
X-0002199*
X-0002299Y0005474*
Y0005074*
X-0002199Y0004974*
X-0001999*
X-0001899Y0005074*
X-0001699Y0004974D02*
X-0001499D01*
X-0001599*
Y0005574*
X-0001699Y0005474*
X-0001199D02*
X-0001099Y0005574D01*
X-0000899*
X-0000799Y0005474*
Y0005374*
X-0000899Y0005274*
X-0000799Y0005174*
Y0005074*
X-0000899Y0004974*
X-0001099*
X-0001199Y0005074*
Y0005174*
X-0001099Y0005274*
X-0001199Y0005374*
Y0005474*
X-0001099Y0005274D02*
X-0000899D01*
X0003049Y0002799D02*
X0003149Y0002899D01*
Y0003099*
X0003049Y0003199*
X0002649*
X0002549Y0003099*
Y0002899*
X0002649Y0002799*
X0002549Y0002599D02*
Y0002399D01*
Y0002499*
X0003149*
X0003049Y0002599*
X0003149Y0002099D02*
Y0001699D01*
X0003049*
X0002649Y0002099*
X0002549*
X0007809Y0002289D02*
Y0002889D01*
X0008109*
X0008209Y0002789*
Y0002589*
X0008109Y0002489*
X0007809*
X0008009D02*
X0008209Y0002289D01*
X0008409D02*
X0008609D01*
X0008509*
Y0002889*
X0008409Y0002789*
X0008909Y0002289D02*
X0009109D01*
X0009009*
Y0002889*
X0008909Y0002789*
X-0011229Y0000239D02*
Y-0000359D01*
X-0010929*
X-0010829Y-0000259*
Y0000139*
X-0010929Y0000239*
X-0011229*
X-0010629Y0000139D02*
X-0010529Y0000239D01*
X-0010329*
X-0010229Y0000139*
Y0000039*
X-0010329Y-0000059*
X-0010429*
X-0010329*
X-0010229Y-0000159*
Y-0000259*
X-0010329Y-0000359*
X-0010529*
X-0010629Y-0000259*
X0008609Y0000279D02*
Y-0000319D01*
X0008909*
X0009009Y-0000219*
Y0000179*
X0008909Y0000279*
X0008609*
X0009209Y-0000319D02*
X0009409D01*
X0009309*
Y0000279*
X0009209Y0000179*
X-0006469Y0000674D02*
Y0000174D01*
X-0006369Y0000074*
X-0006169*
X-0006069Y0000174*
Y0000674*
X-0005469Y0000074D02*
X-0005869D01*
X-0005469Y0000474*
Y0000574*
X-0005569Y0000674*
X-0005769*
X-0005869Y0000574*
X0000699Y-0003699D02*
Y-0004299D01*
X0000999*
X0001099Y-0004199*
Y-0003799*
X0000999Y-0003699*
X0000699*
X0001699Y-0004299D02*
X0001299D01*
X0001699Y-0003899*
Y-0003799*
X0001599Y-0003699*
X0001399*
X0001299Y-0003799*
X0003349Y0002524D02*
X0003949D01*
Y0002224*
X0003849Y0002124*
X0003649*
X0003549Y0002224*
Y0002524*
Y0002324D02*
X0003349Y0002124D01*
Y0001924D02*
Y0001724D01*
Y0001824*
X0003949*
X0003849Y0001924*
Y0001424D02*
X0003949Y0001324D01*
Y0001124*
X0003849Y0001024*
X0003749*
X0003649Y0001124*
X0003549Y0001024*
X0003449*
X0003349Y0001124*
Y0001324*
X0003449Y0001424*
X0003549*
X0003649Y0001324*
X0003749Y0001424*
X0003849*
X0003649Y0001324D02*
Y0001124D01*
X0004199Y0002524D02*
X0004799D01*
Y0002224*
X0004699Y0002124*
X0004499*
X0004399Y0002224*
Y0002524*
Y0002324D02*
X0004199Y0002124D01*
Y0001924D02*
Y0001724D01*
Y0001824*
X0004799*
X0004699Y0001924*
X0004799Y0001424D02*
Y0001024D01*
X0004699*
X0004299Y0001424*
X0004199*
X0005024Y0002524D02*
X0005624D01*
Y0002224*
X0005524Y0002124*
X0005324*
X0005224Y0002224*
Y0002524*
Y0002324D02*
X0005024Y0002124D01*
Y0001924D02*
Y0001724D01*
Y0001824*
X0005624*
X0005524Y0001924*
X0005624Y0001024D02*
X0005524Y0001224D01*
X0005324Y0001424*
X0005124*
X0005024Y0001324*
Y0001124*
X0005124Y0001024*
X0005224*
X0005324Y0001124*
Y0001424*
X-0000024Y0007074D02*
Y0006474D01*
X0000274*
X0000374Y0006574*
Y0006674*
X0000274Y0006774*
X-0000024*
X0000274*
X0000374Y0006874*
Y0006974*
X0000274Y0007074*
X-0000024*
X0000574Y0006474D02*
X0000774D01*
X0000674*
Y0007074*
X0000574Y0006974*
X-0006024Y-0008699D02*
Y-0009199D01*
X-0005924Y-0009299*
X-0005724*
X-0005624Y-0009199*
Y-0008699*
X-0005124Y-0009299D02*
Y-0008699D01*
X-0005424Y-0008999*
X-0005024*
X-0004174Y0004974D02*
Y0005574D01*
X-0003874*
X-0003774Y0005474*
Y0005274*
X-0003874Y0005174*
X-0004174*
X-0003974D02*
X-0003774Y0004974D01*
X-0003174D02*
X-0003574D01*
X-0003174Y0005374*
Y0005474*
X-0003274Y0005574*
X-0003474*
X-0003574Y0005474*
X-0002974Y0005574D02*
X-0002575D01*
Y0005474*
X-0002974Y0005074*
Y0004974*
X-0010449Y-0003074D02*
Y-0002474D01*
X-0010149*
X-0010049Y-0002574*
Y-0002774*
X-0010149Y-0002874*
X-0010449*
X-0010249D02*
X-0010049Y-0003074D01*
X-0009449D02*
X-0009849D01*
X-0009449Y-0002674*
Y-0002574*
X-0009549Y-0002474*
X-0009749*
X-0009849Y-0002574*
X-0009249D02*
X-0009149Y-0002474D01*
X-0008949*
X-000885Y-0002574*
Y-0002674*
X-0008949Y-0002774*
X-0009049*
X-0008949*
X-000885Y-0002874*
Y-0002974*
X-0008949Y-0003074*
X-0009149*
X-0009249Y-0002974*
X-0005424Y-0005174D02*
Y-0004574D01*
X-0005124*
X-0005024Y-0004674*
Y-0004874*
X-0005124Y-0004974*
X-0005424*
X-0005224D02*
X-0005024Y-0005174D01*
X-0004424D02*
X-0004824D01*
X-0004424Y-0004774*
Y-0004674*
X-0004524Y-0004574*
X-0004724*
X-0004824Y-0004674*
X-0003825Y-0005174D02*
X-0004224D01*
X-0003825Y-0004774*
Y-0004674*
X-0003924Y-0004574*
X-0004124*
X-0004224Y-0004674*
X-0010099Y0002924D02*
Y0003524D01*
X-0009799*
X-0009699Y0003424*
Y0003224*
X-0009799Y0003124*
X-0010099*
X-0009899D02*
X-0009699Y0002924D01*
X-0009099D02*
X-0009499D01*
X-0009099Y0003324*
Y0003424*
X-0009199Y0003524*
X-0009399*
X-0009499Y0003424*
X-0008899Y0002924D02*
X-0008699D01*
X-0008799*
Y0003524*
X-0008899Y0003424*
X-0006674Y0005274D02*
X-0006074D01*
Y0004974*
X-0006174Y0004874*
X-0006374*
X-0006474Y0004974*
Y0005274*
Y0005074D02*
X-0006674Y0004874D01*
X-0006574Y0004674D02*
X-0006674Y0004574D01*
Y0004374*
X-0006574Y0004274*
X-0006174*
X-0006074Y0004374*
Y0004574*
X-0006174Y0004674*
X-0006274*
X-0006374Y0004574*
Y0004274*
X-0005899Y0005199D02*
X-0005299D01*
Y0004899*
X-0005399Y0004799*
X-0005599*
X-0005699Y0004899*
Y0005199*
Y0004999D02*
X-0005899Y0004799D01*
X-0005299Y0004599D02*
Y0004199D01*
X-0005399*
X-0005799Y0004599*
X-0005899*
X0003249Y-0006849D02*
X0003849D01*
Y-0007149*
X0003749Y-0007249*
X0003549*
X0003449Y-0007149*
Y-0006849*
Y-0007049D02*
X0003249Y-0007249D01*
X0003849Y-0007849D02*
Y-0007449D01*
X0003549*
X0003649Y-0007649*
Y-0007749*
X0003549Y-0007849*
X0003349*
X0003249Y-0007749*
Y-0007549*
X0003349Y-0007449*
X0006049Y0001724D02*
X0006649D01*
Y0001424*
X0006549Y0001324*
X0006349*
X0006249Y0001424*
Y0001724*
Y0001524D02*
X0006049Y0001324D01*
Y0000724D02*
Y0001124D01*
X0006449Y0000724*
X0006549*
X0006649Y0000824*
Y0001024*
X0006549Y0001124*
X-0002549Y-0000324D02*
X-0002449Y-0000224D01*
Y-0000024*
X-0002549Y0000074*
X-0002949*
X-0003049Y-0000024*
Y-0000224*
X-0002949Y-0000324*
X-0003049Y-0000924D02*
Y-0000524D01*
X-0002649Y-0000924*
X-0002549*
X-0002449Y-0000824*
Y-0000624*
X-0002549Y-0000524*
X-0003049Y-0001523D02*
Y-0001124D01*
X-0002649Y-0001523*
X-0002549*
X-0002449Y-0001424*
Y-0001224*
X-0002549Y-0001124*
X0001974Y0006124D02*
X0001874Y0006224D01*
X0001674*
X0001574Y0006124*
Y0005724*
X0001674Y0005624*
X0001874*
X0001974Y0005724*
X0002574Y0005624D02*
X0002174D01*
X0002574Y0006024*
Y0006124*
X0002474Y0006224*
X0002274*
X0002174Y0006124*
X0002774Y0005624D02*
X0002974D01*
X0002874*
Y0006224*
X0002774Y0006124*
X-0003574Y0001399D02*
X-0003474Y0001499D01*
Y0001699*
X-0003574Y0001799*
X-0003974*
X-0004074Y0001699*
Y0001499*
X-0003974Y0001399*
X-0004074Y0000799D02*
Y0001199D01*
X-0003674Y0000799*
X-0003574*
X-0003474Y0000899*
Y0001099*
X-0003574Y0001199*
Y0000599D02*
X-0003474Y0000499D01*
Y0000299*
X-0003574Y00002*
X-0003974*
X-0004074Y0000299*
Y0000499*
X-0003974Y0000599*
X-0003574*
X-0002624Y0003274D02*
X-0002524Y0003374D01*
Y0003574*
X-0002624Y0003674*
X-0003024*
X-0003124Y0003574*
Y0003374*
X-0003024Y0003274*
X-0003124Y0003074D02*
Y0002874D01*
Y0002974*
X-0002524*
X-0002624Y0003074*
X-0003024Y0002574D02*
X-0003124Y0002474D01*
Y0002274*
X-0003024Y0002174*
X-0002624*
X-0002524Y0002274*
Y0002474*
X-0002624Y0002574*
X-0002724*
X-0002824Y0002474*
Y0002174*
X-0007499Y-0008399D02*
X-0007599Y-0008299D01*
X-0007799*
X-0007899Y-0008399*
Y-0008799*
X-0007799Y-0008899*
X-0007599*
X-0007499Y-0008799*
X-0007299Y-0008899D02*
X-0007099D01*
X-0007199*
Y-0008299*
X-0007299Y-0008399*
X-0006399Y-0008299D02*
X-0006799D01*
Y-0008599*
X-0006599Y-0008499*
X-0006499*
X-0006399Y-0008599*
Y-0008799*
X-0006499Y-0008899*
X-0006699*
X-0006799Y-0008799*
X-0002549Y-0005674D02*
X-0002649Y-0005774D01*
Y-0005974*
X-0002549Y-0006074*
X-0002149*
X-0002049Y-0005974*
Y-0005774*
X-0002149Y-0005674*
X-0002049Y-0005474D02*
Y-0005274D01*
Y-0005374*
X-0002649*
X-0002549Y-0005474*
Y-0004974D02*
X-0002649Y-0004874D01*
Y-0004674*
X-0002549Y-0004574*
X-0002449*
X-0002349Y-0004674*
Y-0004774*
Y-0004674*
X-0002249Y-0004574*
X-0002149*
X-0002049Y-0004674*
Y-0004874*
X-0002149Y-0004974*
X-0003849Y-0009919D02*
X-0003949Y-0009819D01*
X-0004149*
X-0004249Y-0009919*
Y-0010319*
X-0004149Y-0010419*
X-0003949*
X-0003849Y-0010319*
X-0003649Y-0010419D02*
X-0003449D01*
X-0003549*
Y-0009819*
X-0003649Y-0009919*
X-0002749Y-0010419D02*
X-0003149D01*
X-0002749Y-0010019*
Y-0009919*
X-0002849Y-0009819*
X-0003049*
X-0003149Y-0009919*
X-0005174Y-0002099D02*
X-0005274Y-0001999D01*
X-0005474*
X-0005574Y-0002099*
Y-0002499*
X-0005474Y-0002599*
X-0005274*
X-0005174Y-0002499*
X-0004974Y-0002599D02*
X-0004774D01*
X-0004874*
Y-0001999*
X-0004974Y-0002099*
X-0004474Y-0002599D02*
X-0004274D01*
X-0004374*
Y-0001999*
X-0004474Y-0002099*
X-0007229Y-0002059D02*
X-0007329Y-0001959D01*
X-0007529*
X-0007629Y-0002059*
Y-0002459*
X-0007529Y-0002559*
X-0007329*
X-0007229Y-0002459*
X-0007029Y-0002559D02*
X-0006829D01*
X-0006929*
Y-0001959*
X-0007029Y-0002059*
X-0006529D02*
X-0006429Y-0001959D01*
X-0006229*
X-0006129Y-0002059*
Y-0002459*
X-0006229Y-0002559*
X-0006429*
X-0006529Y-0002459*
Y-0002059*
X0004599Y-0007224D02*
X0004699Y-0007124D01*
Y-0006924*
X0004599Y-0006824*
X0004199*
X0004099Y-0006924*
Y-0007124*
X0004199Y-0007224*
X0004699Y-0007824D02*
X0004599Y-0007624D01*
X0004399Y-0007424*
X0004199*
X0004099Y-0007524*
Y-0007724*
X0004199Y-0007824*
X0004299*
X0004399Y-0007724*
Y-0007424*
X0002649Y-0008724D02*
X0002749Y-0008624D01*
Y-0008424*
X0002649Y-0008324*
X0002249*
X0002149Y-0008424*
Y-0008624*
X0002249Y-0008724*
X0002149Y-0009324D02*
Y-0008924D01*
X0002549Y-0009324*
X0002649*
X0002749Y-0009224*
Y-0009024*
X0002649Y-0008924*
X0001719Y-0010799D02*
X0001619Y-0010699D01*
X0001419*
X0001319Y-0010799*
Y-0011199*
X0001419Y-0011299*
X0001619*
X0001719Y-0011199*
X0001919D02*
X0002019Y-0011299D01*
X0002219*
X0002319Y-0011199*
Y-0010799*
X0002219Y-0010699*
X0002019*
X0001919Y-0010799*
Y-0010899*
X0002019Y-0010999*
X0002319*
X0000799Y-0000724D02*
Y-0001224D01*
X0000899Y-0001324*
X0001099*
X0001199Y-0001224*
Y-0000724*
X0001399D02*
X0001799D01*
Y-0000824*
X0001399Y-0001224*
Y-0001324*
X-0006979Y-0005069D02*
Y-0005569D01*
X-0006879Y-0005669*
X-0006679*
X-0006579Y-0005569*
Y-0005069*
X-0005979D02*
X-0006179Y-0005169D01*
X-0006379Y-0005369*
Y-0005569*
X-0006279Y-0005669*
X-0006079*
X-0005979Y-0005569*
Y-0005469*
X-0006079Y-0005369*
X-0006379*
X-0000849Y-0005299D02*
Y-0005799D01*
X-0000749Y-0005899*
X-0000549*
X-0000449Y-0005799*
Y-0005299*
X-0000249Y-0005399D02*
X-0000149Y-0005299D01*
X0000049*
X0000149Y-0005399*
Y-0005499*
X0000049Y-0005599*
X-0000049*
X0000049*
X0000149Y-0005699*
Y-0005799*
X0000049Y-0005899*
X-0000149*
X-0000249Y-0005799*
X0000849Y0009574D02*
Y0009974D01*
X0001049Y0010174*
X0001249Y0009974*
Y0009574*
Y0009874*
X0000849*
X0001449Y0009574D02*
X0001649D01*
X0001549*
Y0010174*
X0001449Y0010074*
X-0004274Y0007424D02*
X-0003674D01*
Y0007124*
X-0003774Y0007024*
X-0003974*
X-0004074Y0007124*
Y0007424*
Y0007224D02*
X-0004274Y0007024D01*
Y0006424D02*
Y0006824D01*
X-0003874Y0006424*
X-0003774*
X-0003674Y0006524*
Y0006724*
X-0003774Y0006824*
X-0004274Y0005924D02*
X-0003674D01*
X-0003974Y0006224*
Y0005825*
X-0007624Y0007549D02*
Y0008149D01*
X-0007324*
X-0007224Y0008049*
Y0007849*
X-0007324Y0007749*
X-0007624*
X-0007424D02*
X-0007224Y0007549D01*
X-0006624D02*
X-0007024D01*
X-0006624Y0007949*
Y0008049*
X-0006724Y0008149*
X-0006924*
X-0007024Y0008049*
X-0006025Y0008149D02*
X-0006424D01*
Y0007849*
X-0006224Y0007949*
X-0006124*
X-0006025Y0007849*
Y0007649*
X-0006124Y0007549*
X-0006324*
X-0006424Y0007649*
X-0007549Y0008574D02*
Y0009174D01*
X-0007249*
X-0007149Y0009074*
Y0008874*
X-0007249Y0008774*
X-0007549*
X-0007349D02*
X-0007149Y0008574D01*
X-0006549D02*
X-0006949D01*
X-0006549Y0008974*
Y0009074*
X-0006649Y0009174*
X-0006849*
X-0006949Y0009074*
X-000595Y0009174D02*
X-0006149Y0009074D01*
X-0006349Y0008874*
Y0008674*
X-0006249Y0008574*
X-0006049*
X-000595Y0008674*
Y0008774*
X-0006049Y0008874*
X-0006349*
G54D60*
X-0009299Y0000049D03*
X0010299D03*
G54D61*
X0000424Y0005974D03*
G54D62*
X-0001874Y0009949D03*
M02*