%FSTAX43Y43*%
%MOMM*%
%SFA1B1*%

%IPPOS*%
%ADD12R,5.079990X2.031996*%
%ADD29C,0.150000*%
%ADD31C,0.200000*%
%ADD35C,0.999998*%
%ADD36C,1.199998*%
%ADD37O,3.199994X1.299997*%
%ADD38C,0.599999*%
%ADD46C,0.799998*%
%ADD47C,0.349999*%
%LNzooidreceiverpcb-1*%
%LPD*%
G36*
X0034999Y0012981D02*
X0034939Y0012856D01*
X0034849*
X0032324*
Y001169*
Y0010524*
X0034849*
X0034939*
X0034999Y0010399*
Y0004599*
X0034939Y0004474*
X0034849*
X0032324*
Y0003308*
Y0002142*
X0034849*
X0034939*
X0034999Y0002017*
Y0*
X0*
Y0014999*
X0034999*
Y0012981*
G37*
%LNzooidreceiverpcb-2*%
%LPC*%
G36*
X0001074Y0004943D02*
Y0004574D01*
X0001443*
X0001423Y0004675*
X0001323Y0004823*
X0001175Y0004923*
X0001074Y0004943*
G37*
G36*
X0026424D02*
X0026323Y0004923D01*
X0026175Y0004823*
X0026075Y0004675*
X0026055Y0004574*
X0026424*
Y0004943*
G37*
G36*
X0026574D02*
Y0004574D01*
X0026943*
X0026923Y0004675*
X0026823Y0004823*
X0026675Y0004923*
X0026574Y0004943*
G37*
G36*
X0000924D02*
X0000823Y0004923D01*
X0000675Y0004823*
X0000575Y0004675*
X0000555Y0004574*
X0000924*
Y0004943*
G37*
G36*
X0002674Y0006014D02*
X0002381Y0005956D01*
X0002133Y000579*
X0001968Y0005542*
X0001909Y0005249*
X0001968Y0004956*
X0002133Y0004708*
X0002381Y0004543*
X0002674Y0004484*
X0002967Y0004543*
X0003215Y0004708*
X000338Y0004956*
X0003439Y0005249*
X000338Y0005542*
X0003215Y000579*
X0002967Y0005956*
X0002674Y0006014*
G37*
G36*
X0014674Y0004918D02*
X0014573Y0004898D01*
X0014425Y0004798*
X0014325Y000465*
X0014305Y0004549*
X0014674*
Y0004918*
G37*
G36*
X0014824D02*
Y0004549D01*
X0015193*
X0015173Y000465*
X0015073Y0004798*
X0014925Y0004898*
X0014824Y0004918*
G37*
G36*
X0025674Y0005924D02*
X0025305D01*
X0025325Y0005823*
X0025425Y0005675*
X0025573Y0005575*
X0025674Y0005555*
Y0005924*
G37*
G36*
X0026193D02*
X0025824D01*
Y0005555*
X0025925Y0005575*
X0026073Y0005675*
X0026173Y0005823*
X0026193Y0005924*
G37*
G36*
X0027174D02*
X0026805D01*
X0026825Y0005823*
X0026925Y0005675*
X0027073Y0005575*
X0027174Y0005555*
Y0005924*
G37*
G36*
X0023574Y0005193D02*
Y0004824D01*
X0023943*
X0023923Y0004925*
X0023823Y0005073*
X0023675Y0005173*
X0023574Y0005193*
G37*
G36*
X0027924Y0004943D02*
X0027823Y0004923D01*
X0027675Y0004823*
X0027575Y0004675*
X0027555Y0004574*
X0027924*
Y0004943*
G37*
G36*
X0028074D02*
Y0004574D01*
X0028443*
X0028423Y0004675*
X0028323Y0004823*
X0028175Y0004923*
X0028074Y0004943*
G37*
G36*
X0023424Y0005193D02*
X0023323Y0005173D01*
X0023175Y0005073*
X0023075Y0004925*
X0023055Y0004824*
X0023424*
Y0005193*
G37*
G36*
X0023943Y0004674D02*
X0023574D01*
Y0004305*
X0023675Y0004325*
X0023823Y0004425*
X0023923Y0004573*
X0023943Y0004674*
G37*
G36*
X0032174Y0004474D02*
X0029559D01*
Y0003383*
X0032174*
Y0004474*
G37*
G36*
X0014674Y0004399D02*
X0014305D01*
X0014325Y0004298*
X0014425Y000415*
X0014573Y000405*
X0014674Y000403*
Y0004399*
G37*
G36*
X0015193D02*
X0014824D01*
Y000403*
X0014925Y000405*
X0015073Y000415*
X0015173Y0004298*
X0015193Y0004399*
G37*
G36*
X0007424Y0004083D02*
X0007248Y0004048D01*
X00071Y0003948*
X0007Y00038*
X0006965Y0003624*
X0007Y0003448*
X00071Y00033*
X0007248Y00032*
X0007424Y0003165*
X00076Y00032*
X0007748Y00033*
X0007848Y0003448*
X0007883Y0003624*
X0007848Y00038*
X0007748Y0003948*
X00076Y0004048*
X0007424Y0004083*
G37*
G36*
X0027324Y0003443D02*
Y0003074D01*
X0027693*
X0027673Y0003175*
X0027573Y0003323*
X0027425Y0003423*
X0027324Y0003443*
G37*
G36*
X0028674D02*
X0028573Y0003423D01*
X0028425Y0003323*
X0028325Y0003175*
X0028305Y0003074*
X0028674*
Y0003443*
G37*
G36*
X0028824D02*
Y0003074D01*
X0029193*
X0029173Y0003175*
X0029073Y0003323*
X0028925Y0003423*
X0028824Y0003443*
G37*
G36*
X0027924Y0004424D02*
X0027555D01*
X0027575Y0004323*
X0027675Y0004175*
X0027823Y0004075*
X0027924Y0004055*
Y0004424*
G37*
G36*
X0028443D02*
X0028074D01*
Y0004055*
X0028175Y0004075*
X0028323Y0004175*
X0028423Y0004323*
X0028443Y0004424*
G37*
G36*
X0023424Y0004674D02*
X0023055D01*
X0023075Y0004573*
X0023175Y0004425*
X0023323Y0004325*
X0023424Y0004305*
Y0004674*
G37*
G36*
X0026943Y0004424D02*
X0026574D01*
Y0004055*
X0026675Y0004075*
X0026823Y0004175*
X0026923Y0004323*
X0026943Y0004424*
G37*
G36*
X0000924D02*
X0000555D01*
X0000575Y0004323*
X0000675Y0004175*
X0000823Y0004075*
X0000924Y0004055*
Y0004424*
G37*
G36*
X0001443D02*
X0001074D01*
Y0004055*
X0001175Y0004075*
X0001323Y0004175*
X0001423Y0004323*
X0001443Y0004424*
G37*
G36*
X0026424D02*
X0026055D01*
X0026075Y0004323*
X0026175Y0004175*
X0026323Y0004075*
X0026424Y0004055*
Y0004424*
G37*
G36*
X0027693Y0005924D02*
X0027324D01*
Y0005555*
X0027425Y0005575*
X0027573Y0005675*
X0027673Y0005823*
X0027693Y0005924*
G37*
G36*
X0012799Y0006918D02*
Y0006549D01*
X0013168*
X0013148Y000665*
X0013048Y0006798*
X00129Y0006898*
X0012799Y0006918*
G37*
G36*
X0014674D02*
X0014573Y0006898D01*
X0014425Y0006798*
X0014325Y000665*
X0014305Y0006549*
X0014674*
Y0006918*
G37*
G36*
X0014824D02*
Y0006549D01*
X0015193*
X0015173Y000665*
X0015073Y0006798*
X0014925Y0006898*
X0014824Y0006918*
G37*
G36*
X0012649D02*
X0012548Y0006898D01*
X00124Y0006798*
X00123Y000665*
X001228Y0006549*
X0012649*
Y0006918*
G37*
G36*
X0020993Y0006699D02*
X0020624D01*
Y000633*
X0020725Y000635*
X0020873Y000645*
X0020973Y0006598*
X0020993Y0006699*
G37*
G36*
X0021574D02*
X0021205D01*
X0021225Y0006598*
X0021325Y000645*
X0021473Y000635*
X0021574Y000633*
Y0006699*
G37*
G36*
X0022093D02*
X0021724D01*
Y000633*
X0021825Y000635*
X0021973Y000645*
X0022073Y0006598*
X0022093Y0006699*
G37*
G36*
X0000924Y0007424D02*
X0000555D01*
X0000575Y0007323*
X0000675Y0007175*
X0000823Y0007075*
X0000924Y0007055*
Y0007424*
G37*
G36*
X0001443D02*
X0001074D01*
Y0007055*
X0001175Y0007075*
X0001323Y0007175*
X0001423Y0007323*
X0001443Y0007424*
G37*
G36*
X0002424D02*
X0002055D01*
X0002075Y0007323*
X0002175Y0007175*
X0002323Y0007075*
X0002424Y0007055*
Y0007424*
G37*
G36*
X0021724Y0007218D02*
Y0006849D01*
X0022093*
X0022073Y000695*
X0021973Y0007098*
X0021825Y0007198*
X0021724Y0007218*
G37*
G36*
X0020474D02*
X0020373Y0007198D01*
X0020225Y0007098*
X0020125Y000695*
X0020105Y0006849*
X0020474*
Y0007218*
G37*
G36*
X0020624D02*
Y0006849D01*
X0020993*
X0020973Y000695*
X0020873Y0007098*
X0020725Y0007198*
X0020624Y0007218*
G37*
G36*
X0021574D02*
X0021473Y0007198D01*
X0021325Y0007098*
X0021225Y000695*
X0021205Y0006849*
X0021574*
Y0007218*
G37*
G36*
X0020474Y0006699D02*
X0020105D01*
X0020125Y0006598*
X0020225Y000645*
X0020373Y000635*
X0020474Y000633*
Y0006699*
G37*
G36*
X0012649Y0006399D02*
X001228D01*
X00123Y0006298*
X00124Y000615*
X0012548Y000605*
X0012649Y000603*
Y0006399*
G37*
G36*
X0013168D02*
X0012799D01*
Y000603*
X00129Y000605*
X0013048Y000615*
X0013148Y0006298*
X0013168Y0006399*
G37*
G36*
X0014674D02*
X0014305D01*
X0014325Y0006298*
X0014425Y000615*
X0014573Y000605*
X0014674Y000603*
Y0006399*
G37*
G36*
X0007618Y0006324D02*
X0007249D01*
Y0005955*
X000735Y0005975*
X0007498Y0006075*
X0007598Y0006223*
X0007618Y0006324*
G37*
G36*
X0028674Y0005924D02*
X0028305D01*
X0028325Y0005823*
X0028425Y0005675*
X0028573Y0005575*
X0028674Y0005555*
Y0005924*
G37*
G36*
X0029193D02*
X0028824D01*
Y0005555*
X0028925Y0005575*
X0029073Y0005675*
X0029173Y0005823*
X0029193Y0005924*
G37*
G36*
X0007099Y0006324D02*
X000673D01*
X000675Y0006223*
X000685Y0006075*
X0006998Y0005975*
X0007099Y0005955*
Y0006324*
G37*
G36*
X0027324Y0006443D02*
Y0006074D01*
X0027693*
X0027673Y0006175*
X0027573Y0006323*
X0027425Y0006423*
X0027324Y0006443*
G37*
G36*
X0028674D02*
X0028573Y0006423D01*
X0028425Y0006323*
X0028325Y0006175*
X0028305Y0006074*
X0028674*
Y0006443*
G37*
G36*
X0028824D02*
Y0006074D01*
X0029193*
X0029173Y0006175*
X0029073Y0006323*
X0028925Y0006423*
X0028824Y0006443*
G37*
G36*
X0027174D02*
X0027073Y0006423D01*
X0026925Y0006323*
X0026825Y0006175*
X0026805Y0006074*
X0027174*
Y0006443*
G37*
G36*
X0015193Y0006399D02*
X0014824D01*
Y000603*
X0014925Y000605*
X0015073Y000615*
X0015173Y0006298*
X0015193Y0006399*
G37*
G36*
X0025674Y0006443D02*
X0025573Y0006423D01*
X0025425Y0006323*
X0025325Y0006175*
X0025305Y0006074*
X0025674*
Y0006443*
G37*
G36*
X0025824D02*
Y0006074D01*
X0026193*
X0026173Y0006175*
X0026073Y0006323*
X0025925Y0006423*
X0025824Y0006443*
G37*
G36*
X0031443Y0001424D02*
X0031074D01*
Y0001055*
X0031175Y0001075*
X0031323Y0001175*
X0031423Y0001323*
X0031443Y0001424*
G37*
G36*
X0032424D02*
X0032055D01*
X0032075Y0001323*
X0032175Y0001175*
X0032323Y0001075*
X0032424Y0001055*
Y0001424*
G37*
G36*
X0032943D02*
X0032574D01*
Y0001055*
X0032675Y0001075*
X0032823Y0001175*
X0032923Y0001323*
X0032943Y0001424*
G37*
G36*
X0030924D02*
X0030555D01*
X0030575Y0001323*
X0030675Y0001175*
X0030823Y0001075*
X0030924Y0001055*
Y0001424*
G37*
G36*
X0028443D02*
X0028074D01*
Y0001055*
X0028175Y0001075*
X0028323Y0001175*
X0028423Y0001323*
X0028443Y0001424*
G37*
G36*
X0029424D02*
X0029055D01*
X0029075Y0001323*
X0029175Y0001175*
X0029323Y0001075*
X0029424Y0001055*
Y0001424*
G37*
G36*
X0029943D02*
X0029574D01*
Y0001055*
X0029675Y0001075*
X0029823Y0001175*
X0029923Y0001323*
X0029943Y0001424*
G37*
G36*
X0026424Y0001943D02*
X0026323Y0001923D01*
X0026175Y0001823*
X0026075Y0001675*
X0026055Y0001574*
X0026424*
Y0001943*
G37*
G36*
X0026574D02*
Y0001574D01*
X0026943*
X0026923Y0001675*
X0026823Y0001823*
X0026675Y0001923*
X0026574Y0001943*
G37*
G36*
X0027924D02*
X0027823Y0001923D01*
X0027675Y0001823*
X0027575Y0001675*
X0027555Y0001574*
X0027924*
Y0001943*
G37*
G36*
X0010749Y0002108D02*
X0010573Y0002073D01*
X0010425Y0001973*
X0010325Y0001825*
X001029Y0001649*
X0010325Y0001473*
X0010425Y0001325*
X0010573Y0001225*
X0010749Y000119*
X0010925Y0001225*
X0011073Y0001325*
X0011173Y0001473*
X0011208Y0001649*
X0011173Y0001825*
X0011073Y0001973*
X0010925Y0002073*
X0010749Y0002108*
G37*
G36*
X0033924Y0001424D02*
X0033555D01*
X0033575Y0001323*
X0033675Y0001175*
X0033823Y0001075*
X0033924Y0001055*
Y0001424*
G37*
G36*
X0034443D02*
X0034074D01*
Y0001055*
X0034175Y0001075*
X0034323Y0001175*
X0034423Y0001323*
X0034443Y0001424*
G37*
G36*
X0008793Y0001699D02*
X0007905D01*
X0007925Y0001598*
X0008025Y000145*
Y0001348*
X0007925Y00012*
X0007905Y0001099*
X0008793*
X0008773Y00012*
X0008673Y0001348*
Y000145*
X0008773Y0001598*
X0008793Y0001699*
G37*
G36*
X0027924Y0001424D02*
X0027555D01*
X0027575Y0001323*
X0027675Y0001175*
X0027823Y0001075*
X0027924Y0001055*
Y0001424*
G37*
G36*
X0008274Y0000949D02*
X0007905D01*
X0007925Y0000848*
X0008025Y00007*
X0008173Y00006*
X0008274Y000058*
Y0000949*
G37*
G36*
X0008793D02*
X0008424D01*
Y000058*
X0008525Y00006*
X0008673Y00007*
X0008773Y0000848*
X0008793Y0000949*
G37*
G36*
X0002599Y0001574D02*
X0000927D01*
X0000945Y000144*
X0001025Y0001246*
X0001153Y0001078*
X0001321Y000095*
X0001515Y000087*
X0001724Y0000842*
X0002599*
Y0001574*
G37*
G36*
X0005543Y0000724D02*
X0005174D01*
Y0000355*
X0005275Y0000375*
X0005423Y0000475*
X0005523Y0000623*
X0005543Y0000724*
G37*
G36*
X0012174D02*
X0011805D01*
X0011825Y0000623*
X0011925Y0000475*
X0012073Y0000375*
X0012174Y0000355*
Y0000724*
G37*
G36*
X0012693D02*
X0012324D01*
Y0000355*
X0012425Y0000375*
X0012573Y0000475*
X0012673Y0000623*
X0012693Y0000724*
G37*
G36*
X0005024D02*
X0004655D01*
X0004675Y0000623*
X0004775Y0000475*
X0004923Y0000375*
X0005024Y0000355*
Y0000724*
G37*
G36*
X0005174Y0001243D02*
Y0000874D01*
X0005543*
X0005523Y0000975*
X0005423Y0001123*
X0005275Y0001223*
X0005174Y0001243*
G37*
G36*
X0026424Y0001424D02*
X0026055D01*
X0026075Y0001323*
X0026175Y0001175*
X0026323Y0001075*
X0026424Y0001055*
Y0001424*
G37*
G36*
X0026943D02*
X0026574D01*
Y0001055*
X0026675Y0001075*
X0026823Y0001175*
X0026923Y0001323*
X0026943Y0001424*
G37*
G36*
X0005024Y0001243D02*
X0004923Y0001223D01*
X0004775Y0001123*
X0004675Y0000975*
X0004655Y0000874*
X0005024*
Y0001243*
G37*
G36*
X0004421Y0001574D02*
X0002749D01*
Y0000842*
X0003624*
X0003833Y000087*
X0004027Y000095*
X0004195Y0001078*
X0004323Y0001246*
X0004403Y000144*
X0004421Y0001574*
G37*
G36*
X0012174Y0001243D02*
X0012073Y0001223D01*
X0011925Y0001123*
X0011825Y0000975*
X0011805Y0000874*
X0012174*
Y0001243*
G37*
G36*
X0012324D02*
Y0000874D01*
X0012693*
X0012673Y0000975*
X0012573Y0001123*
X0012425Y0001223*
X0012324Y0001243*
G37*
G36*
X0028074Y0001943D02*
Y0001574D01*
X0028443*
X0028423Y0001675*
X0028323Y0001823*
X0028175Y0001923*
X0028074Y0001943*
G37*
G36*
X0028674Y0002924D02*
X0028305D01*
X0028325Y0002823*
X0028425Y0002675*
X0028573Y0002575*
X0028674Y0002555*
Y0002924*
G37*
G36*
X0029193D02*
X0028824D01*
Y0002555*
X0028925Y0002575*
X0029073Y0002675*
X0029173Y0002823*
X0029193Y0002924*
G37*
G36*
X0005274Y0008958D02*
X0005098Y0008923D01*
X000495Y0008823*
X000485Y0008675*
X0004815Y0008499*
X000485Y0008323*
X000495Y0008175*
X0005098Y0008075*
X0005262Y0008043*
X0005732Y0007572*
X0005745Y0007439*
X0005262Y0006955*
X0005098Y0006923*
X000495Y0006823*
X000485Y0006675*
X0004815Y0006499*
X000485Y0006323*
X000495Y0006175*
X0005098Y0006075*
X0005274Y000604*
X000545Y0006075*
X0005598Y0006175*
X0005698Y0006323*
X000573Y0006487*
X0006219Y0006975*
X0006995*
X000701Y0006825*
X0006998Y0006823*
X000685Y0006723*
X000675Y0006575*
X000673Y0006474*
X0007618*
X0007598Y0006575*
X0007498Y0006723*
X000735Y0006823*
X0007338Y0006825*
X0007353Y0006975*
X0008024*
X0012305Y0002694*
X0012231Y0002557*
X0012174Y0002568*
Y0002124*
Y000168*
X0012275Y00017*
X0012423Y00018*
X0012523Y0001948*
X0012525Y0001959*
X0012678*
X00127Y0001848*
X00128Y00017*
X0012948Y00016*
X0013124Y0001565*
X00133Y00016*
X0013448Y00017*
X0013548Y0001848*
X0013714Y0001915*
X0013773Y0001875*
X0013949Y000184*
X0014125Y0001875*
X0014273Y0001975*
X0014373Y0002123*
X0014408Y0002299*
X0014373Y0002475*
X0014273Y0002623*
X0014125Y0002723*
X0013961Y0002755*
X0008676Y0008041*
X0008568Y0008113*
X0008547Y0008117*
X0008442Y0008138*
X0006104*
X000573Y0008511*
X0005698Y0008675*
X0005598Y0008823*
X000545Y0008923*
X0005274Y0008958*
G37*
G36*
X0027693Y0002924D02*
X0027324D01*
Y0002555*
X0027425Y0002575*
X0027573Y0002675*
X0027673Y0002823*
X0027693Y0002924*
G37*
G36*
X0025674D02*
X0025305D01*
X0025325Y0002823*
X0025425Y0002675*
X0025573Y0002575*
X0025674Y0002555*
Y0002924*
G37*
G36*
X0026193D02*
X0025824D01*
Y0002555*
X0025925Y0002575*
X0026073Y0002675*
X0026173Y0002823*
X0026193Y0002924*
G37*
G36*
X0027174D02*
X0026805D01*
X0026825Y0002823*
X0026925Y0002675*
X0027073Y0002575*
X0027174Y0002555*
Y0002924*
G37*
G36*
X0025674Y0003443D02*
X0025573Y0003423D01*
X0025425Y0003323*
X0025325Y0003175*
X0025305Y0003074*
X0025674*
Y0003443*
G37*
G36*
X0025824D02*
Y0003074D01*
X0026193*
X0026173Y0003175*
X0026073Y0003323*
X0025925Y0003423*
X0025824Y0003443*
G37*
G36*
X0027174D02*
X0027073Y0003423D01*
X0026925Y0003323*
X0026825Y0003175*
X0026805Y0003074*
X0027174*
Y0003443*
G37*
G36*
X0003324D02*
Y0003074D01*
X0003693*
X0003673Y0003175*
X0003573Y0003323*
X0003425Y0003423*
X0003324Y0003443*
G37*
G36*
X0001674D02*
X0001573Y0003423D01*
X0001425Y0003323*
X0001325Y0003175*
X0001305Y0003074*
X0001674*
Y0003443*
G37*
G36*
X0001824D02*
Y0003074D01*
X0002193*
X0002173Y0003175*
X0002073Y0003323*
X0001925Y0003423*
X0001824Y0003443*
G37*
G36*
X0003174D02*
X0003073Y0003423D01*
X0002925Y0003323*
X0002825Y0003175*
X0002805Y0003074*
X0003174*
Y0003443*
G37*
G36*
X0012024Y0002568D02*
X0011923Y0002548D01*
X0011775Y0002448*
X0011675Y00023*
X0011655Y0002199*
X0012024*
Y0002568*
G37*
G36*
X0032424Y0001943D02*
X0032323Y0001923D01*
X0032175Y0001823*
X0032075Y0001675*
X0032055Y0001574*
X0032424*
Y0001943*
G37*
G36*
X0032574D02*
Y0001574D01*
X0032943*
X0032923Y0001675*
X0032823Y0001823*
X0032675Y0001923*
X0032574Y0001943*
G37*
G36*
X0033924D02*
X0033823Y0001923D01*
X0033675Y0001823*
X0033575Y0001675*
X0033555Y0001574*
X0033924*
Y0001943*
G37*
G36*
X0031074D02*
Y0001574D01*
X0031443*
X0031423Y0001675*
X0031323Y0001823*
X0031175Y0001923*
X0031074Y0001943*
G37*
G36*
X0029424D02*
X0029323Y0001923D01*
X0029175Y0001823*
X0029075Y0001675*
X0029055Y0001574*
X0029424*
Y0001943*
G37*
G36*
X0029574D02*
Y0001574D01*
X0029943*
X0029923Y0001675*
X0029823Y0001823*
X0029675Y0001923*
X0029574Y0001943*
G37*
G36*
X0030924D02*
X0030823Y0001923D01*
X0030675Y0001823*
X0030575Y0001675*
X0030555Y0001574*
X0030924*
Y0001943*
G37*
G36*
X0008274Y0002218D02*
X0008173Y0002198D01*
X0008025Y0002098*
X0007925Y000195*
X0007905Y0001849*
X0008274*
Y0002218*
G37*
G36*
X0008424D02*
Y0001849D01*
X0008793*
X0008773Y000195*
X0008673Y0002098*
X0008525Y0002198*
X0008424Y0002218*
G37*
G36*
X0032174Y0003233D02*
X0029559D01*
Y0002142*
X0032174*
Y0003233*
G37*
G36*
X0003693Y0002924D02*
X0002805D01*
X0002825Y0002823*
X0002925Y0002675*
X0003027Y0002606*
X0002982Y0002456*
X0002749*
Y0001724*
X0004421*
X0004403Y0001858*
X0004323Y0002052*
X0004195Y000222*
X0004027Y0002348*
X0003833Y0002428*
X0003624Y0002456*
X0003516*
X0003471Y0002606*
X0003573Y0002675*
X0003673Y0002823*
X0003693Y0002924*
G37*
G36*
X0034074Y0001943D02*
Y0001574D01*
X0034443*
X0034423Y0001675*
X0034323Y0001823*
X0034175Y0001923*
X0034074Y0001943*
G37*
G36*
X0012024Y0002049D02*
X0011655D01*
X0011675Y0001948*
X0011775Y00018*
X0011923Y00017*
X0012024Y000168*
Y0002049*
G37*
G36*
X0002193Y0002924D02*
X0001305D01*
X0001325Y0002823*
X0001425Y0002675*
X0001558Y0002585*
X0001561Y0002525*
X0001539Y0002432*
X0001515Y0002428*
X0001321Y0002348*
X0001153Y000222*
X0001025Y0002052*
X0000945Y0001858*
X0000927Y0001724*
X0002599*
Y0002456*
X0002016*
X0001971Y0002606*
X0002073Y0002675*
X0002173Y0002823*
X0002193Y0002924*
G37*
G36*
X0005943Y0013424D02*
X0005574D01*
Y0013055*
X0005675Y0013075*
X0005823Y0013175*
X0005923Y0013323*
X0005943Y0013424*
G37*
G36*
X0024924D02*
X0024555D01*
X0024575Y0013323*
X0024675Y0013175*
X0024823Y0013075*
X0024924Y0013055*
Y0013424*
G37*
G36*
X0025443D02*
X0025074D01*
Y0013055*
X0025175Y0013075*
X0025323Y0013175*
X0025423Y0013323*
X0025443Y0013424*
G37*
G36*
X0005424D02*
X0005055D01*
X0005075Y0013323*
X0005175Y0013175*
X0005323Y0013075*
X0005424Y0013055*
Y0013424*
G37*
G36*
X0014943Y0012549D02*
X0014574D01*
Y001218*
X0014675Y00122*
X0014823Y00123*
X0014923Y0012448*
X0014943Y0012549*
G37*
G36*
X0021424Y0013174D02*
X0021055D01*
X0021075Y0013073*
X0021175Y0012925*
X0021323Y0012825*
X0021424Y0012805*
Y0013174*
G37*
G36*
X0021943D02*
X0021574D01*
Y0012805*
X0021675Y0012825*
X0021823Y0012925*
X0021923Y0013073*
X0021943Y0013174*
G37*
G36*
X0029424Y0013424D02*
X0029055D01*
X0029075Y0013323*
X0029175Y0013175*
X0029323Y0013075*
X0029424Y0013055*
Y0013424*
G37*
G36*
X0029943D02*
X0029574D01*
Y0013055*
X0029675Y0013075*
X0029823Y0013175*
X0029923Y0013323*
X0029943Y0013424*
G37*
G36*
X0030924D02*
X0030555D01*
X0030575Y0013323*
X0030675Y0013175*
X0030823Y0013075*
X0030924Y0013055*
Y0013424*
G37*
G36*
X0028443D02*
X0028074D01*
Y0013055*
X0028175Y0013075*
X0028323Y0013175*
X0028423Y0013323*
X0028443Y0013424*
G37*
G36*
X0026424D02*
X0026055D01*
X0026075Y0013323*
X0026175Y0013175*
X0026323Y0013075*
X0026424Y0013055*
Y0013424*
G37*
G36*
X0026943D02*
X0026574D01*
Y0013055*
X0026675Y0013075*
X0026823Y0013175*
X0026923Y0013323*
X0026943Y0013424*
G37*
G36*
X0027924D02*
X0027555D01*
X0027575Y0013323*
X0027675Y0013175*
X0027823Y0013075*
X0027924Y0013055*
Y0013424*
G37*
G36*
X0014424Y0012549D02*
X0014055D01*
X0014075Y0012448*
X0014175Y00123*
X0014323Y00122*
X0014424Y001218*
Y0012549*
G37*
G36*
X0002599Y0013274D02*
X0000927D01*
X0000945Y001314*
X0001025Y0012946*
X0001153Y0012778*
X0001321Y001265*
X0001515Y001257*
X0001539Y0012566*
X0001561Y0012472*
X0001558Y0012413*
X0001425Y0012323*
X0001325Y0012175*
X0001305Y0012074*
X0002193*
X0002173Y0012175*
X0002073Y0012323*
X0001971Y0012392*
X0002016Y0012542*
X0002599*
Y0013274*
G37*
G36*
X0004421D02*
X0002749D01*
Y0012542*
X0002982*
X0003027Y0012392*
X0002925Y0012323*
X0002825Y0012175*
X0002805Y0012074*
X0003693*
X0003673Y0012175*
X0003573Y0012323*
X0003471Y0012392*
X0003516Y0012542*
X0003624*
X0003833Y001257*
X0004027Y001265*
X0004195Y0012778*
X0004323Y0012946*
X0004403Y001314*
X0004421Y0013274*
G37*
G36*
X0024174Y0012443D02*
X0024073Y0012423D01*
X0023925Y0012323*
X0023825Y0012175*
X0023805Y0012074*
X0024174*
Y0012443*
G37*
G36*
X0032174Y0012856D02*
X0029559D01*
Y0011765*
X0032174*
Y0012856*
G37*
G36*
X0028674Y0011924D02*
X0028305D01*
X0028325Y0011823*
X0028425Y0011675*
X0028573Y0011575*
X0028674Y0011555*
Y0011924*
G37*
G36*
X0029193D02*
X0028824D01*
Y0011555*
X0028925Y0011575*
X0029073Y0011675*
X0029173Y0011823*
X0029193Y0011924*
G37*
G36*
X0022874Y0012658D02*
X0022698Y0012623D01*
X002255Y0012523*
X002245Y0012375*
X0022415Y0012199*
X002245Y0012023*
X002255Y0011875*
X0022698Y0011775*
X0022874Y001174*
X002305Y0011775*
X0023198Y0011875*
X0023298Y0012023*
X0023333Y0012199*
X0023298Y0012375*
X0023198Y0012523*
X002305Y0012623*
X0022874Y0012658*
G37*
G36*
X0027324Y0012443D02*
Y0012074D01*
X0027693*
X0027673Y0012175*
X0027573Y0012323*
X0027425Y0012423*
X0027324Y0012443*
G37*
G36*
X0028674D02*
X0028573Y0012423D01*
X0028425Y0012323*
X0028325Y0012175*
X0028305Y0012074*
X0028674*
Y0012443*
G37*
G36*
X0028824D02*
Y0012074D01*
X0029193*
X0029173Y0012175*
X0029073Y0012323*
X0028925Y0012423*
X0028824Y0012443*
G37*
G36*
X0027174D02*
X0027073Y0012423D01*
X0026925Y0012323*
X0026825Y0012175*
X0026805Y0012074*
X0027174*
Y0012443*
G37*
G36*
X0024324D02*
Y0012074D01*
X0024693*
X0024673Y0012175*
X0024573Y0012323*
X0024425Y0012423*
X0024324Y0012443*
G37*
G36*
X0025674D02*
X0025573Y0012423D01*
X0025425Y0012323*
X0025325Y0012175*
X0025305Y0012074*
X0025674*
Y0012443*
G37*
G36*
X0025824D02*
Y0012074D01*
X0026193*
X0026173Y0012175*
X0026073Y0012323*
X0025925Y0012423*
X0025824Y0012443*
G37*
G36*
X0031443Y0013424D02*
X0031074D01*
Y0013055*
X0031175Y0013075*
X0031323Y0013175*
X0031423Y0013323*
X0031443Y0013424*
G37*
G36*
X0031074Y0013943D02*
Y0013574D01*
X0031443*
X0031423Y0013675*
X0031323Y0013823*
X0031175Y0013923*
X0031074Y0013943*
G37*
G36*
X0032424D02*
X0032323Y0013923D01*
X0032175Y0013823*
X0032075Y0013675*
X0032055Y0013574*
X0032424*
Y0013943*
G37*
G36*
X0032574D02*
Y0013574D01*
X0032943*
X0032923Y0013675*
X0032823Y0013823*
X0032675Y0013923*
X0032574Y0013943*
G37*
G36*
X0030924D02*
X0030823Y0013923D01*
X0030675Y0013823*
X0030575Y0013675*
X0030555Y0013574*
X0030924*
Y0013943*
G37*
G36*
X0028074D02*
Y0013574D01*
X0028443*
X0028423Y0013675*
X0028323Y0013823*
X0028175Y0013923*
X0028074Y0013943*
G37*
G36*
X0029424D02*
X0029323Y0013923D01*
X0029175Y0013823*
X0029075Y0013675*
X0029055Y0013574*
X0029424*
Y0013943*
G37*
G36*
X0029574D02*
Y0013574D01*
X0029943*
X0029923Y0013675*
X0029823Y0013823*
X0029675Y0013923*
X0029574Y0013943*
G37*
G36*
X0016839Y0014468D02*
X0016663Y0014433D01*
X0016515Y0014333*
X0016415Y0014185*
X001638Y0014009*
X0016406Y0013881*
X001631Y0013741*
X0016195Y0013727*
X0015976Y0013946*
X0015902Y0013996*
X0015814Y0014013*
X0010513*
X0010425Y0013996*
X0010351Y0013946*
X0010078Y0013673*
X000998Y0013753*
X0009969Y0013763*
X0009963Y0013767*
X0009962Y0013769*
X0010012Y0013845*
X0010014Y0013848*
X0010048Y0013898*
X0010068Y0013999*
X0009699*
Y001363*
X00098Y001365*
X000985Y0013684*
X0009853Y0013686*
X0009929Y0013736*
X0009931Y0013735*
X0009935Y0013729*
X0009945Y0013718*
X0010025Y001362*
X0006787Y0010382*
X0006782Y0010375*
X0006773Y0010373*
X0006625Y0010273*
X0006525Y0010125*
X000649Y0009949*
X0006525Y0009773*
X0006625Y0009625*
X0006773Y0009525*
X0006883Y0009503*
X0006987Y0009422*
X0007024Y0009352*
X000705Y0009223*
X000715Y0009075*
X0007298Y0008975*
X0007408Y0008953*
X0007512Y0008872*
X0007549Y0008802*
X0007575Y0008673*
X0007675Y0008525*
X0007823Y0008425*
X0007999Y000839*
X0008175Y0008425*
X0008323Y0008525*
X0008423Y0008673*
X0008458Y0008849*
X0008423Y0009025*
X0008323Y0009173*
X0008228Y0009237*
Y0010326*
X0010409Y0012507*
X0010572Y0012458*
X0010655Y0012335*
X0010803Y0012235*
X0010979Y00122*
X0011155Y0012235*
X0011303Y0012335*
X0011403Y0012483*
X0011438Y0012659*
X0011409Y0012805*
X0011489Y0012955*
X0013998*
X0014078Y0012805*
X0014075Y00128*
X0014055Y0012699*
X0014943*
X0014923Y00128*
X0014919Y0012805*
X0015Y0012955*
X0015152*
X0015715Y0012392*
X0015641Y0012253*
X0015619Y0012258*
X0015443Y0012223*
X0015295Y0012123*
X0015195Y0011975*
X001516Y0011799*
X0015195Y0011623*
X0015295Y0011475*
X0015443Y0011375*
X0015619Y001134*
X0015795Y0011375*
X0015943Y0011475*
X0016043Y0011623*
X0016078Y0011799*
X0016073Y0011821*
X0016212Y0011895*
X0016315Y0011792*
X0016389Y0011742*
X0016404Y0011739*
X0016477Y0011725*
X0017056*
X0017144Y0011742*
X0017219Y0011792*
X0017526Y0012099*
X0017576Y0012174*
X0017593Y0012262*
Y0013484*
X0017576Y0013572*
X0017526Y0013646*
X0017276Y0013897*
X0017298Y0014009*
X0017263Y0014185*
X0017163Y0014333*
X0017015Y0014433*
X0016839Y0014468*
G37*
G36*
X0009549Y0014518D02*
X0009448Y0014498D01*
X00093Y0014398*
X00092Y001425*
X000918Y0014149*
X0009549*
Y0014518*
G37*
G36*
X0009699D02*
Y0014149D01*
X0010068*
X0010048Y001425*
X0009948Y0014398*
X00098Y0014498*
X0009699Y0014518*
G37*
G36*
X0006974Y0014558D02*
X0006798Y0014523D01*
X000665Y0014423*
X000655Y0014275*
X0006515Y0014099*
X000655Y0013923*
X000665Y0013775*
X0006798Y0013675*
X0006974Y001364*
X000715Y0013675*
X0007298Y0013775*
X0007398Y0013923*
X0007433Y0014099*
X0007398Y0014275*
X0007298Y0014423*
X000715Y0014523*
X0006974Y0014558*
G37*
G36*
X0033924Y0013943D02*
X0033823Y0013923D01*
X0033675Y0013823*
X0033575Y0013675*
X0033555Y0013574*
X0033924*
Y0013943*
G37*
G36*
X0034074D02*
Y0013574D01*
X0034443*
X0034423Y0013675*
X0034323Y0013823*
X0034175Y0013923*
X0034074Y0013943*
G37*
G36*
X0009549Y0013999D02*
X000918D01*
X00092Y0013898*
X00093Y001375*
X0009448Y001365*
X0009549Y001363*
Y0013999*
G37*
G36*
X0027924Y0013943D02*
X0027823Y0013923D01*
X0027675Y0013823*
X0027575Y0013675*
X0027555Y0013574*
X0027924*
Y0013943*
G37*
G36*
X0021424Y0013693D02*
X0021323Y0013673D01*
X0021175Y0013573*
X0021075Y0013425*
X0021055Y0013324*
X0021424*
Y0013693*
G37*
G36*
X0021574D02*
Y0013324D01*
X0021943*
X0021923Y0013425*
X0021823Y0013573*
X0021675Y0013673*
X0021574Y0013693*
G37*
G36*
X0002599Y0014156D02*
X0001724D01*
X0001515Y0014128*
X0001321Y0014048*
X0001153Y001392*
X0001025Y0013752*
X0000945Y0013558*
X0000927Y0013424*
X0002599*
Y0014156*
G37*
G36*
X0034443Y0013424D02*
X0034074D01*
Y0013055*
X0034175Y0013075*
X0034323Y0013175*
X0034423Y0013323*
X0034443Y0013424*
G37*
G36*
X0032424D02*
X0032055D01*
X0032075Y0013323*
X0032175Y0013175*
X0032323Y0013075*
X0032424Y0013055*
Y0013424*
G37*
G36*
X0032943D02*
X0032574D01*
Y0013055*
X0032675Y0013075*
X0032823Y0013175*
X0032923Y0013323*
X0032943Y0013424*
G37*
G36*
X0033924D02*
X0033555D01*
X0033575Y0013323*
X0033675Y0013175*
X0033823Y0013075*
X0033924Y0013055*
Y0013424*
G37*
G36*
X0025074Y0013943D02*
Y0013574D01*
X0025443*
X0025423Y0013675*
X0025323Y0013823*
X0025175Y0013923*
X0025074Y0013943*
G37*
G36*
X0026424D02*
X0026323Y0013923D01*
X0026175Y0013823*
X0026075Y0013675*
X0026055Y0013574*
X0026424*
Y0013943*
G37*
G36*
X0026574D02*
Y0013574D01*
X0026943*
X0026923Y0013675*
X0026823Y0013823*
X0026675Y0013923*
X0026574Y0013943*
G37*
G36*
X0024924D02*
X0024823Y0013923D01*
X0024675Y0013823*
X0024575Y0013675*
X0024555Y0013574*
X0024924*
Y0013943*
G37*
G36*
X0003624Y0014156D02*
X0002749D01*
Y0013424*
X0004421*
X0004403Y0013558*
X0004323Y0013752*
X0004195Y001392*
X0004027Y0014048*
X0003833Y0014128*
X0003624Y0014156*
G37*
G36*
X0005424Y0013943D02*
X0005323Y0013923D01*
X0005175Y0013823*
X0005075Y0013675*
X0005055Y0013574*
X0005424*
Y0013943*
G37*
G36*
X0005574D02*
Y0013574D01*
X0005943*
X0005923Y0013675*
X0005823Y0013823*
X0005675Y0013923*
X0005574Y0013943*
G37*
G36*
X0027693Y0011924D02*
X0027324D01*
Y0011555*
X0027425Y0011575*
X0027573Y0011675*
X0027673Y0011823*
X0027693Y0011924*
G37*
G36*
X0015193Y0008399D02*
X0014824D01*
Y000803*
X0014925Y000805*
X0015073Y000815*
X0015173Y0008298*
X0015193Y0008399*
G37*
G36*
X0010649Y0008918D02*
X0010548Y0008898D01*
X00104Y0008798*
X00103Y000865*
X001028Y0008549*
X0010649*
Y0008918*
G37*
G36*
X0010799D02*
Y0008549D01*
X0011168*
X0011148Y000865*
X0011048Y0008798*
X00109Y0008898*
X0010799Y0008918*
G37*
G36*
X0014674Y0008399D02*
X0014305D01*
X0014325Y0008298*
X0014425Y000815*
X0014573Y000805*
X0014674Y000803*
Y0008399*
G37*
G36*
X0011168D02*
X0010799D01*
Y000803*
X00109Y000805*
X0011048Y000815*
X0011148Y0008298*
X0011168Y0008399*
G37*
G36*
X0012649D02*
X001228D01*
X00123Y0008298*
X00124Y000815*
X0012548Y000805*
X0012649Y000803*
Y0008399*
G37*
G36*
X0013168D02*
X0012799D01*
Y000803*
X00129Y000805*
X0013048Y000815*
X0013148Y0008298*
X0013168Y0008399*
G37*
G36*
X0002674Y0010514D02*
X0002381Y0010456D01*
X0002133Y001029*
X0001968Y0010042*
X0001909Y0009749*
X0001968Y0009456*
X0002133Y0009208*
X0002381Y0009043*
X0002674Y0008984*
X0002967Y0009043*
X0003215Y0009208*
X000338Y0009456*
X0003439Y0009749*
X000338Y0010042*
X0003215Y001029*
X0002967Y0010456*
X0002674Y0010514*
G37*
G36*
X0017594Y0009764D02*
X0017225D01*
X0017245Y0009663*
X0017345Y0009515*
X0017493Y0009415*
X0017594Y0009395*
Y0009764*
G37*
G36*
X0018113D02*
X0017744D01*
Y0009395*
X0017845Y0009415*
X0017993Y0009515*
X0018093Y0009663*
X0018113Y0009764*
G37*
G36*
X0014824Y0008918D02*
Y0008549D01*
X0015193*
X0015173Y000865*
X0015073Y0008798*
X0014925Y0008898*
X0014824Y0008918*
G37*
G36*
X0012649D02*
X0012548Y0008898D01*
X00124Y0008798*
X00123Y000865*
X001228Y0008549*
X0012649*
Y0008918*
G37*
G36*
X0012799D02*
Y0008549D01*
X0013168*
X0013148Y000865*
X0013048Y0008798*
X00129Y0008898*
X0012799Y0008918*
G37*
G36*
X0014674D02*
X0014573Y0008898D01*
X0014425Y0008798*
X0014325Y000865*
X0014305Y0008549*
X0014674*
Y0008918*
G37*
G36*
X0010649Y0008399D02*
X001028D01*
X00103Y0008298*
X00104Y000815*
X0010548Y000805*
X0010649Y000803*
Y0008399*
G37*
G36*
X0022093Y0007799D02*
X0021724D01*
Y000743*
X0021825Y000745*
X0021973Y000755*
X0022073Y0007698*
X0022093Y0007799*
G37*
G36*
X0000924Y0007943D02*
X0000823Y0007923D01*
X0000675Y0007823*
X0000575Y0007675*
X0000555Y0007574*
X0000924*
Y0007943*
G37*
G36*
X0001074D02*
Y0007574D01*
X0001443*
X0001423Y0007675*
X0001323Y0007823*
X0001175Y0007923*
X0001074Y0007943*
G37*
G36*
X0021574Y0007799D02*
X0021205D01*
X0021225Y0007698*
X0021325Y000755*
X0021473Y000745*
X0021574Y000743*
Y0007799*
G37*
G36*
X0002943Y0007424D02*
X0002574D01*
Y0007055*
X0002675Y0007075*
X0002823Y0007175*
X0002923Y0007323*
X0002943Y0007424*
G37*
G36*
X0020474Y0007799D02*
X0020105D01*
X0020125Y0007698*
X0020225Y000755*
X0020373Y000745*
X0020474Y000743*
Y0007799*
G37*
G36*
X0020993D02*
X0020624D01*
Y000743*
X0020725Y000745*
X0020873Y000755*
X0020973Y0007698*
X0020993Y0007799*
G37*
G36*
X0020624Y0008318D02*
Y0007949D01*
X0020993*
X0020973Y000805*
X0020873Y0008198*
X0020725Y0008298*
X0020624Y0008318*
G37*
G36*
X0021574D02*
X0021473Y0008298D01*
X0021325Y0008198*
X0021225Y000805*
X0021205Y0007949*
X0021574*
Y0008318*
G37*
G36*
X0021724D02*
Y0007949D01*
X0022093*
X0022073Y000805*
X0021973Y0008198*
X0021825Y0008298*
X0021724Y0008318*
G37*
G36*
X0020474D02*
X0020373Y0008298D01*
X0020225Y0008198*
X0020125Y000805*
X0020105Y0007949*
X0020474*
Y0008318*
G37*
G36*
X0002424Y0007943D02*
X0002323Y0007923D01*
X0002175Y0007823*
X0002075Y0007675*
X0002055Y0007574*
X0002424*
Y0007943*
G37*
G36*
X0002574D02*
Y0007574D01*
X0002943*
X0002923Y0007675*
X0002823Y0007823*
X0002675Y0007923*
X0002574Y0007943*
G37*
G36*
X0018249Y0009328D02*
X0018073Y0009293D01*
X0017925Y0009193*
X0017825Y0009045*
X001779Y0008869*
X0017825Y0008693*
X0017925Y0008545*
X0018073Y0008445*
X0018249Y000841*
X0018319Y0008424*
X0018575Y0008169*
Y000786*
X0018425Y000778*
X0018405Y0007793*
X0018229Y0007828*
X0018126Y000796*
X0018103Y0008075*
X0018003Y0008223*
X0017855Y0008323*
X0017679Y0008358*
X0017503Y0008323*
X0017355Y0008223*
X0017255Y0008075*
X001722Y0007899*
X0017255Y0007723*
X0017355Y0007575*
X0017445Y0007514*
Y0007334*
X0017295Y0007254*
X0017149Y0007283*
X0016973Y0007248*
X0016825Y0007148*
X0016725Y0007*
X001669Y0006824*
X0016725Y0006648*
X0016825Y00065*
X001691Y0006443*
Y0004876*
X0016752Y0004719*
X0016702Y0004644*
X0016685Y0004556*
Y0004084*
X001668Y0004059*
X0016697Y0003971*
X0016747Y0003897*
X0016881Y0003762*
X0016858Y0003683*
X0016818Y0003614*
X0016663Y0003583*
X0016515Y0003483*
X0016415Y0003335*
X001638Y0003159*
X0016415Y0002983*
X0016515Y0002835*
X0016663Y0002735*
X0016839Y00027*
X0017015Y0002735*
X0017163Y0002835*
X0017263Y0002983*
X0017298Y0003159*
X0017263Y0003335*
X0017196Y0003435*
X0017261Y0003583*
X0017262Y0003585*
X0017656*
X0017744Y0003602*
X0017819Y0003652*
X0017934Y0003767*
X0018096Y0003717*
X0018105Y0003673*
X0018205Y0003525*
X0018353Y0003425*
X0018529Y000339*
X0018705Y0003425*
X0018853Y0003525*
X0019027Y0003521*
X0019216Y0003332*
X0019163Y0003173*
X001898Y0003136*
X0018765Y0002993*
X0018622Y0002778*
X0018571Y0002524*
X0018622Y000227*
X0018765Y0002055*
X0018955Y0001928*
X0018944Y0001814*
X001893Y0001778*
X0017812*
X0017748Y0001873*
X00176Y0001973*
X0017424Y0002008*
X0017248Y0001973*
X00171Y0001873*
X0017Y0001725*
X0016965Y0001549*
X0017Y0001373*
X00171Y0001225*
X0017248Y0001125*
X0017424Y000109*
X0017478Y0001101*
X0017615Y0001024*
X001765Y0000848*
X001775Y00007*
X0017898Y00006*
X0018074Y0000565*
X001825Y00006*
X0018398Y00007*
X0018462Y0000795*
X0020882*
X0020969Y0000812*
X0021044Y0000862*
X0021555Y0001374*
X0021559Y0001371*
X0021774Y0001328*
X0021989Y0001371*
X002217Y0001492*
X0022292Y0001674*
X0022335Y0001889*
X0022483*
X0022526Y0001674*
X0022647Y0001492*
X0022829Y0001371*
X0023044Y0001328*
X0023259Y0001371*
X002344Y0001492*
X0023518Y0001609*
X002366Y0001551*
X0023651Y0001508*
X0023702Y0001254*
X0023845Y0001039*
X002406Y0000896*
X0024314Y0000845*
X0024568Y0000896*
X0024783Y0001039*
X0024926Y0001254*
X0024977Y0001508*
X0024926Y0001762*
X0024783Y0001977*
X0024568Y000212*
X0024314Y0002171*
X002406Y000212*
X0023845Y0001977*
X0023745Y0001827*
X0023604Y0001885*
X0023605Y0001889*
X0023562Y0002104*
X002344Y0002286*
X0023259Y0002407*
X0023044Y000245*
Y0002598*
X0023259Y0002641*
X002344Y0002762*
X0023562Y0002944*
X0023605Y0003159*
X0023604Y0003163*
X0023745Y0003221*
X0023845Y0003071*
X002406Y0002928*
X0024314Y0002877*
X0024568Y0002928*
X0024783Y0003071*
X0024926Y0003286*
X0024977Y000354*
X0024926Y0003794*
X0024783Y0004009*
X0024568Y0004152*
X0024314Y0004203*
X002406Y0004152*
X0023845Y0004009*
X0023702Y0003794*
X0023651Y000354*
X002366Y0003497*
X0023518Y0003439*
X002344Y0003556*
X0023259Y0003677*
X0023119Y0003705*
Y0003159*
X0022969*
Y0003705*
X0022829Y0003677*
X0022647Y0003556*
X0022526Y0003374*
X0022483Y0003159*
X0022335*
X0022292Y0003374*
X002217Y0003556*
X0021989Y0003677*
X0021774Y000372*
X0021577Y0003681*
X0021076Y0004181*
X0021002Y0004231*
X0020914Y0004248*
X0019604*
X0019033Y0004819*
Y0008264*
X0019019Y0008337*
X0019016Y0008352*
X0018966Y0008426*
X0018677Y0008715*
X0018708Y0008869*
X0018673Y0009045*
X0018573Y0009193*
X0018425Y0009293*
X0018249Y0009328*
G37*
G36*
X0012424Y0011258D02*
X0012248Y0011223D01*
X00121Y0011123*
X0012Y0010975*
X0011965Y0010799*
X0012Y0010623*
X00121Y0010475*
X0012248Y0010375*
X0012424Y001034*
X00126Y0010375*
X0012748Y0010475*
X0012812Y001057*
X0018334*
X0018556Y0010348*
X001855Y0010319*
X0018585Y0010143*
X0018685Y0009995*
X0018833Y0009895*
X0019009Y000986*
X0019185Y0009895*
X0019333Y0009995*
X0019433Y0010143*
X0019468Y0010319*
X0019433Y0010495*
X0019333Y0010643*
X0019185Y0010743*
X0019009Y0010778*
X0018833Y0010743*
X0018819Y0010733*
X0018591Y0010961*
X0018517Y0011011*
X0018429Y0011028*
X0012812*
X0012748Y0011123*
X00126Y0011223*
X0012424Y0011258*
G37*
G36*
X0023574Y0011318D02*
Y0010949D01*
X0023943*
X0023923Y001105*
X0023823Y0011198*
X0023675Y0011298*
X0023574Y0011318*
G37*
G36*
X0001674Y0011924D02*
X0001305D01*
X0001325Y0011823*
X0001425Y0011675*
X0001573Y0011575*
X0001674Y0011555*
Y0011924*
G37*
G36*
X0002193D02*
X0001824D01*
Y0011555*
X0001925Y0011575*
X0002073Y0011675*
X0002173Y0011823*
X0002193Y0011924*
G37*
G36*
X0023424Y0011318D02*
X0023323Y0011298D01*
X0023175Y0011198*
X0023075Y001105*
X0023055Y0010949*
X0023424*
Y0011318*
G37*
G36*
X0026574Y0010943D02*
Y0010574D01*
X0026943*
X0026923Y0010675*
X0026823Y0010823*
X0026675Y0010923*
X0026574Y0010943*
G37*
G36*
X0027924D02*
X0027823Y0010923D01*
X0027675Y0010823*
X0027575Y0010675*
X0027555Y0010574*
X0027924*
Y0010943*
G37*
G36*
X0028074D02*
Y0010574D01*
X0028443*
X0028423Y0010675*
X0028323Y0010823*
X0028175Y0010923*
X0028074Y0010943*
G37*
G36*
X0025674Y0011924D02*
X0025305D01*
X0025325Y0011823*
X0025425Y0011675*
X0025573Y0011575*
X0025674Y0011555*
Y0011924*
G37*
G36*
X0026193D02*
X0025824D01*
Y0011555*
X0025925Y0011575*
X0026073Y0011675*
X0026173Y0011823*
X0026193Y0011924*
G37*
G36*
X0027174D02*
X0026805D01*
X0026825Y0011823*
X0026925Y0011675*
X0027073Y0011575*
X0027174Y0011555*
Y0011924*
G37*
G36*
X0024693D02*
X0024324D01*
Y0011555*
X0024425Y0011575*
X0024573Y0011675*
X0024673Y0011823*
X0024693Y0011924*
G37*
G36*
X0003174D02*
X0002805D01*
X0002825Y0011823*
X0002925Y0011675*
X0003073Y0011575*
X0003174Y0011555*
Y0011924*
G37*
G36*
X0003693D02*
X0003324D01*
Y0011555*
X0003425Y0011575*
X0003573Y0011675*
X0003673Y0011823*
X0003693Y0011924*
G37*
G36*
X0024174D02*
X0023805D01*
X0023825Y0011823*
X0023925Y0011675*
X0024073Y0011575*
X0024174Y0011555*
Y0011924*
G37*
G36*
X0026424Y0010943D02*
X0026323Y0010923D01*
X0026175Y0010823*
X0026075Y0010675*
X0026055Y0010574*
X0026424*
Y0010943*
G37*
G36*
X0001443Y0010424D02*
X0001074D01*
Y0010055*
X0001175Y0010075*
X0001323Y0010175*
X0001423Y0010323*
X0001443Y0010424*
G37*
G36*
X0026424D02*
X0026055D01*
X0026075Y0010323*
X0026175Y0010175*
X0026323Y0010075*
X0026424Y0010055*
Y0010424*
G37*
G36*
X0026943D02*
X0026574D01*
Y0010055*
X0026675Y0010075*
X0026823Y0010175*
X0026923Y0010323*
X0026943Y0010424*
G37*
G36*
X0000924D02*
X0000555D01*
X0000575Y0010323*
X0000675Y0010175*
X0000823Y0010075*
X0000924Y0010055*
Y0010424*
G37*
G36*
X0017594Y0010283D02*
X0017493Y0010263D01*
X0017345Y0010163*
X0017245Y0010015*
X0017225Y0009914*
X0017594*
Y0010283*
G37*
G36*
X0017744D02*
Y0009914D01*
X0018113*
X0018093Y0010015*
X0017993Y0010163*
X0017845Y0010263*
X0017744Y0010283*
G37*
G36*
X0024499Y0010958D02*
X0024323Y0010923D01*
X0024175Y0010823*
X0024075Y0010675*
X002404Y0010499*
X0024075Y0010323*
X0024175Y0010175*
X0024323Y0010075*
X0024499Y001004*
X0024675Y0010075*
X0024823Y0010175*
X0024923Y0010323*
X0024958Y0010499*
X0024923Y0010675*
X0024823Y0010823*
X0024675Y0010923*
X0024499Y0010958*
G37*
G36*
X0032174Y0011615D02*
X0029559D01*
Y0010524*
X0032174*
Y0011615*
G37*
G36*
X0000924Y0010943D02*
X0000823Y0010923D01*
X0000675Y0010823*
X0000575Y0010675*
X0000555Y0010574*
X0000924*
Y0010943*
G37*
G36*
X0001074D02*
Y0010574D01*
X0001443*
X0001423Y0010675*
X0001323Y0010823*
X0001175Y0010923*
X0001074Y0010943*
G37*
G36*
X0023943Y0010799D02*
X0023574D01*
Y001043*
X0023675Y001045*
X0023823Y001055*
X0023923Y0010698*
X0023943Y0010799*
G37*
G36*
X0027924Y0010424D02*
X0027555D01*
X0027575Y0010323*
X0027675Y0010175*
X0027823Y0010075*
X0027924Y0010055*
Y0010424*
G37*
G36*
X0028443D02*
X0028074D01*
Y0010055*
X0028175Y0010075*
X0028323Y0010175*
X0028423Y0010323*
X0028443Y0010424*
G37*
G36*
X0023424Y0010799D02*
X0023055D01*
X0023075Y0010698*
X0023175Y001055*
X0023323Y001045*
X0023424Y001043*
Y0010799*
G37*
%LNzooidreceiverpcb-3*%
%LPD*%
G54D12*
X0032249Y001169D03*
Y0003308D03*
G54D29*
X0020882Y0001024D02*
X0021747Y0001889D01*
X0018074Y0001024D02*
X0020882D01*
X0010637Y0013484D02*
X0015371D01*
X0016376Y0012479*
X0010513Y0013784D02*
X0015814D01*
X0006949Y0009949D02*
Y001022D01*
X0007999Y0010421D02*
X0010762Y0013184D01*
X0007999Y0008849D02*
Y0010421D01*
X0007474Y0010321D02*
X0010637Y0013484D01*
X0007474Y0009399D02*
Y0010321D01*
X0006949Y001022D02*
X0010513Y0013784D01*
X0010762Y0013184D02*
X0015247D01*
X0015814Y0013784D02*
X0016359Y0013239D01*
X0015247Y0013184D02*
X0016477Y0011954D01*
X0018249Y0008819D02*
Y0008869D01*
Y0008819D02*
X0018804Y0008264D01*
X0018909Y0010319D02*
X0019009D01*
X0018429Y0010799D02*
X0018909Y0010319D01*
X0016477Y0011954D02*
X0017056D01*
X0016376Y0012479D02*
X0016839D01*
X0017364Y0012262D02*
Y0013484D01*
X0016839Y0014009D02*
X0017364Y0013484D01*
X0017056Y0011954D02*
X0017364Y0012262D01*
X0018804Y0004724D02*
Y0008264D01*
Y0004724D02*
X0019509Y0004019D01*
X0020914*
X0021774Y0003159*
X0018121Y0004278D02*
Y0004718D01*
X0017656Y0003814D02*
X0018121Y0004278D01*
X0017154Y0003814D02*
X0017656D01*
X0016909Y0004059D02*
X0017154Y0003814D01*
X0016909Y0004059D02*
X0016914Y0004064D01*
Y0004556*
X0017139Y0004781*
Y0006814*
X0017149Y0006824*
X0017439Y0006159D02*
X0017674Y0006394D01*
X0017439Y0004339D02*
Y0006159D01*
X0017679Y0007899D02*
X0017699Y0007879D01*
X0017674Y0006394D02*
Y0007854D01*
X0017699Y0007879*
X0018204Y0007369D02*
X0018279Y0007294D01*
X0018204Y0007369D02*
X0018229D01*
X0018279Y0005619D02*
Y0007294D01*
X0012424Y0010799D02*
X0018429D01*
X0021747Y0001889D02*
X0021774D01*
X0019624D02*
X0020504D01*
X0019284Y0001549D02*
X0019624Y0001889D01*
X0017424Y0001549D02*
X0019284D01*
G54D31*
X0018529Y0003849D02*
X0019059D01*
X0019749Y0003159*
X0020504*
G54D35*
X0019234Y0002524D03*
X0024314Y0001508D03*
Y000354D03*
G54D36*
X0002674Y0009749D03*
Y0005249D03*
G54D37*
X0002674Y0013349D03*
Y0001649D03*
G54D38*
X0018074Y0001024D03*
X0010979Y0012659D03*
X0015619Y0011799D03*
X0018249Y0008869D03*
X0019009Y0010319D03*
X0014499Y0012624D03*
X0016839Y0012479D03*
X0016359Y0013239D03*
X0016839Y0014009D03*
X0018529Y0003849D03*
X0018121Y0004718D03*
X0017149Y0006824D03*
X0017679Y0007899D03*
X0017439Y0004339D03*
X0018229Y0007369D03*
X0018279Y0005619D03*
X0017669Y0009839D03*
X0016839Y0003159D03*
X0006949Y0009949D03*
X0007474Y0009399D03*
X0007999Y0008849D03*
X0007424Y0003624D03*
X0006974Y0014099D03*
X0012424Y0010799D03*
X0012724Y0006474D03*
Y0008474D03*
X0010724D03*
X0014749D03*
Y0006474D03*
Y0004474D03*
X0005274Y0006499D03*
Y0008499D03*
X0022874Y0012199D03*
X0020549Y0007874D03*
X0021649D03*
X0020549Y0006774D03*
X0021649D03*
X0008349Y0001774D03*
Y0001024D03*
X0005099Y0000799D03*
X0021499Y0013249D03*
X0023499Y0004749D03*
Y0010874D03*
X0024499Y0010499D03*
X0009624Y0014074D03*
X0017424Y0001549D03*
X0001749Y0002999D03*
X0000999Y0004499D03*
Y0007499D03*
Y0010499D03*
X0001749Y0011999D03*
X0003249Y0002999D03*
X0002499Y0007499D03*
X0003249Y0011999D03*
X0005499Y0013499D03*
X0024249Y0011999D03*
X0025749Y0002999D03*
Y0005999D03*
Y0011999D03*
X0024999Y0013499D03*
X0026499Y0001499D03*
X0027249Y0002999D03*
X0026499Y0004499D03*
X0027249Y0005999D03*
X0026499Y0010499D03*
X0027249Y0011999D03*
X0026499Y0013499D03*
X0027999Y0001499D03*
X0028749Y0002999D03*
X0027999Y0004499D03*
X0028749Y0005999D03*
X0027999Y0010499D03*
X0028749Y0011999D03*
X0027999Y0013499D03*
X0029499Y0001499D03*
Y0013499D03*
X0030999Y0001499D03*
Y0013499D03*
X0032499Y0001499D03*
Y0013499D03*
X0033999Y0001499D03*
Y0013499D03*
X0012249Y0000799D03*
X0010749Y0001649D03*
X0012099Y0002124D03*
X0007174Y0006399D03*
X0013124Y0002024D03*
X0013949Y0002299D03*
G54D46*
X0021774Y0001889D03*
X0023044Y0003159D03*
X0020504Y0001889D03*
Y0003159D03*
X0023044Y0001889D03*
X0021774Y0003159D03*
G54D47*
X0005274Y0006499D02*
X0006081Y0007307D01*
X0008161*
X0005274Y0008499D02*
X0005967Y0007807D01*
X0008442*
X0008161Y0007307D02*
X0013124Y0002344D01*
Y0002024D02*
Y0002344D01*
X0008442Y0007807D02*
X0013949Y0002299D01*
M02*