%FSTAX43Y43*%
%MOMM*%
%SFA1B1*%

%IPPOS*%
%ADD10R,0.499999X0.599999*%
%ADD11R,0.599999X0.499999*%
%ADD12R,5.079990X2.031996*%
%ADD13R,5.079990X1.523997*%
%ADD14R,0.250000X0.549999*%
%ADD15R,0.699999X0.899998*%
%ADD16R,0.899998X0.699999*%
%ADD17R,1.049998X0.799998*%
%ADD18R,1.049998X0.599999*%
%ADD19R,1.999996X1.199998*%
%ADD20R,5.599989X5.599989*%
%ADD21O,0.699999X0.250000*%
%ADD22O,0.250000X0.699999*%
%ADD23O,0.499999X0.299999*%
%ADD24R,0.999998X1.599997*%
%ADD25O,0.649999X0.200000*%
%ADD26O,0.200000X0.649999*%
%ADD27R,2.599995X2.599995*%
%ADD28R,1.399997X1.149998*%
%LNzooidreceiverpcb-1*%
%LPD*%
G54D10*
X0013949Y0000624D03*
Y0001624D03*
X0019379Y0003559D03*
Y0004559D03*
X0023909Y0009479D03*
Y0008479D03*
X0021579Y0010309D03*
Y0011309D03*
X0020819Y0010309D03*
Y0011309D03*
X0024424Y0005724D03*
Y0004724D03*
X0020049Y0010309D03*
Y0011309D03*
X0008424Y0003574D03*
Y0004574D03*
X0022579Y0010309D03*
Y0011309D03*
X0018249Y0010549D03*
Y0011549D03*
X0017599Y0002439D03*
Y0003439D03*
X0016974Y0008824D03*
Y0009824D03*
X0008524Y0012999D03*
Y0011999D03*
X0026474Y0007574D03*
Y0008574D03*
X0029074Y0007574D03*
Y0008574D03*
G54D11*
X0027274Y0007499D03*
X0028274D03*
X0011024Y0010849D03*
X0010024D03*
X0022224Y0000599D03*
X0023224D03*
X0021159D03*
X0020159D03*
X0015449Y0010774D03*
X0014449D03*
X0016399Y0001949D03*
X0015399D03*
X0017369Y0011599D03*
X0016369D03*
X0013724Y0011524D03*
X0014724D03*
X0012899D03*
X0011899D03*
X0016399Y0001199D03*
X0015399D03*
X0021349Y0004419D03*
X0022349D03*
X0016379Y0010769D03*
X0017379D03*
X0017929Y0014009D03*
X0018929D03*
X0017929Y0013249D03*
X0018929D03*
X0017929Y0012479D03*
X0018929D03*
G54D12*
X0032249Y0003308D03*
Y001169D03*
G54D13*
X0032249Y0007499D03*
G54D14*
X0023924Y0006649D03*
X0024424D03*
X0024924D03*
Y0007499D03*
X0024424D03*
X0023924D03*
G54D15*
X0005099Y0000799D03*
X0006599D03*
X0012249D03*
X0010749D03*
X0009474Y0011774D03*
X0010974D03*
X0008474Y0014099D03*
X0006974D03*
G54D16*
X0007424Y0005124D03*
Y0003624D03*
G54D17*
X0022874Y0012199D03*
Y0014299D03*
X0020224Y0012199D03*
Y0014299D03*
G54D18*
X0022874Y0013249D03*
X0020224D03*
G54D19*
X0005274Y0006499D03*
Y0008499D03*
Y0010999D03*
Y0003999D03*
G54D20*
X0012699Y0006524D03*
G54D21*
X0016149Y0009274D03*
Y0008774D03*
Y0008274D03*
Y0007774D03*
Y0007274D03*
Y0006774D03*
Y0006274D03*
Y0005774D03*
Y0005274D03*
Y0004774D03*
Y0004274D03*
Y0003774D03*
X0009249D03*
Y0004274D03*
Y0004774D03*
Y0005274D03*
Y0005774D03*
Y0006274D03*
Y0006774D03*
Y0007274D03*
Y0007774D03*
Y0008274D03*
Y0008774D03*
Y0009274D03*
G54D22*
X0015449Y0003074D03*
X0014949D03*
X0014449D03*
X0012949D03*
X0012449D03*
X0011949D03*
X0011449D03*
X0010949D03*
X0010449D03*
X0009949D03*
Y0009974D03*
X0010449D03*
X0010949D03*
X0011449D03*
X0011949D03*
X0012449D03*
X0012949D03*
X0013449D03*
X0013949D03*
X0014449D03*
X0014949D03*
X0015449D03*
X0013949Y0003074D03*
X0013449D03*
G54D23*
X0009249Y0000749D03*
Y0001399D03*
Y0002049D03*
X0007449D03*
Y0001399D03*
Y0000749D03*
G54D24*
X0008349Y0001399D03*
G54D25*
X0019124Y0008324D03*
Y0007824D03*
Y0007324D03*
Y0006824D03*
Y0006324D03*
X0023074D03*
Y0006824D03*
Y0007324D03*
Y0007824D03*
Y0008324D03*
G54D26*
X0020099Y0005349D03*
X0020599D03*
X0021099D03*
X0021599D03*
X0022099D03*
Y0009299D03*
X0021599D03*
X0021099D03*
X0020599D03*
X0020099D03*
G54D27*
X0021099Y0007324D03*
G54D28*
X0014499Y0012624D03*
X0012299D03*
Y0014224D03*
X0014499D03*
X0020624Y0003399D03*
X0022824D03*
Y0001799D03*
X0020624D03*
M02*