%FSTAX43Y43*%
%MOMM*%
%SFA1B1*%

%IPPOS*%
%ADD35C,0.999998*%
%ADD36C,1.199998*%
%ADD51R,0.649999X0.749999*%
%ADD52R,0.749999X0.649999*%
%ADD53R,5.229990X2.181996*%
%ADD54R,5.229990X1.673997*%
%ADD55R,0.399999X0.699999*%
%ADD56R,0.849998X1.049998*%
%ADD57R,1.049998X0.849998*%
%ADD58R,1.199998X0.949998*%
%ADD59R,1.199998X0.749999*%
%ADD60R,2.149996X1.349997*%
%ADD61R,5.749989X5.749989*%
%ADD62O,0.849998X0.399999*%
%ADD63O,0.399999X0.849998*%
%ADD64O,0.649999X0.449999*%
%ADD65R,1.149998X1.749997*%
%ADD66O,0.799998X0.349999*%
%ADD67O,0.349999X0.799998*%
%ADD68R,2.749995X2.749995*%
%ADD69R,1.549997X1.299997*%
%ADD70O,3.349993X1.449997*%
%LNzooidreceiverpcb-1*%
%LPD*%
G54D35*
X0019234Y0002524D03*
X0024314Y0001508D03*
Y000354D03*
G54D36*
X0002674Y0009749D03*
Y0005249D03*
G54D51*
X0013949Y0000624D03*
Y0001624D03*
X0019379Y0003559D03*
Y0004559D03*
X0023909Y0009479D03*
Y0008479D03*
X0021579Y0010309D03*
Y0011309D03*
X0020819Y0010309D03*
Y0011309D03*
X0024424Y0005724D03*
Y0004724D03*
X0020049Y0010309D03*
Y0011309D03*
X0008424Y0003574D03*
Y0004574D03*
X0022579Y0010309D03*
Y0011309D03*
X0018249Y0010549D03*
Y0011549D03*
X0017599Y0002439D03*
Y0003439D03*
X0016974Y0008824D03*
Y0009824D03*
X0008524Y0012999D03*
Y0011999D03*
X0026474Y0007574D03*
Y0008574D03*
X0029074Y0007574D03*
Y0008574D03*
G54D52*
X0027274Y0007499D03*
X0028274D03*
X0011024Y0010849D03*
X0010024D03*
X0022224Y0000599D03*
X0023224D03*
X0021159D03*
X0020159D03*
X0015449Y0010774D03*
X0014449D03*
X0016399Y0001949D03*
X0015399D03*
X0017369Y0011599D03*
X0016369D03*
X0013724Y0011524D03*
X0014724D03*
X0012899D03*
X0011899D03*
X0016399Y0001199D03*
X0015399D03*
X0021349Y0004419D03*
X0022349D03*
X0016379Y0010769D03*
X0017379D03*
X0017929Y0014009D03*
X0018929D03*
X0017929Y0013249D03*
X0018929D03*
X0017929Y0012479D03*
X0018929D03*
G54D53*
X0032249Y0003308D03*
Y001169D03*
G54D54*
X0032249Y0007499D03*
G54D55*
X0023924Y0006649D03*
X0024424D03*
X0024924D03*
Y0007499D03*
X0024424D03*
X0023924D03*
G54D56*
X0005099Y0000799D03*
X0006599D03*
X0012249D03*
X0010749D03*
X0009474Y0011774D03*
X0010974D03*
X0008474Y0014099D03*
X0006974D03*
G54D57*
X0007424Y0005124D03*
Y0003624D03*
G54D58*
X0022874Y0012199D03*
Y0014299D03*
X0020224Y0012199D03*
Y0014299D03*
G54D59*
X0022874Y0013249D03*
X0020224D03*
G54D60*
X0005274Y0006499D03*
Y0008499D03*
Y0010999D03*
Y0003999D03*
G54D61*
X0012699Y0006524D03*
G54D62*
X0016149Y0009274D03*
Y0008774D03*
Y0008274D03*
Y0007774D03*
Y0007274D03*
Y0006774D03*
Y0006274D03*
Y0005774D03*
Y0005274D03*
Y0004774D03*
Y0004274D03*
Y0003774D03*
X0009249D03*
Y0004274D03*
Y0004774D03*
Y0005274D03*
Y0005774D03*
Y0006274D03*
Y0006774D03*
Y0007274D03*
Y0007774D03*
Y0008274D03*
Y0008774D03*
Y0009274D03*
G54D63*
X0015449Y0003074D03*
X0014949D03*
X0014449D03*
X0012949D03*
X0012449D03*
X0011949D03*
X0011449D03*
X0010949D03*
X0010449D03*
X0009949D03*
Y0009974D03*
X0010449D03*
X0010949D03*
X0011449D03*
X0011949D03*
X0012449D03*
X0012949D03*
X0013449D03*
X0013949D03*
X0014449D03*
X0014949D03*
X0015449D03*
X0013949Y0003074D03*
X0013449D03*
G54D64*
X0009249Y0000749D03*
Y0001399D03*
Y0002049D03*
X0007449D03*
Y0001399D03*
Y0000749D03*
G54D65*
X0008349Y0001399D03*
G54D66*
X0019124Y0008324D03*
Y0007824D03*
Y0007324D03*
Y0006824D03*
Y0006324D03*
X0023074D03*
Y0006824D03*
Y0007324D03*
Y0007824D03*
Y0008324D03*
G54D67*
X0020099Y0005349D03*
X0020599D03*
X0021099D03*
X0021599D03*
X0022099D03*
Y0009299D03*
X0021599D03*
X0021099D03*
X0020599D03*
X0020099D03*
G54D68*
X0021099Y0007324D03*
G54D69*
X0014499Y0012624D03*
X0012299D03*
Y0014224D03*
X0014499D03*
X0020624Y0003399D03*
X0022824D03*
Y0001799D03*
X0020624D03*
G54D70*
X0002674Y0013349D03*
Y0001649D03*
M02*